STARTFONT 2.1
COMMENT
COMMENT Converted from OpenType font "MultiTypeGamerChess-Regular.otf" by "otf2bdf 3.0".
COMMENT
FONT -FreeType-MultiType Gamer Chess-Medium-R-Normal--22-160-100-100-P-132-ISO10646-1
SIZE 16 100 100
FONTBOUNDINGBOX 57 39 -19 -7
STARTPROPERTIES 19
FOUNDRY "FreeType"
FAMILY_NAME "MultiType Gamer Chess"
WEIGHT_NAME "Medium"
SLANT "R"
SETWIDTH_NAME "Normal"
ADD_STYLE_NAME ""
PIXEL_SIZE 22
POINT_SIZE 160
RESOLUTION_X 100
RESOLUTION_Y 100
SPACING "P"
AVERAGE_WIDTH 132
CHARSET_REGISTRY "ISO10646"
CHARSET_ENCODING "1"
FONT_ASCENT 24
FONT_DESCENT 2
COPYRIGHT "-FreeType-MultiType Gamer Chess-Medium-R-Normal--22-160-100-100-P-132-ISO10646-1"
_OTF_FONTFILE "MultiTypeGamerChess-Regular.otf"
_OTF_PSNAME "MultiTypeGamer-Chess"
ENDPROPERTIES
CHARS 758
STARTCHAR 0020
ENCODING 32
SWIDTH 270 0
DWIDTH 6 0
BBX 0 0 0 0
BITMAP
ENDCHAR
STARTCHAR 0021
ENCODING 33
SWIDTH 270 0
DWIDTH 6 0
BBX 3 17 2 0
BITMAP
A0
40
40
A0
40
A0
40
A0
40
A0
40
00
00
00
A0
40
A0
ENDCHAR
STARTCHAR 0022
ENCODING 34
SWIDTH 450 0
DWIDTH 10 0
BBX 8 6 1 13
BITMAP
A5
42
A5
42
42
A5
ENDCHAR
STARTCHAR 0023
ENCODING 35
SWIDTH 900 0
DWIDTH 20 0
BBX 16 21 2 -2
BITMAP
1428
0810
1428
0810
0810
1428
AA55
55AA
AA55
1428
0810
1428
AA55
55AA
55AA
AA55
1428
0810
1428
0810
1428
ENDCHAR
STARTCHAR 0024
ENCODING 36
SWIDTH 675 0
DWIDTH 15 0
BBX 12 21 2 -2
BITMAP
0A00
0400
2A50
55A0
55A0
AA50
4000
A000
4000
AA40
55A0
2A50
0020
0050
0050
0020
AA50
55A0
AA40
0400
0A00
ENDCHAR
STARTCHAR 0025
ENCODING 37
SWIDTH 1260 0
DWIDTH 28 0
BBX 25 17 2 0
BITMAP
2A050000
55820000
55820000
AA450000
418A0000
A2440000
418A0000
AA546A00
55889500
2A156A80
00288100
00116280
00116280
00288100
00516A80
00209500
00506A00
ENDCHAR
STARTCHAR 0026
ENCODING 38
SWIDTH 765 0
DWIDTH 17 0
BBX 14 17 2 0
BITMAP
2A40
5580
5580
AA40
4000
A050
5020
2A54
15A8
2A54
5020
A050
A050
4020
AA54
55A8
2A54
ENDCHAR
STARTCHAR 0027
ENCODING 39
SWIDTH 180 0
DWIDTH 4 0
BBX 3 6 1 13
BITMAP
A0
40
A0
40
40
A0
ENDCHAR
STARTCHAR 0028
ENCODING 40
SWIDTH 270 0
DWIDTH 6 0
BBX 5 25 2 -4
BITMAP
28
50
A0
40
A0
40
40
A0
40
A0
40
A0
40
A0
40
A0
A0
40
A0
40
A0
40
A0
50
28
ENDCHAR
STARTCHAR 0029
ENCODING 41
SWIDTH 270 0
DWIDTH 6 0
BBX 6 25 -1 -4
BITMAP
D0
28
14
08
14
08
08
14
08
14
08
14
08
14
08
14
14
08
14
08
14
08
14
28
D0
ENDCHAR
STARTCHAR 002A
ENCODING 42
SWIDTH 900 0
DWIDTH 20 0
BBX 16 15 2 4
BITMAP
A245
4182
A245
518A
518A
2A54
15A8
0A50
15A8
2A54
518A
A245
4182
A245
A245
ENDCHAR
STARTCHAR 002B
ENCODING 43
SWIDTH 675 0
DWIDTH 15 0
BBX 12 12 2 2
BITMAP
0A00
0400
0A00
0400
AA50
55A0
AA50
0400
0A00
0A00
0400
0A00
ENDCHAR
STARTCHAR 002C
ENCODING 44
SWIDTH 180 0
DWIDTH 4 0
BBX 3 5 1 -2
BITMAP
A0
40
A0
40
80
ENDCHAR
STARTCHAR 002D
ENCODING 45
SWIDTH 495 0
DWIDTH 11 0
BBX 10 3 1 7
BITMAP
AAC0
5500
AAC0
ENDCHAR
STARTCHAR 002E
ENCODING 46
SWIDTH 180 0
DWIDTH 4 0
BBX 3 3 1 0
BITMAP
A0
40
A0
ENDCHAR
STARTCHAR 002F
ENCODING 47
SWIDTH 360 0
DWIDTH 8 0
BBX 7 17 1 0
BITMAP
0A
04
04
0A
14
08
14
28
10
28
50
20
20
50
A0
40
A0
ENDCHAR
STARTCHAR 0030
ENCODING 48
SWIDTH 675 0
DWIDTH 15 0
BBX 12 17 2 0
BITMAP
0A00
1580
1580
2A40
51A0
A050
4020
A050
4020
A050
4020
A050
A050
51A0
2A40
1580
0A00
ENDCHAR
STARTCHAR 0031
ENCODING 49
SWIDTH 360 0
DWIDTH 8 0
BBX 5 17 2 0
BITMAP
A8
50
50
A8
10
28
10
28
10
28
10
28
28
10
28
10
28
ENDCHAR
STARTCHAR 0032
ENCODING 50
SWIDTH 675 0
DWIDTH 15 0
BBX 12 17 2 0
BITMAP
2A40
55A0
55A0
AA50
4020
A050
01A0
0240
0580
0A00
1400
2800
2800
5000
AA50
55A0
AA50
ENDCHAR
STARTCHAR 0033
ENCODING 51
SWIDTH 675 0
DWIDTH 15 0
BBX 12 17 2 0
BITMAP
2A40
55A0
55A0
AA50
4020
A050
01A0
0A40
05A0
0A50
0020
A050
A050
4020
AA50
55A0
2A40
ENDCHAR
STARTCHAR 0034
ENCODING 52
SWIDTH 675 0
DWIDTH 15 0
BBX 12 17 2 0
BITMAP
0240
0580
0580
0A40
1580
2A40
5180
A240
4180
AA50
55A0
AA50
AA50
0180
0240
0180
0240
ENDCHAR
STARTCHAR 0035
ENCODING 53
SWIDTH 675 0
DWIDTH 15 0
BBX 12 17 2 0
BITMAP
AA50
55A0
55A0
AA50
4000
A000
4000
AA40
55A0
AA50
0020
0050
0050
0020
AA50
55A0
AA40
ENDCHAR
STARTCHAR 0036
ENCODING 54
SWIDTH 675 0
DWIDTH 15 0
BBX 12 17 2 0
BITMAP
0A50
15A0
15A0
2A50
5000
A000
4000
AA40
55A0
AA50
4020
A050
A050
4020
AA50
55A0
2A40
ENDCHAR
STARTCHAR 0037
ENCODING 55
SWIDTH 675 0
DWIDTH 15 0
BBX 12 17 2 0
BITMAP
AA50
55A0
55A0
AA50
0020
0050
01A0
0240
0580
0A00
1400
2800
2800
1000
2800
1000
2800
ENDCHAR
STARTCHAR 0038
ENCODING 56
SWIDTH 675 0
DWIDTH 15 0
BBX 12 17 2 0
BITMAP
2A40
55A0
55A0
AA50
4020
A050
51A0
2A40
1580
2A40
51A0
A050
A050
4020
AA50
55A0
2A40
ENDCHAR
STARTCHAR 0039
ENCODING 57
SWIDTH 675 0
DWIDTH 15 0
BBX 12 17 2 0
BITMAP
2A40
55A0
55A0
AA50
4020
A050
4020
AA50
55A0
2A50
0020
0050
0050
01A0
AA40
5580
AA00
ENDCHAR
STARTCHAR 003A
ENCODING 58
SWIDTH 180 0
DWIDTH 4 0
BBX 3 10 1 3
BITMAP
A0
40
A0
00
00
00
A0
40
40
A0
ENDCHAR
STARTCHAR 003B
ENCODING 59
SWIDTH 180 0
DWIDTH 4 0
BBX 3 12 1 -2
BITMAP
A0
40
A0
00
00
00
00
A0
40
A0
40
80
ENDCHAR
STARTCHAR 003C
ENCODING 60
SWIDTH 630 0
DWIDTH 14 0
BBX 11 17 1 0
BITMAP
0120
02C0
02C0
0500
0A00
1400
2800
5000
A000
5000
2800
1400
1400
0A00
0500
02C0
0120
ENDCHAR
STARTCHAR 003D
ENCODING 61
SWIDTH 675 0
DWIDTH 15 0
BBX 12 10 2 2
BITMAP
AA50
55A0
AA50
0000
0000
0000
AA50
AA50
55A0
AA50
ENDCHAR
STARTCHAR 003E
ENCODING 62
SWIDTH 630 0
DWIDTH 14 0
BBX 11 17 3 0
BITMAP
A000
5000
5000
2800
1400
0B00
0480
0340
00A0
0340
0480
0B00
0B00
1400
2800
5000
A000
ENDCHAR
STARTCHAR 003F
ENCODING 63
SWIDTH 675 0
DWIDTH 15 0
BBX 12 17 2 0
BITMAP
2A40
55A0
55A0
AA50
4020
A050
0020
0250
05A0
0A40
0400
0A00
0A00
0000
0A00
0400
0A00
ENDCHAR
STARTCHAR 0040
ENCODING 64
SWIDTH 1170 0
DWIDTH 26 0
BBX 23 23 2 -2
BITMAP
0A5560
15AA90
2A5568
500014
A0000A
400004
400004
A0550A
41AA04
A2550A
418204
A2450A
418204
A2556A
41AA94
A05568
A05568
400000
A00000
500000
2A556A
15AA94
0A556A
ENDCHAR
STARTCHAR 0041
ENCODING 65
SWIDTH 675 0
DWIDTH 15 0
BBX 12 17 2 0
BITMAP
0A00
1580
1580
2A40
51A0
A050
4020
A050
4020
AA50
55A0
AA50
AA50
4020
A050
4020
A050
ENDCHAR
STARTCHAR 0042
ENCODING 66
SWIDTH 675 0
DWIDTH 15 0
BBX 12 17 2 0
BITMAP
AA40
55A0
55A0
AA50
4020
A050
41A0
AA40
55A0
AA50
4020
A050
A050
4020
AA50
55A0
AA40
ENDCHAR
STARTCHAR 0043
ENCODING 67
SWIDTH 765 0
DWIDTH 17 0
BBX 14 17 2 0
BITMAP
0A40
15A0
15A0
2A50
5028
A014
4008
A014
4000
A000
4000
A014
A014
5028
2A50
15A0
0A40
ENDCHAR
STARTCHAR 0044
ENCODING 68
SWIDTH 765 0
DWIDTH 17 0
BBX 14 17 2 0
BITMAP
AA40
55A0
55A0
AA50
4028
A014
4008
A014
4008
A014
4008
A014
A014
4028
AA50
55A0
AA40
ENDCHAR
STARTCHAR 0045
ENCODING 69
SWIDTH 675 0
DWIDTH 15 0
BBX 12 17 2 0
BITMAP
0A50
15A0
15A0
2A50
5000
A000
4000
AA40
5580
AA40
4000
A000
A000
5000
2A50
15A0
0A50
ENDCHAR
STARTCHAR 0046
ENCODING 70
SWIDTH 675 0
DWIDTH 15 0
BBX 12 17 2 0
BITMAP
0A50
15A0
15A0
2A50
5000
A000
4000
AA40
5580
AA40
4000
A000
A000
4000
A000
4000
A000
ENDCHAR
STARTCHAR 0047
ENCODING 71
SWIDTH 765 0
DWIDTH 17 0
BBX 14 17 2 0
BITMAP
0A54
15A8
15A8
2A54
5000
A000
4000
A254
41A8
A254
4008
A014
A014
5008
2A54
15A8
0A54
ENDCHAR
STARTCHAR 0048
ENCODING 72
SWIDTH 765 0
DWIDTH 17 0
BBX 14 17 2 0
BITMAP
A014
4008
4008
A014
4008
A014
4008
AA54
55A8
AA54
4008
A014
A014
4008
A014
4008
A014
ENDCHAR
STARTCHAR 0049
ENCODING 73
SWIDTH 495 0
DWIDTH 11 0
BBX 7 17 2 0
BITMAP
AA
54
54
AA
10
28
10
28
10
28
10
28
28
10
AA
54
AA
ENDCHAR
STARTCHAR 004A
ENCODING 74
SWIDTH 585 0
DWIDTH 13 0
BBX 10 17 2 0
BITMAP
AA40
5580
5580
AA40
0180
0240
0180
0240
0180
0240
0180
0240
0240
0580
AA00
5400
A800
ENDCHAR
STARTCHAR 004B
ENCODING 75
SWIDTH 675 0
DWIDTH 15 0
BBX 12 17 2 0
BITMAP
A050
4020
4020
A050
41A0
A240
4580
AA00
5400
AA00
4580
A240
A240
41A0
A050
4020
A050
ENDCHAR
STARTCHAR 004C
ENCODING 76
SWIDTH 675 0
DWIDTH 15 0
BBX 12 17 2 0
BITMAP
A000
4000
4000
A000
4000
A000
4000
A000
4000
A000
4000
A000
A000
4000
AA50
55A0
2A50
ENDCHAR
STARTCHAR 004D
ENCODING 77
SWIDTH 990 0
DWIDTH 22 0
BBX 19 17 2 0
BITMAP
A00160
500280
500280
A80560
540A80
AA1560
45A880
A25160
41A080
A04160
400080
A00160
A00160
400080
A00160
400080
A00160
ENDCHAR
STARTCHAR 004E
ENCODING 78
SWIDTH 765 0
DWIDTH 17 0
BBX 14 17 2 0
BITMAP
A014
5008
5008
A814
5408
AA14
4588
A254
41A8
A054
4028
A014
A014
4008
A014
4008
A014
ENDCHAR
STARTCHAR 004F
ENCODING 79
SWIDTH 765 0
DWIDTH 17 0
BBX 14 17 2 0
BITMAP
0A40
15A0
15A0
2A50
5028
A014
4008
A014
4008
A014
4008
A014
A014
5028
2A50
15A0
0A40
ENDCHAR
STARTCHAR 0050
ENCODING 80
SWIDTH 675 0
DWIDTH 15 0
BBX 12 17 2 0
BITMAP
AA00
5580
5580
AA40
41A0
A050
4020
A050
4020
A050
41A0
AA40
AA40
5580
AA00
4000
A000
ENDCHAR
STARTCHAR 0051
ENCODING 81
SWIDTH 765 0
DWIDTH 17 0
BBX 14 19 2 -2
BITMAP
0A40
15A0
15A0
2A50
5028
A014
4008
A014
4008
A014
4008
A014
A014
5028
2A50
15A0
0A40
01A0
0050
ENDCHAR
STARTCHAR 0052
ENCODING 82
SWIDTH 675 0
DWIDTH 15 0
BBX 12 17 2 0
BITMAP
AA00
5580
5580
AA40
41A0
A050
4020
A050
4020
A050
41A0
AA40
AA40
5580
AA40
41A0
A050
ENDCHAR
STARTCHAR 0053
ENCODING 83
SWIDTH 675 0
DWIDTH 15 0
BBX 12 17 2 0
BITMAP
2A40
55A0
55A0
AA50
4020
A050
4000
AA40
55A0
2A50
0020
A050
A050
4020
AA50
55A0
2A40
ENDCHAR
STARTCHAR 0054
ENCODING 84
SWIDTH 675 0
DWIDTH 15 0
BBX 12 17 2 0
BITMAP
AA50
55A0
55A0
AA50
0400
0A00
0400
0A00
0400
0A00
0400
0A00
0A00
0400
0A00
0400
0A00
ENDCHAR
STARTCHAR 0055
ENCODING 85
SWIDTH 765 0
DWIDTH 17 0
BBX 14 17 2 0
BITMAP
A014
4008
4008
A014
4008
A014
4008
A014
4008
A014
4008
A014
A014
5028
2A50
15A0
0A40
ENDCHAR
STARTCHAR 0056
ENCODING 86
SWIDTH 675 0
DWIDTH 15 0
BBX 12 17 2 0
BITMAP
A050
4020
4020
A050
4020
A050
4020
A050
4020
A050
4020
A050
A050
51A0
2A40
1580
0A00
ENDCHAR
STARTCHAR 0057
ENCODING 87
SWIDTH 1080 0
DWIDTH 24 0
BBX 21 17 2 0
BITMAP
A05068
402010
402010
A05068
402010
A05068
402010
A05068
402010
A05068
402010
A05068
A05068
51A890
2A5560
158A80
0A0500
ENDCHAR
STARTCHAR 0058
ENCODING 88
SWIDTH 765 0
DWIDTH 17 0
BBX 14 17 2 0
BITMAP
A014
4008
4008
A014
4008
A014
5028
2A50
15A0
2A50
5028
A014
A014
4008
A014
4008
A014
ENDCHAR
STARTCHAR 0059
ENCODING 89
SWIDTH 675 0
DWIDTH 15 0
BBX 12 17 2 0
BITMAP
A050
4020
4020
A050
4020
A050
4020
A050
51A0
2A40
1580
0A00
0A00
0400
0A00
0400
0A00
ENDCHAR
STARTCHAR 005A
ENCODING 90
SWIDTH 675 0
DWIDTH 15 0
BBX 12 17 2 0
BITMAP
AA50
55A0
55A0
AA50
01A0
0240
0580
0A00
1400
2800
5000
A000
A000
4000
AA50
55A0
AA50
ENDCHAR
STARTCHAR 005B
ENCODING 91
SWIDTH 315 0
DWIDTH 7 0
BBX 5 25 2 -4
BITMAP
A8
50
A8
40
A0
40
40
A0
40
A0
40
A0
40
A0
40
A0
A0
40
A0
40
A0
40
A8
50
A8
ENDCHAR
STARTCHAR 005C
ENCODING 92
SWIDTH 360 0
DWIDTH 8 0
BBX 7 17 1 0
BITMAP
A0
40
40
A0
50
20
50
28
10
28
14
08
08
14
0A
04
0A
ENDCHAR
STARTCHAR 005D
ENCODING 93
SWIDTH 315 0
DWIDTH 7 0
BBX 5 25 1 -4
BITMAP
A8
50
A8
10
28
10
10
28
10
28
10
28
10
28
10
28
28
10
28
10
28
10
A8
50
A8
ENDCHAR
STARTCHAR 005F
ENCODING 95
SWIDTH 765 0
DWIDTH 17 0
BBX 16 3 1 -2
BITMAP
AAD5
552A
AAD5
ENDCHAR
STARTCHAR 0060
ENCODING 96
SWIDTH 315 0
DWIDTH 7 0
BBX 8 5 -2 18
BITMAP
90
68
14
0A
05
ENDCHAR
STARTCHAR 0061
ENCODING 97
SWIDTH 675 0
DWIDTH 15 0
BBX 12 17 2 0
BITMAP
2A40
55A0
55A0
AA50
4020
A050
4020
A050
4020
AA50
55A0
AA50
AA50
4020
A050
4020
A050
ENDCHAR
STARTCHAR 0062
ENCODING 98
SWIDTH 675 0
DWIDTH 15 0
BBX 12 17 2 0
BITMAP
AA40
55A0
55A0
AA50
4020
A050
41A0
AA40
5580
AA40
41A0
A050
A050
4020
AA50
55A0
AA40
ENDCHAR
STARTCHAR 0063
ENCODING 99
SWIDTH 675 0
DWIDTH 15 0
BBX 12 17 2 0
BITMAP
2A40
55A0
55A0
AA50
4020
A050
4020
A050
4000
A000
4000
A050
A050
4020
AA50
55A0
2A40
ENDCHAR
STARTCHAR 0064
ENCODING 100
SWIDTH 675 0
DWIDTH 15 0
BBX 12 17 2 0
BITMAP
AA40
55A0
55A0
AA50
4020
A050
4020
A050
4020
A050
4020
A050
A050
4020
AA50
55A0
AA40
ENDCHAR
STARTCHAR 0065
ENCODING 101
SWIDTH 675 0
DWIDTH 15 0
BBX 12 17 2 0
BITMAP
2A50
55A0
55A0
AA50
4000
A000
4000
AA40
5580
AA40
4000
A000
A000
4000
AA50
55A0
2A50
ENDCHAR
STARTCHAR 0066
ENCODING 102
SWIDTH 675 0
DWIDTH 15 0
BBX 12 17 2 0
BITMAP
2A50
55A0
55A0
AA50
4000
A000
4000
AA40
5580
AA40
4000
A000
A000
4000
A000
4000
A000
ENDCHAR
STARTCHAR 0067
ENCODING 103
SWIDTH 675 0
DWIDTH 15 0
BBX 12 17 2 0
BITMAP
2A50
55A0
55A0
AA50
4000
A000
4000
A250
41A0
A250
4020
A050
A050
4020
AA50
55A0
2A40
ENDCHAR
STARTCHAR 0068
ENCODING 104
SWIDTH 675 0
DWIDTH 15 0
BBX 12 17 2 0
BITMAP
A050
4020
4020
A050
4020
A050
4020
AA50
55A0
AA50
4020
A050
A050
4020
A050
4020
A050
ENDCHAR
STARTCHAR 0069
ENCODING 105
SWIDTH 270 0
DWIDTH 6 0
BBX 3 17 2 0
BITMAP
A0
40
40
A0
40
A0
40
A0
40
A0
40
A0
A0
40
A0
40
A0
ENDCHAR
STARTCHAR 006A
ENCODING 106
SWIDTH 495 0
DWIDTH 11 0
BBX 7 17 2 0
BITMAP
0A
04
04
0A
04
0A
04
0A
04
0A
04
0A
0A
04
AA
54
A8
ENDCHAR
STARTCHAR 006B
ENCODING 107
SWIDTH 675 0
DWIDTH 15 0
BBX 12 17 2 0
BITMAP
A050
4020
4020
A050
4020
A050
41A0
AA40
5580
AA40
41A0
A050
A050
4020
A050
4020
A050
ENDCHAR
STARTCHAR 006C
ENCODING 108
SWIDTH 585 0
DWIDTH 13 0
BBX 10 17 2 0
BITMAP
A000
4000
4000
A000
4000
A000
4000
A000
4000
A000
4000
A000
A000
4000
AA40
5580
2A40
ENDCHAR
STARTCHAR 006D
ENCODING 109
SWIDTH 900 0
DWIDTH 20 0
BBX 16 17 2 0
BITMAP
A005
500A
500A
A815
542A
AA55
45A2
A245
4182
A005
4002
A005
A005
4002
A005
4002
A005
ENDCHAR
STARTCHAR 006E
ENCODING 110
SWIDTH 675 0
DWIDTH 15 0
BBX 12 17 2 0
BITMAP
A050
5020
5020
A850
5420
AA50
45A0
A250
41A0
A050
4020
A050
A050
4020
A050
4020
A050
ENDCHAR
STARTCHAR 006F
ENCODING 111
SWIDTH 675 0
DWIDTH 15 0
BBX 12 17 2 0
BITMAP
2A40
55A0
55A0
AA50
4020
A050
4020
A050
4020
A050
4020
A050
A050
4020
AA50
55A0
2A40
ENDCHAR
STARTCHAR 0070
ENCODING 112
SWIDTH 675 0
DWIDTH 15 0
BBX 12 17 2 0
BITMAP
AA40
55A0
55A0
AA50
4020
A050
4020
A050
4020
AA50
55A0
AA40
AA40
4000
A000
4000
A000
ENDCHAR
STARTCHAR 0071
ENCODING 113
SWIDTH 675 0
DWIDTH 15 0
BBX 12 19 2 -2
BITMAP
2A40
55A0
55A0
AA50
4020
A050
4020
A050
4020
A050
4020
A050
A050
4020
AA50
55A0
2A40
01A0
0050
ENDCHAR
STARTCHAR 0072
ENCODING 114
SWIDTH 675 0
DWIDTH 15 0
BBX 12 17 2 0
BITMAP
AA40
55A0
55A0
AA50
4020
A050
4020
A050
4020
AA50
55A0
AA40
AA40
41A0
A050
4020
A050
ENDCHAR
STARTCHAR 0073
ENCODING 115
SWIDTH 675 0
DWIDTH 15 0
BBX 12 17 2 0
BITMAP
2A40
55A0
55A0
AA50
4020
A050
4000
AA40
55A0
2A50
0020
A050
A050
4020
AA50
55A0
2A40
ENDCHAR
STARTCHAR 0074
ENCODING 116
SWIDTH 675 0
DWIDTH 15 0
BBX 12 17 2 0
BITMAP
AA50
55A0
55A0
AA50
0400
0A00
0400
0A00
0400
0A00
0400
0A00
0A00
0400
0A00
0400
0A00
ENDCHAR
STARTCHAR 0075
ENCODING 117
SWIDTH 675 0
DWIDTH 15 0
BBX 12 17 2 0
BITMAP
A050
4020
4020
A050
4020
A050
4020
A050
4020
A050
4020
A050
A050
4020
AA50
55A0
2A40
ENDCHAR
STARTCHAR 0076
ENCODING 118
SWIDTH 675 0
DWIDTH 15 0
BBX 12 17 2 0
BITMAP
A050
4020
4020
A050
4020
A050
4020
A050
4020
A050
4020
A050
A050
51A0
2A40
1580
0A00
ENDCHAR
STARTCHAR 0077
ENCODING 119
SWIDTH 1080 0
DWIDTH 24 0
BBX 21 17 2 0
BITMAP
A05068
402010
402010
A05068
402010
A05068
402010
A05068
402010
A05068
402010
A05068
A05068
41A810
AA5568
558A90
2A0560
ENDCHAR
STARTCHAR 0078
ENCODING 120
SWIDTH 675 0
DWIDTH 15 0
BBX 12 17 2 0
BITMAP
A050
4020
4020
A050
4020
A050
51A0
2A40
1580
2A40
51A0
A050
A050
4020
A050
4020
A050
ENDCHAR
STARTCHAR 0079
ENCODING 121
SWIDTH 675 0
DWIDTH 15 0
BBX 12 17 2 0
BITMAP
A050
4020
4020
A050
4020
A050
4020
A050
4020
AA50
55A0
2A40
2A40
0400
0A00
0400
0A00
ENDCHAR
STARTCHAR 007A
ENCODING 122
SWIDTH 675 0
DWIDTH 15 0
BBX 12 17 2 0
BITMAP
AA50
55A0
55A0
AA50
0020
0050
0020
2A50
55A0
AA40
4000
A000
A000
4000
AA50
55A0
AA50
ENDCHAR
STARTCHAR 007B
ENCODING 123
SWIDTH 360 0
DWIDTH 8 0
BBX 8 25 1 -4
BITMAP
05
0A
14
08
14
08
08
14
08
14
28
50
A0
50
28
14
14
08
14
08
14
08
14
0A
05
ENDCHAR
STARTCHAR 007C
ENCODING 124
SWIDTH 270 0
DWIDTH 6 0
BBX 3 21 2 -2
BITMAP
A0
40
A0
40
40
A0
40
A0
40
A0
40
A0
40
A0
A0
40
A0
40
A0
40
A0
ENDCHAR
STARTCHAR 007D
ENCODING 125
SWIDTH 360 0
DWIDTH 8 0
BBX 9 25 -1 -4
BITMAP
D000
2800
1400
0800
1400
0800
0800
1400
0800
1400
0A00
0500
0280
0500
0A00
1400
1400
0800
1400
0800
1400
0800
1400
2800
D000
ENDCHAR
STARTCHAR 00A1
ENCODING 161
SWIDTH 270 0
DWIDTH 6 0
BBX 3 17 2 0
BITMAP
A0
40
40
A0
00
00
40
A0
40
A0
40
A0
A0
40
A0
40
A0
ENDCHAR
STARTCHAR 00A2
ENCODING 162
SWIDTH 675 0
DWIDTH 15 0
BBX 12 21 2 -2
BITMAP
0A00
0400
2A40
55A0
55A0
AA50
4020
A050
4020
A050
4000
A000
4000
A050
A050
4020
AA50
55A0
2A40
0400
0A00
ENDCHAR
STARTCHAR 00A3
ENCODING 163
SWIDTH 675 0
DWIDTH 15 0
BBX 12 19 2 0
BITMAP
0A40
15A0
2A50
1020
1020
2850
1000
2800
1000
AA40
5580
AA40
1000
2800
2800
1000
AA50
55A0
AA50
ENDCHAR
STARTCHAR 00A4
ENCODING 164
SWIDTH 765 0
DWIDTH 17 0
BBX 14 15 2 4
BITMAP
2800
1000
2A54
15A8
15A8
2A54
1020
2850
1020
AA50
55A0
AA50
0020
0050
0050
ENDCHAR
STARTCHAR 00A5
ENCODING 165
SWIDTH 675 0
DWIDTH 15 0
BBX 12 23 2 -2
BITMAP
A050
4020
A050
4020
A050
51A0
51A0
2A40
1580
0A00
0400
AA50
55A0
AA50
0400
0A00
0A00
0400
AA50
55A0
AA50
0400
0A00
ENDCHAR
STARTCHAR 00A6
ENCODING 166
SWIDTH 270 0
DWIDTH 6 0
BBX 3 21 2 -2
BITMAP
A0
40
A0
40
40
A0
40
A0
00
00
00
00
00
A0
A0
40
A0
40
A0
40
A0
ENDCHAR
STARTCHAR 00A7
ENCODING 167
SWIDTH 675 0
DWIDTH 15 0
BBX 12 25 2 -4
BITMAP
0A50
15A0
2A50
5000
A000
4000
4000
AA00
5580
AA40
41A0
A050
4020
A050
5020
2A50
2A50
15A0
0A50
0020
0050
01A0
AA40
5580
AA00
ENDCHAR
STARTCHAR 00A8
ENCODING 168
SWIDTH 360 0
DWIDTH 8 0
BBX 7 3 1 18
BITMAP
AA
44
AA
ENDCHAR
STARTCHAR 00AB
ENCODING 171
SWIDTH 810 0
DWIDTH 18 0
BBX 15 12 1 2
BITMAP
050A
0A14
1428
28D0
5120
A2C0
5120
28D0
1428
1428
0A14
050A
ENDCHAR
STARTCHAR 00AD
ENCODING 173
SWIDTH 495 0
DWIDTH 11 0
BBX 10 3 1 7
BITMAP
AAC0
5500
AAC0
ENDCHAR
STARTCHAR 00AF
ENCODING 175
SWIDTH 360 0
DWIDTH 8 0
BBX 7 3 1 18
BITMAP
AA
54
AA
ENDCHAR
STARTCHAR 00B0
ENCODING 176
SWIDTH 495 0
DWIDTH 11 0
BBX 10 10 1 9
BITMAP
2A00
5500
AAC0
4100
4100
A2C0
4100
AAC0
5500
2A00
ENDCHAR
STARTCHAR 00B4
ENCODING 180
SWIDTH 315 0
DWIDTH 7 0
BBX 7 5 1 18
BITMAP
0A
14
28
50
A0
ENDCHAR
STARTCHAR 00B6
ENCODING 182
SWIDTH 675 0
DWIDTH 15 0
BBX 12 17 2 0
BITMAP
2A50
5420
5420
AA50
5420
AA50
5420
AA50
5420
2A50
0420
0A50
0A50
0420
0A50
0420
0A50
ENDCHAR
STARTCHAR 00B7
ENCODING 183
SWIDTH 180 0
DWIDTH 4 0
BBX 3 3 1 7
BITMAP
A0
40
A0
ENDCHAR
STARTCHAR 00B8
ENCODING 184
SWIDTH 225 0
DWIDTH 5 0
BBX 6 4 -1 -4
BITMAP
08
D4
28
D0
ENDCHAR
STARTCHAR 00BB
ENCODING 187
SWIDTH 810 0
DWIDTH 18 0
BBX 15 12 3 2
BITMAP
A340
50A0
2850
1428
0B14
048A
0B14
1428
2850
2850
50A0
A340
ENDCHAR
STARTCHAR 00BF
ENCODING 191
SWIDTH 675 0
DWIDTH 15 0
BBX 12 17 2 0
BITMAP
0A00
0400
0400
0A00
0000
0A00
0400
2A00
5400
A800
4000
A050
A050
4020
AA50
55A0
2A40
ENDCHAR
STARTCHAR 00C0
ENCODING 192
SWIDTH 675 0
DWIDTH 15 0
BBX 12 23 2 0
BITMAP
A000
5000
2800
1400
0A00
0000
0A00
1580
1580
2A40
51A0
A050
4020
A050
4020
AA50
55A0
AA50
AA50
4020
A050
4020
A050
ENDCHAR
STARTCHAR 00C1
ENCODING 193
SWIDTH 675 0
DWIDTH 15 0
BBX 12 23 2 0
BITMAP
01A0
0240
0580
0A00
1400
0000
0A00
1580
1580
2A40
51A0
A050
4020
A050
4020
AA50
55A0
AA50
AA50
4020
A050
4020
A050
ENDCHAR
STARTCHAR 00C2
ENCODING 194
SWIDTH 675 0
DWIDTH 15 0
BBX 12 23 2 0
BITMAP
0A00
1580
2A40
1180
2A40
0000
0A00
1580
1580
2A40
51A0
A050
4020
A050
4020
AA50
55A0
AA50
AA50
4020
A050
4020
A050
ENDCHAR
STARTCHAR 00C3
ENCODING 195
SWIDTH 675 0
DWIDTH 15 0
BBX 12 23 2 0
BITMAP
2850
5420
AA50
45A0
A240
0000
0A00
1580
1580
2A40
51A0
A050
4020
A050
4020
AA50
55A0
AA50
AA50
4020
A050
4020
A050
ENDCHAR
STARTCHAR 00C4
ENCODING 196
SWIDTH 675 0
DWIDTH 15 0
BBX 12 21 2 0
BITMAP
2A40
1180
2A40
0000
0A00
1580
1580
2A40
51A0
A050
4020
A050
4020
AA50
55A0
AA50
AA50
4020
A050
4020
A050
ENDCHAR
STARTCHAR 00C5
ENCODING 197
SWIDTH 675 0
DWIDTH 15 0
BBX 12 28 2 0
BITMAP
1580
2A40
55A0
55A0
2040
51A0
2040
55A0
2A40
1580
0000
0A00
1580
1580
2A40
51A0
A050
4020
A050
4020
AA50
55A0
AA50
AA50
4020
A050
4020
A050
ENDCHAR
STARTCHAR 00C6
ENCODING 198
SWIDTH 1080 0
DWIDTH 24 0
BBX 21 17 2 0
BITMAP
0A5568
15AA90
15AA90
2A5568
502000
A05000
402000
A05560
402A80
AA5560
55A000
AA5000
AA5000
402000
A05568
402A90
A01568
ENDCHAR
STARTCHAR 00C7
ENCODING 199
SWIDTH 765 0
DWIDTH 17 0
BBX 14 21 2 -4
BITMAP
0A40
15A0
15A0
2A50
5028
A014
4008
A014
4000
A000
4000
A014
A014
5028
2A50
15A0
0A40
0180
0A40
0580
0A00
ENDCHAR
STARTCHAR 00C8
ENCODING 200
SWIDTH 675 0
DWIDTH 15 0
BBX 12 23 2 0
BITMAP
A000
5000
2800
1400
0A00
0000
0A50
15A0
15A0
2A50
5000
A000
4000
AA40
5580
AA40
4000
A000
A000
5000
2A50
15A0
0A50
ENDCHAR
STARTCHAR 00C9
ENCODING 201
SWIDTH 675 0
DWIDTH 15 0
BBX 12 23 2 0
BITMAP
01A0
0240
0580
0A00
1400
0000
0A50
15A0
15A0
2A50
5000
A000
4000
AA40
5580
AA40
4000
A000
A000
5000
2A50
15A0
0A50
ENDCHAR
STARTCHAR 00CA
ENCODING 202
SWIDTH 675 0
DWIDTH 15 0
BBX 12 23 2 0
BITMAP
0A00
1580
2A40
1180
2A40
0000
0A50
15A0
15A0
2A50
5000
A000
4000
AA40
5580
AA40
4000
A000
A000
5000
2A50
15A0
0A50
ENDCHAR
STARTCHAR 00CB
ENCODING 203
SWIDTH 675 0
DWIDTH 15 0
BBX 12 21 2 0
BITMAP
2A40
1180
2A40
0000
0A50
15A0
15A0
2A50
5000
A000
4000
AA40
5580
AA40
4000
A000
A000
5000
2A50
15A0
0A50
ENDCHAR
STARTCHAR 00CC
ENCODING 204
SWIDTH 495 0
DWIDTH 11 0
BBX 10 23 -1 0
BITMAP
D000
2800
1400
0A00
0500
0000
1540
0A80
0A80
1540
0200
0500
0200
0500
0200
0500
0200
0500
0500
0200
1540
0A80
1540
ENDCHAR
STARTCHAR 00CD
ENCODING 205
SWIDTH 495 0
DWIDTH 11 0
BBX 9 23 2 0
BITMAP
0580
0A00
1400
2800
5000
0000
AA00
5400
5400
AA00
1000
2800
1000
2800
1000
2800
1000
2800
2800
1000
AA00
5400
AA00
ENDCHAR
STARTCHAR 00CE
ENCODING 206
SWIDTH 495 0
DWIDTH 11 0
BBX 7 23 2 0
BITMAP
28
54
AA
44
AA
00
AA
54
54
AA
10
28
10
28
10
28
10
28
28
10
AA
54
AA
ENDCHAR
STARTCHAR 00CF
ENCODING 207
SWIDTH 495 0
DWIDTH 11 0
BBX 7 21 2 0
BITMAP
AA
44
AA
00
AA
54
54
AA
10
28
10
28
10
28
10
28
28
10
AA
54
AA
ENDCHAR
STARTCHAR 00D0
ENCODING 208
SWIDTH 810 0
DWIDTH 18 0
BBX 16 17 1 0
BITMAP
2AD0
1528
1528
2AD4
100A
2805
1002
AA05
5402
AA05
1002
2805
2805
100A
2AD4
1528
2AD0
ENDCHAR
STARTCHAR 00D1
ENCODING 209
SWIDTH 765 0
DWIDTH 17 0
BBX 14 23 2 0
BITMAP
1428
2A10
55A8
2250
51A0
0000
A014
5008
5008
A814
5408
AA14
4588
A254
41A8
A054
4028
A014
A014
4008
A014
4008
A014
ENDCHAR
STARTCHAR 00D2
ENCODING 210
SWIDTH 765 0
DWIDTH 17 0
BBX 14 23 2 0
BITMAP
5000
2800
1400
0A00
0580
0000
0A40
15A0
15A0
2A50
5028
A014
4008
A014
4008
A014
4008
A014
A014
5028
2A50
15A0
0A40
ENDCHAR
STARTCHAR 00D3
ENCODING 211
SWIDTH 765 0
DWIDTH 17 0
BBX 14 23 2 0
BITMAP
0050
01A0
0240
0580
0A00
0000
0A40
15A0
15A0
2A50
5028
A014
4008
A014
4008
A014
4008
A014
A014
5028
2A50
15A0
0A40
ENDCHAR
STARTCHAR 00D4
ENCODING 212
SWIDTH 765 0
DWIDTH 17 0
BBX 14 23 2 0
BITMAP
0580
0A40
15A0
0840
15A0
0000
0A40
15A0
15A0
2A50
5028
A014
4008
A014
4008
A014
4008
A014
A014
5028
2A50
15A0
0A40
ENDCHAR
STARTCHAR 00D5
ENCODING 213
SWIDTH 765 0
DWIDTH 17 0
BBX 14 23 2 0
BITMAP
1428
2A10
55A8
2250
51A0
0000
0A40
15A0
15A0
2A50
5028
A014
4008
A014
4008
A014
4008
A014
A014
5028
2A50
15A0
0A40
ENDCHAR
STARTCHAR 00D6
ENCODING 214
SWIDTH 765 0
DWIDTH 17 0
BBX 14 21 2 0
BITMAP
15A0
0840
15A0
0000
0A40
15A0
15A0
2A50
5028
A014
4008
A014
4008
A014
4008
A014
A014
5028
2A50
15A0
0A40
ENDCHAR
STARTCHAR 00D7
ENCODING 215
SWIDTH 675 0
DWIDTH 15 0
BBX 12 14 2 2
BITMAP
4020
4020
A050
51A0
2A40
1580
0A00
1580
2A40
51A0
A050
A050
4020
A050
ENDCHAR
STARTCHAR 00D8
ENCODING 216
SWIDTH 900 0
DWIDTH 20 0
BBX 18 17 1 0
BITMAP
02D000
052800
052800
0AD400
140A00
280500
100200
AAD540
552A80
AAD540
100200
280500
280500
140A00
0AD400
052800
02D000
ENDCHAR
STARTCHAR 00D9
ENCODING 217
SWIDTH 765 0
DWIDTH 17 0
BBX 14 23 2 0
BITMAP
5000
2800
1400
0A00
0580
0000
A014
4008
4008
A014
4008
A014
4008
A014
4008
A014
4008
A014
A014
5028
2A50
15A0
0A40
ENDCHAR
STARTCHAR 00DA
ENCODING 218
SWIDTH 765 0
DWIDTH 17 0
BBX 14 23 2 0
BITMAP
0050
01A0
0240
0580
0A00
0000
A014
4008
4008
A014
4008
A014
4008
A014
4008
A014
4008
A014
A014
5028
2A50
15A0
0A40
ENDCHAR
STARTCHAR 00DB
ENCODING 219
SWIDTH 765 0
DWIDTH 17 0
BBX 14 23 2 0
BITMAP
0580
0A40
15A0
0840
15A0
0000
A014
4008
4008
A014
4008
A014
4008
A014
4008
A014
4008
A014
A014
5028
2A50
15A0
0A40
ENDCHAR
STARTCHAR 00DC
ENCODING 220
SWIDTH 765 0
DWIDTH 17 0
BBX 14 21 2 0
BITMAP
15A0
0840
15A0
0000
A014
4008
4008
A014
4008
A014
4008
A014
4008
A014
4008
A014
A014
5028
2A50
15A0
0A40
ENDCHAR
STARTCHAR 00DD
ENCODING 221
SWIDTH 675 0
DWIDTH 15 0
BBX 12 23 2 0
BITMAP
01A0
0240
0580
0A00
1400
0000
A050
4020
4020
A050
4020
A050
4020
A050
51A0
2A40
1580
0A00
0A00
0400
0A00
0400
0A00
ENDCHAR
STARTCHAR 00DE
ENCODING 222
SWIDTH 675 0
DWIDTH 15 0
BBX 12 17 2 0
BITMAP
A000
4000
4000
AA40
55A0
AA50
4020
A050
4020
A050
4020
AA50
AA50
55A0
AA40
4000
A000
ENDCHAR
STARTCHAR 00DF
ENCODING 223
SWIDTH 675 0
DWIDTH 15 0
BBX 12 17 2 0
BITMAP
2A40
55A0
55A0
AA50
4020
A050
41A0
AA40
45A0
AA50
4020
A050
A050
4020
AA50
45A0
AA40
ENDCHAR
STARTCHAR 00E0
ENCODING 224
SWIDTH 675 0
DWIDTH 15 0
BBX 12 23 2 0
BITMAP
A000
5000
2800
1400
0A00
0000
2A40
55A0
55A0
AA50
4020
A050
4020
A050
4020
AA50
55A0
AA50
AA50
4020
A050
4020
A050
ENDCHAR
STARTCHAR 00E1
ENCODING 225
SWIDTH 675 0
DWIDTH 15 0
BBX 12 23 2 0
BITMAP
01A0
0240
0580
0A00
1400
0000
2A40
55A0
55A0
AA50
4020
A050
4020
A050
4020
AA50
55A0
AA50
AA50
4020
A050
4020
A050
ENDCHAR
STARTCHAR 00E2
ENCODING 226
SWIDTH 675 0
DWIDTH 15 0
BBX 12 23 2 0
BITMAP
0A00
1580
2A40
1180
2A40
0000
2A40
55A0
55A0
AA50
4020
A050
4020
A050
4020
AA50
55A0
AA50
AA50
4020
A050
4020
A050
ENDCHAR
STARTCHAR 00E3
ENCODING 227
SWIDTH 675 0
DWIDTH 15 0
BBX 12 23 2 0
BITMAP
2850
5420
AA50
45A0
A240
0000
2A40
55A0
55A0
AA50
4020
A050
4020
A050
4020
AA50
55A0
AA50
AA50
4020
A050
4020
A050
ENDCHAR
STARTCHAR 00E4
ENCODING 228
SWIDTH 675 0
DWIDTH 15 0
BBX 12 21 2 0
BITMAP
2A40
1180
2A40
0000
2A40
55A0
55A0
AA50
4020
A050
4020
A050
4020
AA50
55A0
AA50
AA50
4020
A050
4020
A050
ENDCHAR
STARTCHAR 00E5
ENCODING 229
SWIDTH 675 0
DWIDTH 15 0
BBX 12 28 2 0
BITMAP
1580
2A40
55A0
55A0
2040
51A0
2040
55A0
2A40
1580
0000
2A40
55A0
55A0
AA50
4020
A050
4020
A050
4020
AA50
55A0
AA50
AA50
4020
A050
4020
A050
ENDCHAR
STARTCHAR 00E6
ENCODING 230
SWIDTH 1080 0
DWIDTH 24 0
BBX 21 17 2 0
BITMAP
2A5568
55AA90
55AA90
AA5568
402000
A05000
402000
A05560
402A80
AA5560
55A000
AA5000
AA5000
402000
A05568
402A90
A01568
ENDCHAR
STARTCHAR 00E7
ENCODING 231
SWIDTH 675 0
DWIDTH 15 0
BBX 12 21 2 -4
BITMAP
2A40
55A0
55A0
AA50
4020
A050
4020
A050
4000
A000
4000
A050
A050
4020
AA50
55A0
2A40
0400
2A00
1400
2800
ENDCHAR
STARTCHAR 00E8
ENCODING 232
SWIDTH 675 0
DWIDTH 15 0
BBX 12 23 2 0
BITMAP
A000
5000
2800
1400
0A00
0000
2A50
55A0
55A0
AA50
4000
A000
4000
AA40
5580
AA40
4000
A000
A000
4000
AA50
55A0
2A50
ENDCHAR
STARTCHAR 00E9
ENCODING 233
SWIDTH 675 0
DWIDTH 15 0
BBX 12 23 2 0
BITMAP
01A0
0240
0580
0A00
1400
0000
2A50
55A0
55A0
AA50
4000
A000
4000
AA40
5580
AA40
4000
A000
A000
4000
AA50
55A0
2A50
ENDCHAR
STARTCHAR 00EA
ENCODING 234
SWIDTH 675 0
DWIDTH 15 0
BBX 12 23 2 0
BITMAP
0A00
1580
2A40
1180
2A40
0000
2A50
55A0
55A0
AA50
4000
A000
4000
AA40
5580
AA40
4000
A000
A000
4000
AA50
55A0
2A50
ENDCHAR
STARTCHAR 00EB
ENCODING 235
SWIDTH 675 0
DWIDTH 15 0
BBX 12 21 2 0
BITMAP
2A40
1180
2A40
0000
2A50
55A0
55A0
AA50
4000
A000
4000
AA40
5580
AA40
4000
A000
A000
4000
AA50
55A0
2A50
ENDCHAR
STARTCHAR 00EC
ENCODING 236
SWIDTH 270 0
DWIDTH 6 0
BBX 8 23 -3 0
BITMAP
B0
48
34
0A
05
00
05
02
02
05
02
05
02
05
02
05
02
05
05
02
05
02
05
ENDCHAR
STARTCHAR 00ED
ENCODING 237
SWIDTH 270 0
DWIDTH 6 0
BBX 7 23 1 0
BITMAP
0A
14
28
50
A0
00
50
20
20
50
20
50
20
50
20
50
20
50
50
20
50
20
50
ENDCHAR
STARTCHAR 00EE
ENCODING 238
SWIDTH 270 0
DWIDTH 6 0
BBX 8 23 -1 0
BITMAP
14
2A
D5
22
D5
00
14
08
08
14
08
14
08
14
08
14
08
14
14
08
14
08
14
ENDCHAR
STARTCHAR 00EF
ENCODING 239
SWIDTH 270 0
DWIDTH 6 0
BBX 8 21 -1 0
BITMAP
D5
22
D5
00
14
08
08
14
08
14
08
14
08
14
08
14
14
08
14
08
14
ENDCHAR
STARTCHAR 00F0
ENCODING 240
SWIDTH 720 0
DWIDTH 16 0
BBX 14 17 1 0
BITMAP
2AD0
1528
1528
2AD4
1008
2814
1008
AA14
5408
AA14
1008
2814
2814
1008
2AD4
1528
2AD0
ENDCHAR
STARTCHAR 00F1
ENCODING 241
SWIDTH 675 0
DWIDTH 15 0
BBX 12 23 2 0
BITMAP
2850
5420
AA50
45A0
A240
0000
A050
5020
5020
A850
5420
AA50
45A0
A250
41A0
A050
4020
A050
A050
4020
A050
4020
A050
ENDCHAR
STARTCHAR 00F2
ENCODING 242
SWIDTH 675 0
DWIDTH 15 0
BBX 12 23 2 0
BITMAP
A000
5000
2800
1400
0A00
0000
2A40
55A0
55A0
AA50
4020
A050
4020
A050
4020
A050
4020
A050
A050
4020
AA50
55A0
2A40
ENDCHAR
STARTCHAR 00F3
ENCODING 243
SWIDTH 675 0
DWIDTH 15 0
BBX 12 23 2 0
BITMAP
01A0
0240
0580
0A00
1400
0000
2A40
55A0
55A0
AA50
4020
A050
4020
A050
4020
A050
4020
A050
A050
4020
AA50
55A0
2A40
ENDCHAR
STARTCHAR 00F4
ENCODING 244
SWIDTH 675 0
DWIDTH 15 0
BBX 12 23 2 0
BITMAP
0A00
1580
2A40
1180
2A40
0000
2A40
55A0
55A0
AA50
4020
A050
4020
A050
4020
A050
4020
A050
A050
4020
AA50
55A0
2A40
ENDCHAR
STARTCHAR 00F5
ENCODING 245
SWIDTH 675 0
DWIDTH 15 0
BBX 12 23 2 0
BITMAP
2850
5420
AA50
45A0
A240
0000
2A40
55A0
55A0
AA50
4020
A050
4020
A050
4020
A050
4020
A050
A050
4020
AA50
55A0
2A40
ENDCHAR
STARTCHAR 00F6
ENCODING 246
SWIDTH 675 0
DWIDTH 15 0
BBX 12 21 2 0
BITMAP
2A40
1180
2A40
0000
2A40
55A0
55A0
AA50
4020
A050
4020
A050
4020
A050
4020
A050
A050
4020
AA50
55A0
2A40
ENDCHAR
STARTCHAR 00F7
ENCODING 247
SWIDTH 675 0
DWIDTH 15 0
BBX 12 12 2 2
BITMAP
0A00
0400
0A00
0000
AA50
55A0
AA50
0000
0A00
0A00
0400
0A00
ENDCHAR
STARTCHAR 00F8
ENCODING 248
SWIDTH 765 0
DWIDTH 17 0
BBX 16 17 1 0
BITMAP
0AD0
1528
1528
2AD4
1008
2814
1008
AAD5
552A
AAD5
1008
2814
2814
1008
2AD4
1528
0AD0
ENDCHAR
STARTCHAR 00F9
ENCODING 249
SWIDTH 675 0
DWIDTH 15 0
BBX 12 23 2 0
BITMAP
A000
5000
2800
1400
0A00
0000
A050
4020
4020
A050
4020
A050
4020
A050
4020
A050
4020
A050
A050
4020
AA50
55A0
2A40
ENDCHAR
STARTCHAR 00FA
ENCODING 250
SWIDTH 675 0
DWIDTH 15 0
BBX 12 23 2 0
BITMAP
01A0
0240
0580
0A00
1400
0000
A050
4020
4020
A050
4020
A050
4020
A050
4020
A050
4020
A050
A050
4020
AA50
55A0
2A40
ENDCHAR
STARTCHAR 00FB
ENCODING 251
SWIDTH 675 0
DWIDTH 15 0
BBX 12 23 2 0
BITMAP
0A00
1580
2A40
1180
2A40
0000
A050
4020
4020
A050
4020
A050
4020
A050
4020
A050
4020
A050
A050
4020
AA50
55A0
2A40
ENDCHAR
STARTCHAR 00FC
ENCODING 252
SWIDTH 675 0
DWIDTH 15 0
BBX 12 21 2 0
BITMAP
2A40
1180
2A40
0000
A050
4020
4020
A050
4020
A050
4020
A050
4020
A050
4020
A050
A050
4020
AA50
55A0
2A40
ENDCHAR
STARTCHAR 00FD
ENCODING 253
SWIDTH 675 0
DWIDTH 15 0
BBX 12 23 2 0
BITMAP
01A0
0240
0580
0A00
1400
0000
A050
4020
4020
A050
4020
A050
4020
A050
4020
AA50
55A0
2A40
2A40
0400
0A00
0400
0A00
ENDCHAR
STARTCHAR 00FE
ENCODING 254
SWIDTH 675 0
DWIDTH 15 0
BBX 12 17 2 0
BITMAP
A000
4000
4000
AA40
55A0
AA50
4020
A050
4020
A050
4020
AA50
AA50
55A0
AA40
4000
A000
ENDCHAR
STARTCHAR 00FF
ENCODING 255
SWIDTH 675 0
DWIDTH 15 0
BBX 12 21 2 0
BITMAP
2A40
1180
2A40
0000
A050
4020
4020
A050
4020
A050
4020
A050
4020
AA50
55A0
2A40
2A40
0400
0A00
0400
0A00
ENDCHAR
STARTCHAR 0100
ENCODING 256
SWIDTH 675 0
DWIDTH 15 0
BBX 12 21 2 0
BITMAP
2A40
1580
2A40
0000
0A00
1580
1580
2A40
51A0
A050
4020
A050
4020
AA50
55A0
AA50
AA50
4020
A050
4020
A050
ENDCHAR
STARTCHAR 0101
ENCODING 257
SWIDTH 675 0
DWIDTH 15 0
BBX 12 21 2 0
BITMAP
2A40
1580
2A40
0000
2A40
55A0
55A0
AA50
4020
A050
4020
A050
4020
AA50
55A0
AA50
AA50
4020
A050
4020
A050
ENDCHAR
STARTCHAR 0102
ENCODING 258
SWIDTH 675 0
DWIDTH 15 0
BBX 12 23 2 0
BITMAP
51A0
2040
55A0
2A40
1580
0000
0A00
1580
1580
2A40
51A0
A050
4020
A050
4020
AA50
55A0
AA50
AA50
4020
A050
4020
A050
ENDCHAR
STARTCHAR 0103
ENCODING 259
SWIDTH 675 0
DWIDTH 15 0
BBX 12 23 2 0
BITMAP
51A0
2040
55A0
2A40
1580
0000
2A40
55A0
55A0
AA50
4020
A050
4020
A050
4020
AA50
55A0
AA50
AA50
4020
A050
4020
A050
ENDCHAR
STARTCHAR 0104
ENCODING 260
SWIDTH 675 0
DWIDTH 15 0
BBX 14 21 2 -4
BITMAP
0A00
1580
1580
2A40
51A0
A050
4020
A050
4020
AA50
55A0
AA50
AA50
4020
A050
4020
A050
0020
0054
0028
0014
ENDCHAR
STARTCHAR 0105
ENCODING 261
SWIDTH 675 0
DWIDTH 15 0
BBX 14 21 2 -4
BITMAP
2A40
55A0
55A0
AA50
4020
A050
4020
A050
4020
AA50
55A0
AA50
AA50
4020
A050
4020
A050
0020
0054
0028
0014
ENDCHAR
STARTCHAR 0106
ENCODING 262
SWIDTH 765 0
DWIDTH 17 0
BBX 14 23 2 0
BITMAP
0050
01A0
0240
0580
0A00
0000
0A40
15A0
15A0
2A50
5028
A014
4008
A014
4000
A000
4000
A014
A014
5028
2A50
15A0
0A40
ENDCHAR
STARTCHAR 0107
ENCODING 263
SWIDTH 675 0
DWIDTH 15 0
BBX 12 23 2 0
BITMAP
01A0
0240
0580
0A00
1400
0000
2A40
55A0
55A0
AA50
4020
A050
4020
A050
4000
A000
4000
A050
A050
4020
AA50
55A0
2A40
ENDCHAR
STARTCHAR 010A
ENCODING 266
SWIDTH 765 0
DWIDTH 17 0
BBX 14 21 2 0
BITMAP
0580
0200
0580
0000
0A40
15A0
15A0
2A50
5028
A014
4008
A014
4000
A000
4000
A014
A014
5028
2A50
15A0
0A40
ENDCHAR
STARTCHAR 010B
ENCODING 267
SWIDTH 675 0
DWIDTH 15 0
BBX 12 21 2 0
BITMAP
0A00
0400
0A00
0000
2A40
55A0
55A0
AA50
4020
A050
4020
A050
4000
A000
4000
A050
A050
4020
AA50
55A0
2A40
ENDCHAR
STARTCHAR 010C
ENCODING 268
SWIDTH 765 0
DWIDTH 17 0
BBX 14 23 2 0
BITMAP
15A0
0840
15A0
0A40
0580
0000
0A40
15A0
15A0
2A50
5028
A014
4008
A014
4000
A000
4000
A014
A014
5028
2A50
15A0
0A40
ENDCHAR
STARTCHAR 010D
ENCODING 269
SWIDTH 675 0
DWIDTH 15 0
BBX 12 23 2 0
BITMAP
2A40
1180
2A40
1580
0A00
0000
2A40
55A0
55A0
AA50
4020
A050
4020
A050
4000
A000
4000
A050
A050
4020
AA50
55A0
2A40
ENDCHAR
STARTCHAR 010E
ENCODING 270
SWIDTH 765 0
DWIDTH 17 0
BBX 14 23 2 0
BITMAP
15A0
0840
15A0
0A40
0580
0000
AA40
55A0
55A0
AA50
4028
A014
4008
A014
4008
A014
4008
A014
A014
4028
AA50
55A0
AA40
ENDCHAR
STARTCHAR 010F
ENCODING 271
SWIDTH 675 0
DWIDTH 15 0
BBX 12 23 2 0
BITMAP
2A40
1180
2A40
1580
0A00
0000
AA40
55A0
55A0
AA50
4020
A050
4020
A050
4020
A050
4020
A050
A050
4020
AA50
55A0
AA40
ENDCHAR
STARTCHAR 0110
ENCODING 272
SWIDTH 810 0
DWIDTH 18 0
BBX 16 17 1 0
BITMAP
2AD0
1528
1528
2AD4
100A
2805
1002
AA05
5402
AA05
1002
2805
2805
100A
2AD4
1528
2AD0
ENDCHAR
STARTCHAR 0111
ENCODING 273
SWIDTH 720 0
DWIDTH 16 0
BBX 14 17 1 0
BITMAP
2AD0
1528
1528
2AD4
1008
2814
1008
AA14
5408
AA14
1008
2814
2814
1008
2AD4
1528
2AD0
ENDCHAR
STARTCHAR 0112
ENCODING 274
SWIDTH 675 0
DWIDTH 15 0
BBX 12 21 2 0
BITMAP
2A40
1580
2A40
0000
0A50
15A0
15A0
2A50
5000
A000
4000
AA40
5580
AA40
4000
A000
A000
5000
2A50
15A0
0A50
ENDCHAR
STARTCHAR 0113
ENCODING 275
SWIDTH 675 0
DWIDTH 15 0
BBX 12 21 2 0
BITMAP
2A40
1580
2A40
0000
2A50
55A0
55A0
AA50
4000
A000
4000
AA40
5580
AA40
4000
A000
A000
4000
AA50
55A0
2A50
ENDCHAR
STARTCHAR 0116
ENCODING 278
SWIDTH 675 0
DWIDTH 15 0
BBX 12 21 2 0
BITMAP
0A00
0400
0A00
0000
0A50
15A0
15A0
2A50
5000
A000
4000
AA40
5580
AA40
4000
A000
A000
5000
2A50
15A0
0A50
ENDCHAR
STARTCHAR 0117
ENCODING 279
SWIDTH 675 0
DWIDTH 15 0
BBX 12 21 2 0
BITMAP
0A00
0400
0A00
0000
2A50
55A0
55A0
AA50
4000
A000
4000
AA40
5580
AA40
4000
A000
A000
4000
AA50
55A0
2A50
ENDCHAR
STARTCHAR 0118
ENCODING 280
SWIDTH 675 0
DWIDTH 15 0
BBX 14 21 2 -4
BITMAP
0A50
15A0
15A0
2A50
5000
A000
4000
AA40
5580
AA40
4000
A000
A000
5000
2A50
15A0
0A50
0020
0054
0028
0014
ENDCHAR
STARTCHAR 0119
ENCODING 281
SWIDTH 675 0
DWIDTH 15 0
BBX 14 21 2 -4
BITMAP
2A50
55A0
55A0
AA50
4000
A000
4000
AA40
5580
AA40
4000
A000
A000
4000
AA50
55A0
2A50
0020
0054
0028
0014
ENDCHAR
STARTCHAR 011A
ENCODING 282
SWIDTH 675 0
DWIDTH 15 0
BBX 12 23 2 0
BITMAP
2A40
1180
2A40
1580
0A00
0000
0A50
15A0
15A0
2A50
5000
A000
4000
AA40
5580
AA40
4000
A000
A000
5000
2A50
15A0
0A50
ENDCHAR
STARTCHAR 011B
ENCODING 283
SWIDTH 675 0
DWIDTH 15 0
BBX 12 23 2 0
BITMAP
2A40
1180
2A40
1580
0A00
0000
2A50
55A0
55A0
AA50
4000
A000
4000
AA40
5580
AA40
4000
A000
A000
4000
AA50
55A0
2A50
ENDCHAR
STARTCHAR 011E
ENCODING 286
SWIDTH 765 0
DWIDTH 17 0
BBX 14 23 2 0
BITMAP
2850
1020
2A50
15A0
0A40
0000
0A54
15A8
15A8
2A54
5000
A000
4000
A254
41A8
A254
4008
A014
A014
5008
2A54
15A8
0A54
ENDCHAR
STARTCHAR 011F
ENCODING 287
SWIDTH 675 0
DWIDTH 15 0
BBX 12 23 2 0
BITMAP
51A0
2040
55A0
2A40
1580
0000
2A50
55A0
55A0
AA50
4000
A000
4000
A250
41A0
A250
4020
A050
A050
4020
AA50
55A0
2A40
ENDCHAR
STARTCHAR 0120
ENCODING 288
SWIDTH 765 0
DWIDTH 17 0
BBX 14 21 2 0
BITMAP
0580
0200
0580
0000
0A54
15A8
15A8
2A54
5000
A000
4000
A254
41A8
A254
4008
A014
A014
5008
2A54
15A8
0A54
ENDCHAR
STARTCHAR 0121
ENCODING 289
SWIDTH 675 0
DWIDTH 15 0
BBX 12 21 2 0
BITMAP
0A00
0400
0A00
0000
2A50
55A0
55A0
AA50
4000
A000
4000
A250
41A0
A250
4020
A050
A050
4020
AA50
55A0
2A40
ENDCHAR
STARTCHAR 0122
ENCODING 290
SWIDTH 765 0
DWIDTH 17 0
BBX 14 24 2 -7
BITMAP
0A54
15A8
15A8
2A54
5000
A000
4000
A254
41A8
A254
4008
A014
A014
5008
2A54
15A8
0A54
0000
0580
0200
0580
0200
0200
0400
ENDCHAR
STARTCHAR 0123
ENCODING 291
SWIDTH 675 0
DWIDTH 15 0
BBX 12 24 2 -7
BITMAP
2A50
55A0
55A0
AA50
4000
A000
4000
A250
41A0
A250
4020
A050
A050
4020
AA50
55A0
2A40
0000
0A00
0400
0A00
0400
0400
0800
ENDCHAR
STARTCHAR 0126
ENCODING 294
SWIDTH 900 0
DWIDTH 20 0
BBX 18 17 1 0
BITMAP
280500
100200
100200
AAD540
552A80
AAD540
100200
2AD500
152A00
2AD500
100200
280500
280500
100200
280500
100200
280500
ENDCHAR
STARTCHAR 0127
ENCODING 295
SWIDTH 765 0
DWIDTH 17 0
BBX 16 17 1 0
BITMAP
2814
1008
1008
AAD5
552A
AAD5
1008
2AD4
1528
2AD4
1008
2814
2814
1008
2814
1008
2814
ENDCHAR
STARTCHAR 0128
ENCODING 296
SWIDTH 495 0
DWIDTH 11 0
BBX 13 23 -1 0
BITMAP
1448
2A30
D548
22B0
D140
0000
1540
0A80
0A80
1540
0200
0500
0200
0500
0200
0500
0200
0500
0500
0200
1540
0A80
1540
ENDCHAR
STARTCHAR 0129
ENCODING 297
SWIDTH 270 0
DWIDTH 6 0
BBX 12 23 -3 0
BITMAP
3450
4A20
B550
42A0
B140
0000
0500
0200
0200
0500
0200
0500
0200
0500
0200
0500
0200
0500
0500
0200
0500
0200
0500
ENDCHAR
STARTCHAR 012A
ENCODING 298
SWIDTH 495 0
DWIDTH 11 0
BBX 7 21 2 0
BITMAP
AA
54
AA
00
AA
54
54
AA
10
28
10
28
10
28
10
28
28
10
AA
54
AA
ENDCHAR
STARTCHAR 012B
ENCODING 299
SWIDTH 270 0
DWIDTH 6 0
BBX 8 21 -1 0
BITMAP
D5
2A
D5
00
14
08
08
14
08
14
08
14
08
14
08
14
14
08
14
08
14
ENDCHAR
STARTCHAR 012E
ENCODING 302
SWIDTH 495 0
DWIDTH 11 0
BBX 10 21 2 -4
BITMAP
AA00
5400
5400
AA00
1000
2800
1000
2800
1000
2800
1000
2800
2800
1000
AA00
5400
AA00
0400
0A40
0580
0240
ENDCHAR
STARTCHAR 012F
ENCODING 303
SWIDTH 270 0
DWIDTH 6 0
BBX 5 21 2 -4
BITMAP
A0
40
40
A0
40
A0
40
A0
40
A0
40
A0
A0
40
A0
40
A0
40
A8
50
28
ENDCHAR
STARTCHAR 0130
ENCODING 304
SWIDTH 495 0
DWIDTH 11 0
BBX 7 21 2 0
BITMAP
28
10
28
00
AA
54
54
AA
10
28
10
28
10
28
10
28
28
10
AA
54
AA
ENDCHAR
STARTCHAR 0131
ENCODING 305
SWIDTH 270 0
DWIDTH 6 0
BBX 3 17 2 0
BITMAP
A0
40
40
A0
40
A0
40
A0
40
A0
40
A0
A0
40
A0
40
A0
ENDCHAR
STARTCHAR 0136
ENCODING 310
SWIDTH 675 0
DWIDTH 15 0
BBX 12 24 2 -7
BITMAP
A050
4020
4020
A050
41A0
A240
4580
AA00
5400
AA00
4580
A240
A240
41A0
A050
4020
A050
0000
0A00
0400
0A00
0400
0400
0800
ENDCHAR
STARTCHAR 0137
ENCODING 311
SWIDTH 675 0
DWIDTH 15 0
BBX 12 24 2 -7
BITMAP
A050
4020
4020
A050
4020
A050
41A0
AA40
5580
AA40
41A0
A050
A050
4020
A050
4020
A050
0000
0A00
0400
0A00
0400
0400
0800
ENDCHAR
STARTCHAR 0139
ENCODING 313
SWIDTH 675 0
DWIDTH 15 0
BBX 13 23 1 0
BITMAP
0A00
1400
2800
5000
A000
0000
5000
2000
2000
5000
2000
5000
2000
5000
2000
5000
2000
5000
5000
2000
5528
2AD0
1528
ENDCHAR
STARTCHAR 013A
ENCODING 314
SWIDTH 585 0
DWIDTH 13 0
BBX 11 23 1 0
BITMAP
0A00
1400
2800
5000
A000
0000
5000
2000
2000
5000
2000
5000
2000
5000
2000
5000
2000
5000
5000
2000
5520
2AC0
1520
ENDCHAR
STARTCHAR 013B
ENCODING 315
SWIDTH 675 0
DWIDTH 15 0
BBX 12 24 2 -7
BITMAP
A000
4000
4000
A000
4000
A000
4000
A000
4000
A000
4000
A000
A000
4000
AA50
55A0
2A50
0000
0A00
0400
0A00
0400
0400
0800
ENDCHAR
STARTCHAR 013C
ENCODING 316
SWIDTH 585 0
DWIDTH 13 0
BBX 10 24 2 -7
BITMAP
A000
4000
4000
A000
4000
A000
4000
A000
4000
A000
4000
A000
A000
4000
AA40
5580
2A40
0000
1400
0800
1400
0800
0800
1000
ENDCHAR
STARTCHAR 013D
ENCODING 317
SWIDTH 675 0
DWIDTH 15 0
BBX 12 17 2 0
BITMAP
A050
4020
4020
A050
4020
A040
4000
A000
4000
A000
4000
A000
A000
4000
AA50
55A0
2A50
ENDCHAR
STARTCHAR 013E
ENCODING 318
SWIDTH 585 0
DWIDTH 13 0
BBX 10 17 2 0
BITMAP
A240
4180
4180
A240
4180
A200
4000
A000
4000
A000
4000
A000
A000
4000
AA40
5580
2A40
ENDCHAR
STARTCHAR 0141
ENCODING 321
SWIDTH 720 0
DWIDTH 16 0
BBX 14 17 1 0
BITMAP
2800
1000
1000
2800
1000
2A00
1400
AA00
5000
A800
1000
2800
2800
1000
2AD4
1528
0AD4
ENDCHAR
STARTCHAR 0142
ENCODING 322
SWIDTH 630 0
DWIDTH 14 0
BBX 12 17 1 0
BITMAP
2800
1000
1000
2800
1000
2A00
1400
AA00
5000
A800
1000
2800
2800
1000
2AD0
1520
0AD0
ENDCHAR
STARTCHAR 0143
ENCODING 323
SWIDTH 765 0
DWIDTH 17 0
BBX 14 23 2 0
BITMAP
0050
01A0
0240
0580
0A00
0000
A014
5008
5008
A814
5408
AA14
4588
A254
41A8
A054
4028
A014
A014
4008
A014
4008
A014
ENDCHAR
STARTCHAR 0144
ENCODING 324
SWIDTH 675 0
DWIDTH 15 0
BBX 12 23 2 0
BITMAP
01A0
0240
0580
0A00
1400
0000
A050
5020
5020
A850
5420
AA50
45A0
A250
41A0
A050
4020
A050
A050
4020
A050
4020
A050
ENDCHAR
STARTCHAR 0145
ENCODING 325
SWIDTH 765 0
DWIDTH 17 0
BBX 14 24 2 -7
BITMAP
A014
5008
5008
A814
5408
AA14
4588
A254
41A8
A054
4028
A014
A014
4008
A014
4008
A014
0000
0580
0200
0580
0200
0200
0400
ENDCHAR
STARTCHAR 0146
ENCODING 326
SWIDTH 675 0
DWIDTH 15 0
BBX 12 24 2 -7
BITMAP
A050
5020
5020
A850
5420
AA50
45A0
A250
41A0
A050
4020
A050
A050
4020
A050
4020
A050
0000
0A00
0400
0A00
0400
0400
0800
ENDCHAR
STARTCHAR 0147
ENCODING 327
SWIDTH 765 0
DWIDTH 17 0
BBX 14 23 2 0
BITMAP
15A0
0840
15A0
0A40
0580
0000
A014
5008
5008
A814
5408
AA14
4588
A254
41A8
A054
4028
A014
A014
4008
A014
4008
A014
ENDCHAR
STARTCHAR 0148
ENCODING 328
SWIDTH 675 0
DWIDTH 15 0
BBX 12 23 2 0
BITMAP
2A40
1180
2A40
1580
0A00
0000
A050
5020
5020
A850
5420
AA50
45A0
A250
41A0
A050
4020
A050
A050
4020
A050
4020
A050
ENDCHAR
STARTCHAR 014A
ENCODING 330
SWIDTH 765 0
DWIDTH 17 0
BBX 14 21 2 -4
BITMAP
A014
5008
5008
A814
5408
AA14
4588
A254
41A8
A054
4028
A014
A014
4008
A014
4008
A014
0008
0054
0028
0050
ENDCHAR
STARTCHAR 014B
ENCODING 331
SWIDTH 675 0
DWIDTH 15 0
BBX 12 21 2 -4
BITMAP
A050
5020
5020
A850
5420
AA50
45A0
A250
41A0
A050
4020
A050
A050
4020
A050
4020
A050
0020
0250
01A0
0240
ENDCHAR
STARTCHAR 014C
ENCODING 332
SWIDTH 765 0
DWIDTH 17 0
BBX 14 21 2 0
BITMAP
15A0
0A40
15A0
0000
0A40
15A0
15A0
2A50
5028
A014
4008
A014
4008
A014
4008
A014
A014
5028
2A50
15A0
0A40
ENDCHAR
STARTCHAR 014D
ENCODING 333
SWIDTH 675 0
DWIDTH 15 0
BBX 12 21 2 0
BITMAP
2A40
1580
2A40
0000
2A40
55A0
55A0
AA50
4020
A050
4020
A050
4020
A050
4020
A050
A050
4020
AA50
55A0
2A40
ENDCHAR
STARTCHAR 0150
ENCODING 336
SWIDTH 765 0
DWIDTH 17 0
BBX 15 23 2 0
BITMAP
058A
0A14
1428
2850
51A0
0000
0A40
15A0
15A0
2A50
5028
A014
4008
A014
4008
A014
4008
A014
A014
5028
2A50
15A0
0A40
ENDCHAR
STARTCHAR 0151
ENCODING 337
SWIDTH 675 0
DWIDTH 15 0
BBX 14 23 2 0
BITMAP
0A14
1428
2850
51A0
A240
0000
2A40
55A0
55A0
AA50
4020
A050
4020
A050
4020
A050
4020
A050
A050
4020
AA50
55A0
2A40
ENDCHAR
STARTCHAR 0152
ENCODING 338
SWIDTH 1170 0
DWIDTH 26 0
BBX 23 17 2 0
BITMAP
0A416A
15A294
15A294
2A556A
502A00
A01400
400800
A01568
400A90
A01568
400800
A01400
A01400
502A00
2A556A
15A294
0A416A
ENDCHAR
STARTCHAR 0153
ENCODING 339
SWIDTH 1080 0
DWIDTH 24 0
BBX 21 17 2 0
BITMAP
2A5568
55AA90
55AA90
AA5568
402000
A05000
402000
A05560
402A80
A05560
402000
A05000
A05000
402000
AA5568
55AA90
2A5568
ENDCHAR
STARTCHAR 0154
ENCODING 340
SWIDTH 675 0
DWIDTH 15 0
BBX 12 23 2 0
BITMAP
01A0
0240
0580
0A00
1400
0000
AA00
5580
5580
AA40
41A0
A050
4020
A050
4020
A050
41A0
AA40
AA40
5580
AA40
41A0
A050
ENDCHAR
STARTCHAR 0155
ENCODING 341
SWIDTH 675 0
DWIDTH 15 0
BBX 12 23 2 0
BITMAP
01A0
0240
0580
0A00
1400
0000
AA40
55A0
55A0
AA50
4020
A050
4020
A050
4020
AA50
55A0
AA40
AA40
41A0
A050
4020
A050
ENDCHAR
STARTCHAR 0156
ENCODING 342
SWIDTH 675 0
DWIDTH 15 0
BBX 12 24 2 -7
BITMAP
AA00
5580
5580
AA40
41A0
A050
4020
A050
4020
A050
41A0
AA40
AA40
5580
AA40
41A0
A050
0000
0A00
0400
0A00
0400
0400
0800
ENDCHAR
STARTCHAR 0157
ENCODING 343
SWIDTH 675 0
DWIDTH 15 0
BBX 12 24 2 -7
BITMAP
AA40
55A0
55A0
AA50
4020
A050
4020
A050
4020
AA50
55A0
AA40
AA40
41A0
A050
4020
A050
0000
0A00
0400
0A00
0400
0400
0800
ENDCHAR
STARTCHAR 0158
ENCODING 344
SWIDTH 675 0
DWIDTH 15 0
BBX 12 23 2 0
BITMAP
2A40
1180
2A40
1580
0A00
0000
AA00
5580
5580
AA40
41A0
A050
4020
A050
4020
A050
41A0
AA40
AA40
5580
AA40
41A0
A050
ENDCHAR
STARTCHAR 0159
ENCODING 345
SWIDTH 675 0
DWIDTH 15 0
BBX 12 23 2 0
BITMAP
2A40
1180
2A40
1580
0A00
0000
AA40
55A0
55A0
AA50
4020
A050
4020
A050
4020
AA50
55A0
AA40
AA40
41A0
A050
4020
A050
ENDCHAR
STARTCHAR 015A
ENCODING 346
SWIDTH 675 0
DWIDTH 15 0
BBX 12 23 2 0
BITMAP
01A0
0240
0580
0A00
1400
0000
2A40
55A0
55A0
AA50
4020
A050
4000
AA40
55A0
2A50
0020
A050
A050
4020
AA50
55A0
2A40
ENDCHAR
STARTCHAR 015B
ENCODING 347
SWIDTH 675 0
DWIDTH 15 0
BBX 12 23 2 0
BITMAP
01A0
0240
0580
0A00
1400
0000
2A40
55A0
55A0
AA50
4020
A050
4000
AA40
55A0
2A50
0020
A050
A050
4020
AA50
55A0
2A40
ENDCHAR
STARTCHAR 015E
ENCODING 350
SWIDTH 675 0
DWIDTH 15 0
BBX 12 21 2 -4
BITMAP
2A40
55A0
55A0
AA50
4020
A050
4000
AA40
55A0
2A50
0020
A050
A050
4020
AA50
55A0
2A40
0400
2A00
1400
2800
ENDCHAR
STARTCHAR 015F
ENCODING 351
SWIDTH 675 0
DWIDTH 15 0
BBX 12 21 2 -4
BITMAP
2A40
55A0
55A0
AA50
4020
A050
4000
AA40
55A0
2A50
0020
A050
A050
4020
AA50
55A0
2A40
0400
2A00
1400
2800
ENDCHAR
STARTCHAR 0160
ENCODING 352
SWIDTH 675 0
DWIDTH 15 0
BBX 12 23 2 0
BITMAP
2A40
1180
2A40
1580
0A00
0000
2A40
55A0
55A0
AA50
4020
A050
4000
AA40
55A0
2A50
0020
A050
A050
4020
AA50
55A0
2A40
ENDCHAR
STARTCHAR 0161
ENCODING 353
SWIDTH 675 0
DWIDTH 15 0
BBX 12 23 2 0
BITMAP
2A40
1180
2A40
1580
0A00
0000
2A40
55A0
55A0
AA50
4020
A050
4000
AA40
55A0
2A50
0020
A050
A050
4020
AA50
55A0
2A40
ENDCHAR
STARTCHAR 0162
ENCODING 354
SWIDTH 675 0
DWIDTH 15 0
BBX 12 21 2 -4
BITMAP
AA50
55A0
55A0
AA50
0400
0A00
0400
0A00
0400
0A00
0400
0A00
0A00
0400
0A00
0400
0A00
0400
2A00
1400
2800
ENDCHAR
STARTCHAR 0163
ENCODING 355
SWIDTH 675 0
DWIDTH 15 0
BBX 12 21 2 -4
BITMAP
AA50
55A0
55A0
AA50
0400
0A00
0400
0A00
0400
0A00
0400
0A00
0A00
0400
0A00
0400
0A00
0400
2A00
1400
2800
ENDCHAR
STARTCHAR 0164
ENCODING 356
SWIDTH 675 0
DWIDTH 15 0
BBX 12 23 2 0
BITMAP
2A40
1180
2A40
1580
0A00
0000
AA50
55A0
55A0
AA50
0400
0A00
0400
0A00
0400
0A00
0400
0A00
0A00
0400
0A00
0400
0A00
ENDCHAR
STARTCHAR 0165
ENCODING 357
SWIDTH 675 0
DWIDTH 15 0
BBX 12 23 2 0
BITMAP
2A40
1180
2A40
1580
0A00
0000
AA50
55A0
55A0
AA50
0400
0A00
0400
0A00
0400
0A00
0400
0A00
0A00
0400
0A00
0400
0A00
ENDCHAR
STARTCHAR 0166
ENCODING 358
SWIDTH 675 0
DWIDTH 15 0
BBX 12 17 2 0
BITMAP
AA50
55A0
55A0
AA50
0400
0A00
0400
2A40
1580
2A40
0400
0A00
0A00
0400
0A00
0400
0A00
ENDCHAR
STARTCHAR 0167
ENCODING 359
SWIDTH 675 0
DWIDTH 15 0
BBX 12 17 2 0
BITMAP
AA50
55A0
55A0
AA50
0400
0A00
0400
2A40
1580
2A40
0400
0A00
0A00
0400
0A00
0400
0A00
ENDCHAR
STARTCHAR 0168
ENCODING 360
SWIDTH 765 0
DWIDTH 17 0
BBX 14 23 2 0
BITMAP
1428
2A10
55A8
2250
51A0
0000
A014
4008
4008
A014
4008
A014
4008
A014
4008
A014
4008
A014
A014
5028
2A50
15A0
0A40
ENDCHAR
STARTCHAR 0169
ENCODING 361
SWIDTH 675 0
DWIDTH 15 0
BBX 12 23 2 0
BITMAP
2850
5420
AA50
45A0
A240
0000
A050
4020
4020
A050
4020
A050
4020
A050
4020
A050
4020
A050
A050
4020
AA50
55A0
2A40
ENDCHAR
STARTCHAR 016A
ENCODING 362
SWIDTH 765 0
DWIDTH 17 0
BBX 14 21 2 0
BITMAP
15A0
0A40
15A0
0000
A014
4008
4008
A014
4008
A014
4008
A014
4008
A014
4008
A014
A014
5028
2A50
15A0
0A40
ENDCHAR
STARTCHAR 016B
ENCODING 363
SWIDTH 675 0
DWIDTH 15 0
BBX 12 21 2 0
BITMAP
2A40
1580
2A40
0000
A050
4020
4020
A050
4020
A050
4020
A050
4020
A050
4020
A050
A050
4020
AA50
55A0
2A40
ENDCHAR
STARTCHAR 016E
ENCODING 366
SWIDTH 765 0
DWIDTH 17 0
BBX 14 28 2 0
BITMAP
0A40
15A0
2A50
2A50
1020
2850
1020
2A50
15A0
0A40
0000
A014
4008
4008
A014
4008
A014
4008
A014
4008
A014
4008
A014
A014
5028
2A50
15A0
0A40
ENDCHAR
STARTCHAR 016F
ENCODING 367
SWIDTH 675 0
DWIDTH 15 0
BBX 12 28 2 0
BITMAP
1580
2A40
55A0
55A0
2040
51A0
2040
55A0
2A40
1580
0000
A050
4020
4020
A050
4020
A050
4020
A050
4020
A050
4020
A050
A050
4020
AA50
55A0
2A40
ENDCHAR
STARTCHAR 0170
ENCODING 368
SWIDTH 765 0
DWIDTH 17 0
BBX 15 23 2 0
BITMAP
058A
0A14
1428
2850
51A0
0000
A014
4008
4008
A014
4008
A014
4008
A014
4008
A014
4008
A014
A014
5028
2A50
15A0
0A40
ENDCHAR
STARTCHAR 0171
ENCODING 369
SWIDTH 675 0
DWIDTH 15 0
BBX 14 23 2 0
BITMAP
0A14
1428
2850
51A0
A240
0000
A050
4020
4020
A050
4020
A050
4020
A050
4020
A050
4020
A050
A050
4020
AA50
55A0
2A40
ENDCHAR
STARTCHAR 0172
ENCODING 370
SWIDTH 765 0
DWIDTH 17 0
BBX 14 21 2 -4
BITMAP
A014
4008
4008
A014
4008
A014
4008
A014
4008
A014
4008
A014
A014
5028
2A50
15A0
0A40
0180
0250
01A0
0050
ENDCHAR
STARTCHAR 0173
ENCODING 371
SWIDTH 675 0
DWIDTH 15 0
BBX 12 21 2 -4
BITMAP
A050
4020
4020
A050
4020
A050
4020
A050
4020
A050
4020
A050
A050
4020
AA50
55A0
2A40
0180
0250
01A0
0050
ENDCHAR
STARTCHAR 0174
ENCODING 372
SWIDTH 1080 0
DWIDTH 24 0
BBX 21 23 2 0
BITMAP
005000
01A800
025400
018800
025400
000000
A05068
402010
402010
A05068
402010
A05068
402010
A05068
402010
A05068
402010
A05068
A05068
51A890
2A5560
158A80
0A0500
ENDCHAR
STARTCHAR 0175
ENCODING 373
SWIDTH 1080 0
DWIDTH 24 0
BBX 21 23 2 0
BITMAP
005000
01A800
025400
018800
025400
000000
A05068
402010
402010
A05068
402010
A05068
402010
A05068
402010
A05068
402010
A05068
A05068
41A810
AA5568
558A90
2A0560
ENDCHAR
STARTCHAR 0176
ENCODING 374
SWIDTH 675 0
DWIDTH 15 0
BBX 12 23 2 0
BITMAP
0A00
1580
2A40
1180
2A40
0000
A050
4020
4020
A050
4020
A050
4020
A050
51A0
2A40
1580
0A00
0A00
0400
0A00
0400
0A00
ENDCHAR
STARTCHAR 0177
ENCODING 375
SWIDTH 675 0
DWIDTH 15 0
BBX 12 23 2 0
BITMAP
0A00
1580
2A40
1180
2A40
0000
A050
4020
4020
A050
4020
A050
4020
A050
4020
AA50
55A0
2A40
2A40
0400
0A00
0400
0A00
ENDCHAR
STARTCHAR 0178
ENCODING 376
SWIDTH 675 0
DWIDTH 15 0
BBX 12 21 2 0
BITMAP
2A40
1180
2A40
0000
A050
4020
4020
A050
4020
A050
4020
A050
51A0
2A40
1580
0A00
0A00
0400
0A00
0400
0A00
ENDCHAR
STARTCHAR 0179
ENCODING 377
SWIDTH 675 0
DWIDTH 15 0
BBX 12 23 2 0
BITMAP
01A0
0240
0580
0A00
1400
0000
AA50
55A0
55A0
AA50
01A0
0240
0580
0A00
1400
2800
5000
A000
A000
4000
AA50
55A0
AA50
ENDCHAR
STARTCHAR 017A
ENCODING 378
SWIDTH 675 0
DWIDTH 15 0
BBX 12 23 2 0
BITMAP
01A0
0240
0580
0A00
1400
0000
AA50
55A0
55A0
AA50
0020
0050
0020
2A50
55A0
AA40
4000
A000
A000
4000
AA50
55A0
AA50
ENDCHAR
STARTCHAR 017B
ENCODING 379
SWIDTH 675 0
DWIDTH 15 0
BBX 12 21 2 0
BITMAP
0A00
0400
0A00
0000
AA50
55A0
55A0
AA50
01A0
0240
0580
0A00
1400
2800
5000
A000
A000
4000
AA50
55A0
AA50
ENDCHAR
STARTCHAR 017C
ENCODING 380
SWIDTH 675 0
DWIDTH 15 0
BBX 12 21 2 0
BITMAP
0A00
0400
0A00
0000
AA50
55A0
55A0
AA50
0020
0050
0020
2A50
55A0
AA40
4000
A000
A000
4000
AA50
55A0
AA50
ENDCHAR
STARTCHAR 017D
ENCODING 381
SWIDTH 675 0
DWIDTH 15 0
BBX 12 23 2 0
BITMAP
2A40
1180
2A40
1580
0A00
0000
AA50
55A0
55A0
AA50
01A0
0240
0580
0A00
1400
2800
5000
A000
A000
4000
AA50
55A0
AA50
ENDCHAR
STARTCHAR 017E
ENCODING 382
SWIDTH 675 0
DWIDTH 15 0
BBX 12 23 2 0
BITMAP
2A40
1180
2A40
1580
0A00
0000
AA50
55A0
55A0
AA50
0020
0050
0020
2A50
55A0
AA40
4000
A000
A000
4000
AA50
55A0
AA50
ENDCHAR
STARTCHAR 0192
ENCODING 402
SWIDTH 675 0
DWIDTH 15 0
BBX 12 21 2 -4
BITMAP
0250
05A0
05A0
0A50
0400
0A00
0400
2A40
1580
2A40
0400
0A00
0A00
0400
0A00
0400
0A00
0400
AA00
5400
A800
ENDCHAR
STARTCHAR 01A0
ENCODING 416
SWIDTH 945 0
DWIDTH 21 0
BBX 19 19 2 0
BITMAP
000160
000080
2A5560
55AA80
55AA80
AA5500
400800
A01400
400800
A01400
400800
A01400
400800
A01400
A01400
400800
AA5400
55A800
2A5000
ENDCHAR
STARTCHAR 01A1
ENCODING 417
SWIDTH 810 0
DWIDTH 18 0
BBX 16 19 2 0
BITMAP
0005
0002
2A55
55AA
55AA
AA54
4020
A050
4020
A050
4020
A050
4020
A050
A050
4020
AA50
55A0
2A40
ENDCHAR
STARTCHAR 01AF
ENCODING 431
SWIDTH 945 0
DWIDTH 21 0
BBX 19 19 2 0
BITMAP
000160
000080
A01560
400A80
400A80
A01500
400800
A01400
400800
A01400
400800
A01400
400800
A01400
A01400
502800
2A5000
15A000
0A4000
ENDCHAR
STARTCHAR 01B0
ENCODING 432
SWIDTH 810 0
DWIDTH 18 0
BBX 16 19 2 0
BITMAP
0005
0002
A055
402A
402A
A054
4020
A050
4020
A050
4020
A050
4020
A050
A050
4020
AA50
55A0
2A40
ENDCHAR
STARTCHAR 01CD
ENCODING 461
SWIDTH 675 0
DWIDTH 15 0
BBX 12 23 2 0
BITMAP
2A40
1180
2A40
1580
0A00
0000
0A00
1580
1580
2A40
51A0
A050
4020
A050
4020
AA50
55A0
AA50
AA50
4020
A050
4020
A050
ENDCHAR
STARTCHAR 01CE
ENCODING 462
SWIDTH 675 0
DWIDTH 15 0
BBX 12 23 2 0
BITMAP
2A40
1180
2A40
1580
0A00
0000
2A40
55A0
55A0
AA50
4020
A050
4020
A050
4020
AA50
55A0
AA50
AA50
4020
A050
4020
A050
ENDCHAR
STARTCHAR 01CF
ENCODING 463
SWIDTH 495 0
DWIDTH 11 0
BBX 7 23 2 0
BITMAP
AA
44
AA
54
28
00
AA
54
54
AA
10
28
10
28
10
28
10
28
28
10
AA
54
AA
ENDCHAR
STARTCHAR 01D0
ENCODING 464
SWIDTH 270 0
DWIDTH 6 0
BBX 8 23 -1 0
BITMAP
D5
22
D5
2A
14
00
14
08
08
14
08
14
08
14
08
14
08
14
14
08
14
08
14
ENDCHAR
STARTCHAR 01D1
ENCODING 465
SWIDTH 765 0
DWIDTH 17 0
BBX 14 23 2 0
BITMAP
15A0
0840
15A0
0A40
0580
0000
0A40
15A0
15A0
2A50
5028
A014
4008
A014
4008
A014
4008
A014
A014
5028
2A50
15A0
0A40
ENDCHAR
STARTCHAR 01D2
ENCODING 466
SWIDTH 675 0
DWIDTH 15 0
BBX 12 23 2 0
BITMAP
2A40
1180
2A40
1580
0A00
0000
2A40
55A0
55A0
AA50
4020
A050
4020
A050
4020
A050
4020
A050
A050
4020
AA50
55A0
2A40
ENDCHAR
STARTCHAR 01D3
ENCODING 467
SWIDTH 765 0
DWIDTH 17 0
BBX 14 23 2 0
BITMAP
15A0
0840
15A0
0A40
0580
0000
A014
4008
4008
A014
4008
A014
4008
A014
4008
A014
4008
A014
A014
5028
2A50
15A0
0A40
ENDCHAR
STARTCHAR 01D4
ENCODING 468
SWIDTH 675 0
DWIDTH 15 0
BBX 12 23 2 0
BITMAP
2A40
1180
2A40
1580
0A00
0000
A050
4020
4020
A050
4020
A050
4020
A050
4020
A050
4020
A050
A050
4020
AA50
55A0
2A40
ENDCHAR
STARTCHAR 01D5
ENCODING 469
SWIDTH 765 0
DWIDTH 17 0
BBX 14 26 2 0
BITMAP
15A0
15A0
0A40
15A0
0000
15A0
0840
15A0
0000
A014
4008
4008
A014
4008
A014
4008
A014
4008
A014
4008
A014
A014
5028
2A50
15A0
0A40
ENDCHAR
STARTCHAR 01D6
ENCODING 470
SWIDTH 675 0
DWIDTH 15 0
BBX 12 26 2 0
BITMAP
2A40
2A40
1580
2A40
0000
2A40
1180
2A40
0000
A050
4020
4020
A050
4020
A050
4020
A050
4020
A050
4020
A050
A050
4020
AA50
55A0
2A40
ENDCHAR
STARTCHAR 01D7
ENCODING 471
SWIDTH 765 0
DWIDTH 17 0
BBX 14 28 2 0
BITMAP
0050
01A0
0240
0240
0580
0A00
0000
15A0
0840
15A0
0000
A014
4008
4008
A014
4008
A014
4008
A014
4008
A014
4008
A014
A014
5028
2A50
15A0
0A40
ENDCHAR
STARTCHAR 01D8
ENCODING 472
SWIDTH 675 0
DWIDTH 15 0
BBX 12 28 2 0
BITMAP
01A0
0240
0580
0580
0A00
1400
0000
2A40
1180
2A40
0000
A050
4020
4020
A050
4020
A050
4020
A050
4020
A050
4020
A050
A050
4020
AA50
55A0
2A40
ENDCHAR
STARTCHAR 01D9
ENCODING 473
SWIDTH 765 0
DWIDTH 17 0
BBX 14 28 2 0
BITMAP
15A0
0840
15A0
15A0
0A40
0580
0000
15A0
0840
15A0
0000
A014
4008
4008
A014
4008
A014
4008
A014
4008
A014
4008
A014
A014
5028
2A50
15A0
0A40
ENDCHAR
STARTCHAR 01DA
ENCODING 474
SWIDTH 675 0
DWIDTH 15 0
BBX 12 28 2 0
BITMAP
2A40
1180
2A40
2A40
1580
0A00
0000
2A40
1180
2A40
0000
A050
4020
4020
A050
4020
A050
4020
A050
4020
A050
4020
A050
A050
4020
AA50
55A0
2A40
ENDCHAR
STARTCHAR 01DB
ENCODING 475
SWIDTH 765 0
DWIDTH 17 0
BBX 14 28 2 0
BITMAP
5000
2800
1400
1400
0A00
0580
0000
15A0
0840
15A0
0000
A014
4008
4008
A014
4008
A014
4008
A014
4008
A014
4008
A014
A014
5028
2A50
15A0
0A40
ENDCHAR
STARTCHAR 01DC
ENCODING 476
SWIDTH 675 0
DWIDTH 15 0
BBX 12 28 2 0
BITMAP
A000
5000
2800
2800
1400
0A00
0000
2A40
1180
2A40
0000
A050
4020
4020
A050
4020
A050
4020
A050
4020
A050
4020
A050
A050
4020
AA50
55A0
2A40
ENDCHAR
STARTCHAR 0218
ENCODING 536
SWIDTH 675 0
DWIDTH 15 0
BBX 12 24 2 -7
BITMAP
2A40
55A0
55A0
AA50
4020
A050
4000
AA40
55A0
2A50
0020
A050
A050
4020
AA50
55A0
2A40
0000
0A00
0400
0A00
0400
0400
0800
ENDCHAR
STARTCHAR 0219
ENCODING 537
SWIDTH 675 0
DWIDTH 15 0
BBX 12 24 2 -7
BITMAP
2A40
55A0
55A0
AA50
4020
A050
4000
AA40
55A0
2A50
0020
A050
A050
4020
AA50
55A0
2A40
0000
0A00
0400
0A00
0400
0400
0800
ENDCHAR
STARTCHAR 021A
ENCODING 538
SWIDTH 675 0
DWIDTH 15 0
BBX 12 24 2 -7
BITMAP
AA50
55A0
55A0
AA50
0400
0A00
0400
0A00
0400
0A00
0400
0A00
0A00
0400
0A00
0400
0A00
0000
0A00
0400
0A00
0400
0400
0800
ENDCHAR
STARTCHAR 021B
ENCODING 539
SWIDTH 675 0
DWIDTH 15 0
BBX 12 24 2 -7
BITMAP
AA50
55A0
55A0
AA50
0400
0A00
0400
0A00
0400
0A00
0400
0A00
0A00
0400
0A00
0400
0A00
0000
0A00
0400
0A00
0400
0400
0800
ENDCHAR
STARTCHAR 02BC
ENCODING 700
SWIDTH 180 0
DWIDTH 4 0
BBX 3 6 1 11
BITMAP
A0
40
40
A0
40
80
ENDCHAR
STARTCHAR 02C6
ENCODING 710
SWIDTH 360 0
DWIDTH 8 0
BBX 7 5 1 18
BITMAP
28
54
AA
44
AA
ENDCHAR
STARTCHAR 02C7
ENCODING 711
SWIDTH 360 0
DWIDTH 8 0
BBX 7 5 1 18
BITMAP
AA
44
AA
54
28
ENDCHAR
STARTCHAR 02D8
ENCODING 728
SWIDTH 495 0
DWIDTH 11 0
BBX 10 5 1 18
BITMAP
A2C0
4100
AAC0
5500
2A00
ENDCHAR
STARTCHAR 02D9
ENCODING 729
SWIDTH 180 0
DWIDTH 4 0
BBX 3 3 1 18
BITMAP
A0
40
A0
ENDCHAR
STARTCHAR 02DA
ENCODING 730
SWIDTH 495 0
DWIDTH 11 0
BBX 10 10 1 18
BITMAP
2A00
5500
AAC0
AAC0
4100
A2C0
4100
AAC0
5500
2A00
ENDCHAR
STARTCHAR 02DB
ENCODING 731
SWIDTH 225 0
DWIDTH 5 0
BBX 5 4 2 -4
BITMAP
40
A8
50
28
ENDCHAR
STARTCHAR 02DC
ENCODING 732
SWIDTH 585 0
DWIDTH 13 0
BBX 12 5 1 18
BITMAP
28D0
5420
AAD0
4520
A2C0
ENDCHAR
STARTCHAR 02DD
ENCODING 733
SWIDTH 630 0
DWIDTH 14 0
BBX 14 5 1 18
BITMAP
0A14
1428
28D0
5120
A2C0
ENDCHAR
STARTCHAR 0300
ENCODING 768
SWIDTH 0 0
DWIDTH 0 0
BBX 7 5 -9 18
BITMAP
A0
50
28
14
0A
ENDCHAR
STARTCHAR 0301
ENCODING 769
SWIDTH 0 0
DWIDTH 0 0
BBX 8 5 -7 18
BITMAP
0B
14
28
50
A0
ENDCHAR
STARTCHAR 0302
ENCODING 770
SWIDTH 0 0
DWIDTH 0 0
BBX 7 5 -8 18
BITMAP
28
54
AA
44
AA
ENDCHAR
STARTCHAR 0303
ENCODING 771
SWIDTH 0 0
DWIDTH 0 0
BBX 12 5 -13 18
BITMAP
3450
4A20
B550
42A0
B140
ENDCHAR
STARTCHAR 0304
ENCODING 772
SWIDTH 0 0
DWIDTH 0 0
BBX 7 3 -8 18
BITMAP
AA
54
AA
ENDCHAR
STARTCHAR 0306
ENCODING 774
SWIDTH 0 0
DWIDTH 0 0
BBX 10 5 -11 18
BITMAP
D140
2080
D540
2A80
1500
ENDCHAR
STARTCHAR 0307
ENCODING 775
SWIDTH 0 0
DWIDTH 0 0
BBX 3 3 -4 18
BITMAP
A0
40
A0
ENDCHAR
STARTCHAR 0308
ENCODING 776
SWIDTH 0 0
DWIDTH 0 0
BBX 7 3 -8 18
BITMAP
AA
44
AA
ENDCHAR
STARTCHAR 0309
ENCODING 777
SWIDTH 0 0
DWIDTH 0 0
BBX 7 8 -8 18
BITMAP
A8
A8
54
AA
04
2A
14
28
ENDCHAR
STARTCHAR 030A
ENCODING 778
SWIDTH 0 0
DWIDTH 0 0
BBX 10 10 -11 18
BITMAP
1500
2A80
D540
D540
2080
D140
2080
D540
2A80
1500
ENDCHAR
STARTCHAR 030B
ENCODING 779
SWIDTH 0 0
DWIDTH 0 0
BBX 15 5 -14 18
BITMAP
0516
1A28
2450
58A0
A140
ENDCHAR
STARTCHAR 030C
ENCODING 780
SWIDTH 0 0
DWIDTH 0 0
BBX 7 5 -8 18
BITMAP
AA
44
AA
54
28
ENDCHAR
STARTCHAR 031B
ENCODING 795
SWIDTH 0 0
DWIDTH 0 0
BBX 7 6 -8 13
BITMAP
0A
04
AA
54
54
A8
ENDCHAR
STARTCHAR 0323
ENCODING 803
SWIDTH 0 0
DWIDTH 0 0
BBX 3 3 -4 -4
BITMAP
A0
40
A0
ENDCHAR
STARTCHAR 0326
ENCODING 806
SWIDTH 0 0
DWIDTH 0 0
BBX 3 6 -4 -7
BITMAP
A0
40
A0
40
40
80
ENDCHAR
STARTCHAR 0327
ENCODING 807
SWIDTH 0 0
DWIDTH 0 0
BBX 5 4 -6 -4
BITMAP
10
A8
50
A0
ENDCHAR
STARTCHAR 0328
ENCODING 808
SWIDTH 0 0
DWIDTH 0 0
BBX 6 4 -4 -4
BITMAP
40
A4
58
24
ENDCHAR
STARTCHAR 0335
ENCODING 821
SWIDTH 0 0
DWIDTH 0 0
BBX 7 3 -9 7
BITMAP
AA
54
AA
ENDCHAR
STARTCHAR 0336
ENCODING 822
SWIDTH 0 0
DWIDTH 0 0
BBX 18 3 -19 11
BITMAP
AAD540
552A80
AAD540
ENDCHAR
STARTCHAR 0337
ENCODING 823
SWIDTH 0 0
DWIDTH 0 0
BBX 7 3 -9 7
BITMAP
AA
54
AA
ENDCHAR
STARTCHAR 0338
ENCODING 824
SWIDTH 0 0
DWIDTH 0 0
BBX 7 17 -8 0
BITMAP
0A
04
04
0A
14
08
14
28
10
28
50
20
20
50
A0
40
A0
ENDCHAR
STARTCHAR 0401
ENCODING 1025
SWIDTH 675 0
DWIDTH 15 0
BBX 12 21 2 0
BITMAP
2A40
1180
2A40
0000
0A50
15A0
15A0
2A50
5000
A000
4000
AA40
5580
AA40
4000
A000
A000
5000
2A50
15A0
0A50
ENDCHAR
STARTCHAR 0410
ENCODING 1040
SWIDTH 675 0
DWIDTH 15 0
BBX 12 17 2 0
BITMAP
0A00
1580
1580
2A40
51A0
A050
4020
A050
4020
AA50
55A0
AA50
AA50
4020
A050
4020
A050
ENDCHAR
STARTCHAR 0411
ENCODING 1041
SWIDTH 675 0
DWIDTH 15 0
BBX 12 17 2 0
BITMAP
AA50
55A0
55A0
AA50
4000
A000
4000
AA40
55A0
AA50
4020
A050
A050
4020
AA50
55A0
2A40
ENDCHAR
STARTCHAR 0412
ENCODING 1042
SWIDTH 675 0
DWIDTH 15 0
BBX 12 17 2 0
BITMAP
AA40
55A0
55A0
AA50
4020
A050
41A0
AA40
55A0
AA50
4020
A050
A050
4020
AA50
55A0
AA40
ENDCHAR
STARTCHAR 0413
ENCODING 1043
SWIDTH 675 0
DWIDTH 15 0
BBX 12 17 2 0
BITMAP
2A50
55A0
55A0
AA50
4000
A000
4000
A000
4000
A000
4000
A000
A000
4000
A000
4000
A000
ENDCHAR
STARTCHAR 0414
ENCODING 1044
SWIDTH 765 0
DWIDTH 17 0
BBX 16 19 1 -2
BITMAP
0AD4
1528
1528
2AD4
1008
2814
1008
2814
1008
2814
1008
2814
2814
1008
2AD4
552A
AAD5
4002
A005
ENDCHAR
STARTCHAR 0415
ENCODING 1045
SWIDTH 675 0
DWIDTH 15 0
BBX 12 17 2 0
BITMAP
0A50
15A0
15A0
2A50
5000
A000
4000
AA40
5580
AA40
4000
A000
A000
5000
2A50
15A0
0A50
ENDCHAR
STARTCHAR 0416
ENCODING 1046
SWIDTH 1080 0
DWIDTH 24 0
BBX 21 17 2 0
BITMAP
A05068
402010
402010
A05068
502090
285160
142280
0A5500
05AA00
0A5500
142280
285160
285160
502090
A05068
402010
A05068
ENDCHAR
STARTCHAR 0417
ENCODING 1047
SWIDTH 765 0
DWIDTH 17 0
BBX 14 17 2 0
BITMAP
0A40
15A0
15A0
2A50
5028
A014
0028
0A50
05A0
0A50
0028
A014
A014
5028
2A50
15A0
0A40
ENDCHAR
STARTCHAR 0418
ENCODING 1048
SWIDTH 765 0
DWIDTH 17 0
BBX 14 17 2 0
BITMAP
A014
4008
4008
A014
4008
A014
4028
A054
41A8
A254
4588
AA14
AA14
5408
A814
5008
A014
ENDCHAR
STARTCHAR 0419
ENCODING 1049
SWIDTH 765 0
DWIDTH 17 0
BBX 14 23 2 0
BITMAP
2850
1020
2A50
15A0
0A40
0000
A014
4008
4008
A014
4008
A014
4028
A054
41A8
A254
4588
AA14
AA14
5408
A814
5008
A014
ENDCHAR
STARTCHAR 041A
ENCODING 1050
SWIDTH 675 0
DWIDTH 15 0
BBX 12 17 2 0
BITMAP
A050
4020
4020
A050
41A0
A240
4580
AA00
5400
AA00
4580
A240
A240
41A0
A050
4020
A050
ENDCHAR
STARTCHAR 041B
ENCODING 1051
SWIDTH 765 0
DWIDTH 17 0
BBX 14 17 2 0
BITMAP
0A50
15A8
15A8
2A54
1008
2814
1008
2814
1008
2814
1008
2814
2814
1008
A814
5008
A014
ENDCHAR
STARTCHAR 041C
ENCODING 1052
SWIDTH 990 0
DWIDTH 22 0
BBX 19 17 2 0
BITMAP
A00160
500280
500280
A80560
540A80
AA1560
45A880
A25160
41A080
A04160
400080
A00160
A00160
400080
A00160
400080
A00160
ENDCHAR
STARTCHAR 041D
ENCODING 1053
SWIDTH 765 0
DWIDTH 17 0
BBX 14 17 2 0
BITMAP
A014
4008
4008
A014
4008
A014
4008
AA54
55A8
AA54
4008
A014
A014
4008
A014
4008
A014
ENDCHAR
STARTCHAR 041E
ENCODING 1054
SWIDTH 765 0
DWIDTH 17 0
BBX 14 17 2 0
BITMAP
0A40
15A0
15A0
2A50
5028
A014
4008
A014
4008
A014
4008
A014
A014
5028
2A50
15A0
0A40
ENDCHAR
STARTCHAR 041F
ENCODING 1055
SWIDTH 765 0
DWIDTH 17 0
BBX 14 17 2 0
BITMAP
2A50
55A8
55A8
AA54
4008
A014
4008
A014
4008
A014
4008
A014
A014
4008
A014
4008
A014
ENDCHAR
STARTCHAR 0420
ENCODING 1056
SWIDTH 675 0
DWIDTH 15 0
BBX 12 17 2 0
BITMAP
AA00
5580
5580
AA40
41A0
A050
4020
A050
4020
A050
41A0
AA40
AA40
5580
AA00
4000
A000
ENDCHAR
STARTCHAR 0421
ENCODING 1057
SWIDTH 765 0
DWIDTH 17 0
BBX 14 17 2 0
BITMAP
0A40
15A0
15A0
2A50
5028
A014
4008
A014
4000
A000
4000
A014
A014
5028
2A50
15A0
0A40
ENDCHAR
STARTCHAR 0422
ENCODING 1058
SWIDTH 675 0
DWIDTH 15 0
BBX 12 17 2 0
BITMAP
AA50
55A0
55A0
AA50
0400
0A00
0400
0A00
0400
0A00
0400
0A00
0A00
0400
0A00
0400
0A00
ENDCHAR
STARTCHAR 0423
ENCODING 1059
SWIDTH 675 0
DWIDTH 15 0
BBX 12 17 2 0
BITMAP
A050
4020
4020
A050
4020
A050
5020
2A50
15A0
0A50
0020
0050
0050
0020
AA50
55A0
AA40
ENDCHAR
STARTCHAR 0424
ENCODING 1060
SWIDTH 900 0
DWIDTH 20 0
BBX 16 21 2 -2
BITMAP
0240
0180
0A50
15A8
15A8
2A54
518A
A245
4182
A245
4182
A245
4182
A245
A245
518A
2A54
15A8
0A50
0180
0240
ENDCHAR
STARTCHAR 0425
ENCODING 1061
SWIDTH 765 0
DWIDTH 17 0
BBX 14 17 2 0
BITMAP
A014
4008
4008
A014
4008
A014
5028
2A50
15A0
2A50
5028
A014
A014
4008
A014
4008
A014
ENDCHAR
STARTCHAR 0426
ENCODING 1062
SWIDTH 810 0
DWIDTH 18 0
BBX 16 19 2 -2
BITMAP
A014
4008
4008
A014
4008
A014
4008
A014
4008
A014
4008
A014
A014
4008
AA54
55AA
2A55
0002
0005
ENDCHAR
STARTCHAR 0427
ENCODING 1063
SWIDTH 675 0
DWIDTH 15 0
BBX 12 17 2 0
BITMAP
A050
4020
4020
A050
4020
A050
5020
2A50
15A0
0A50
0020
0050
0050
0020
0050
0020
0050
ENDCHAR
STARTCHAR 0428
ENCODING 1064
SWIDTH 1080 0
DWIDTH 24 0
BBX 21 17 2 0
BITMAP
A05068
402010
402010
A05068
402010
A05068
402010
A05068
402010
A05068
402010
A05068
A05068
402010
AA5568
55AA90
2A5560
ENDCHAR
STARTCHAR 0429
ENCODING 1065
SWIDTH 1125 0
DWIDTH 25 0
BBX 23 19 2 -2
BITMAP
A05068
402010
402010
A05068
402010
A05068
402010
A05068
402010
A05068
402010
A05068
A05068
402010
AA5568
55AA94
2A556A
000004
00000A
ENDCHAR
STARTCHAR 042A
ENCODING 1066
SWIDTH 765 0
DWIDTH 17 0
BBX 14 17 2 0
BITMAP
A800
5000
5000
A800
1000
2800
1000
2A50
15A8
2A54
1008
2814
2814
1008
2A54
15A8
0A50
ENDCHAR
STARTCHAR 042B
ENCODING 1067
SWIDTH 945 0
DWIDTH 21 0
BBX 17 17 2 0
BITMAP
A00280
400100
400100
A00280
400100
A00280
400100
AA4280
55A100
AA5280
402100
A05280
A05280
402100
AA5280
55A100
2A4280
ENDCHAR
STARTCHAR 042C
ENCODING 1068
SWIDTH 675 0
DWIDTH 15 0
BBX 12 17 2 0
BITMAP
A000
4000
4000
A000
4000
A000
4000
AA40
55A0
AA50
4020
A050
A050
4020
AA50
55A0
2A40
ENDCHAR
STARTCHAR 042D
ENCODING 1069
SWIDTH 765 0
DWIDTH 17 0
BBX 14 17 2 0
BITMAP
0A40
15A0
15A0
2A50
5028
A014
0008
0A54
05A8
0A54
0008
A014
A014
5028
2A50
15A0
0A40
ENDCHAR
STARTCHAR 042E
ENCODING 1070
SWIDTH 1080 0
DWIDTH 24 0
BBX 21 17 2 0
BITMAP
A01500
402A80
402A80
A05560
41A090
A24068
418010
AA4068
558010
AA4068
418010
A24068
A24068
41A090
A05560
402A80
A01500
ENDCHAR
STARTCHAR 042F
ENCODING 1071
SWIDTH 675 0
DWIDTH 15 0
BBX 12 17 2 0
BITMAP
0A50
15A0
15A0
2A50
5020
A050
4020
A050
4020
A050
5020
2A50
2A50
15A0
2A50
5020
A050
ENDCHAR
STARTCHAR 0430
ENCODING 1072
SWIDTH 675 0
DWIDTH 15 0
BBX 12 17 2 0
BITMAP
2A40
55A0
55A0
AA50
4020
A050
4020
A050
4020
AA50
55A0
AA50
AA50
4020
A050
4020
A050
ENDCHAR
STARTCHAR 0431
ENCODING 1073
SWIDTH 675 0
DWIDTH 15 0
BBX 12 17 2 0
BITMAP
AA50
55A0
55A0
AA50
4000
A000
4000
AA40
55A0
AA50
4020
A050
A050
4020
AA50
55A0
2A40
ENDCHAR
STARTCHAR 0432
ENCODING 1074
SWIDTH 675 0
DWIDTH 15 0
BBX 12 17 2 0
BITMAP
AA40
55A0
55A0
AA50
4020
A050
41A0
AA40
5580
AA40
41A0
A050
A050
4020
AA50
55A0
AA40
ENDCHAR
STARTCHAR 0433
ENCODING 1075
SWIDTH 585 0
DWIDTH 13 0
BBX 10 17 2 0
BITMAP
2A40
5580
5580
AA40
4000
A000
4000
A000
4000
A000
4000
A000
A000
4000
A000
4000
A000
ENDCHAR
STARTCHAR 0434
ENCODING 1076
SWIDTH 765 0
DWIDTH 17 0
BBX 16 19 1 -2
BITMAP
0AD4
1528
1528
2AD4
1008
2814
1008
2814
1008
2814
1008
2814
2814
1008
2AD4
552A
AAD5
4002
A005
ENDCHAR
STARTCHAR 0435
ENCODING 1077
SWIDTH 675 0
DWIDTH 15 0
BBX 12 17 2 0
BITMAP
2A50
55A0
55A0
AA50
4000
A000
4000
AA40
5580
AA40
4000
A000
A000
4000
AA50
55A0
2A50
ENDCHAR
STARTCHAR 0436
ENCODING 1078
SWIDTH 1080 0
DWIDTH 24 0
BBX 21 17 2 0
BITMAP
A05068
402010
402010
A05068
402010
A05068
502090
2A5560
15AA80
2A5560
502090
A05068
A05068
402010
A05068
402010
A05068
ENDCHAR
STARTCHAR 0437
ENCODING 1079
SWIDTH 675 0
DWIDTH 15 0
BBX 12 17 2 0
BITMAP
2A40
55A0
55A0
AA50
4020
A050
01A0
0A40
0580
0A40
01A0
A050
A050
4020
AA50
55A0
2A40
ENDCHAR
STARTCHAR 0438
ENCODING 1080
SWIDTH 675 0
DWIDTH 15 0
BBX 12 17 2 0
BITMAP
A050
4020
4020
A050
4020
A050
4020
A050
41A0
A250
45A0
AA50
AA50
5420
A850
5020
A050
ENDCHAR
STARTCHAR 0439
ENCODING 1081
SWIDTH 675 0
DWIDTH 15 0
BBX 12 23 2 0
BITMAP
51A0
2040
55A0
2A40
1580
0000
A050
4020
4020
A050
4020
A050
4020
A050
41A0
A250
45A0
AA50
AA50
5420
A850
5020
A050
ENDCHAR
STARTCHAR 043A
ENCODING 1082
SWIDTH 675 0
DWIDTH 15 0
BBX 12 17 2 0
BITMAP
A050
4020
4020
A050
4020
A050
41A0
AA40
5580
AA40
41A0
A050
A050
4020
A050
4020
A050
ENDCHAR
STARTCHAR 043B
ENCODING 1083
SWIDTH 765 0
DWIDTH 17 0
BBX 14 17 2 0
BITMAP
0A50
15A8
15A8
2A54
1008
2814
1008
2814
1008
2814
1008
2814
2814
1008
A814
5008
A014
ENDCHAR
STARTCHAR 043C
ENCODING 1084
SWIDTH 900 0
DWIDTH 20 0
BBX 16 17 2 0
BITMAP
A005
500A
500A
A815
542A
AA55
45A2
A245
4182
A005
4002
A005
A005
4002
A005
4002
A005
ENDCHAR
STARTCHAR 043D
ENCODING 1085
SWIDTH 675 0
DWIDTH 15 0
BBX 12 17 2 0
BITMAP
A050
4020
4020
A050
4020
A050
4020
AA50
55A0
AA50
4020
A050
A050
4020
A050
4020
A050
ENDCHAR
STARTCHAR 043E
ENCODING 1086
SWIDTH 675 0
DWIDTH 15 0
BBX 12 17 2 0
BITMAP
2A40
55A0
55A0
AA50
4020
A050
4020
A050
4020
A050
4020
A050
A050
4020
AA50
55A0
2A40
ENDCHAR
STARTCHAR 043F
ENCODING 1087
SWIDTH 675 0
DWIDTH 15 0
BBX 12 17 2 0
BITMAP
2A40
55A0
55A0
AA50
4020
A050
4020
A050
4020
A050
4020
A050
A050
4020
A050
4020
A050
ENDCHAR
STARTCHAR 0440
ENCODING 1088
SWIDTH 675 0
DWIDTH 15 0
BBX 12 17 2 0
BITMAP
AA40
55A0
55A0
AA50
4020
A050
4020
A050
4020
AA50
55A0
AA40
AA40
4000
A000
4000
A000
ENDCHAR
STARTCHAR 0441
ENCODING 1089
SWIDTH 675 0
DWIDTH 15 0
BBX 12 17 2 0
BITMAP
2A40
55A0
55A0
AA50
4020
A050
4020
A050
4000
A000
4000
A050
A050
4020
AA50
55A0
2A40
ENDCHAR
STARTCHAR 0442
ENCODING 1090
SWIDTH 675 0
DWIDTH 15 0
BBX 12 17 2 0
BITMAP
AA50
55A0
55A0
AA50
0400
0A00
0400
0A00
0400
0A00
0400
0A00
0A00
0400
0A00
0400
0A00
ENDCHAR
STARTCHAR 0443
ENCODING 1091
SWIDTH 675 0
DWIDTH 15 0
BBX 12 17 2 0
BITMAP
A050
4020
4020
A050
4020
A050
4020
AA50
55A0
2A50
0020
0050
0050
0020
AA50
55A0
AA40
ENDCHAR
STARTCHAR 0444
ENCODING 1092
SWIDTH 900 0
DWIDTH 20 0
BBX 16 21 2 -2
BITMAP
0240
0180
2A54
55AA
55AA
AA55
4182
A245
4182
A245
4182
A245
4182
A245
A245
4182
AA55
55AA
2A54
0180
0240
ENDCHAR
STARTCHAR 0445
ENCODING 1093
SWIDTH 675 0
DWIDTH 15 0
BBX 12 17 2 0
BITMAP
A050
4020
4020
A050
4020
A050
51A0
2A40
1580
2A40
51A0
A050
A050
4020
A050
4020
A050
ENDCHAR
STARTCHAR 0446
ENCODING 1094
SWIDTH 720 0
DWIDTH 16 0
BBX 14 19 2 -2
BITMAP
A050
4020
4020
A050
4020
A050
4020
A050
4020
A050
4020
A050
A050
4020
AA50
55A8
2A54
0008
0014
ENDCHAR
STARTCHAR 0447
ENCODING 1095
SWIDTH 675 0
DWIDTH 15 0
BBX 12 17 2 0
BITMAP
A050
4020
4020
A050
4020
A050
4020
AA50
55A0
2A50
0020
0050
0050
0020
0050
0020
0050
ENDCHAR
STARTCHAR 0448
ENCODING 1096
SWIDTH 900 0
DWIDTH 20 0
BBX 16 17 2 0
BITMAP
A245
4182
4182
A245
4182
A245
4182
A245
4182
A245
4182
A245
A245
4182
AA55
55AA
2A54
ENDCHAR
STARTCHAR 0449
ENCODING 1097
SWIDTH 945 0
DWIDTH 21 0
BBX 19 19 2 -2
BITMAP
A24500
418200
418200
A24500
418200
A24500
418200
A24500
418200
A24500
418200
A24500
A24500
418200
AA5500
55AA80
2A5560
000080
000160
ENDCHAR
STARTCHAR 044A
ENCODING 1098
SWIDTH 765 0
DWIDTH 17 0
BBX 14 17 2 0
BITMAP
A800
5000
5000
A800
1000
2800
1000
2A50
15A8
2A54
1008
2814
2814
1008
2A54
15A8
0A50
ENDCHAR
STARTCHAR 044B
ENCODING 1099
SWIDTH 945 0
DWIDTH 21 0
BBX 17 17 2 0
BITMAP
A00280
400100
400100
A00280
400100
A00280
400100
AA4280
55A100
AA5280
402100
A05280
A05280
402100
AA5280
55A100
2A4280
ENDCHAR
STARTCHAR 044C
ENCODING 1100
SWIDTH 675 0
DWIDTH 15 0
BBX 12 17 2 0
BITMAP
A000
4000
4000
A000
4000
A000
4000
AA40
55A0
AA50
4020
A050
A050
4020
AA50
55A0
2A40
ENDCHAR
STARTCHAR 044D
ENCODING 1101
SWIDTH 765 0
DWIDTH 17 0
BBX 14 17 2 0
BITMAP
2A50
55A8
55A8
AA54
4008
A014
0008
0A54
05A8
0A54
0008
A014
A014
4008
AA54
55A8
2A50
ENDCHAR
STARTCHAR 044E
ENCODING 1102
SWIDTH 990 0
DWIDTH 22 0
BBX 19 17 2 0
BITMAP
A05500
41AA80
41AA80
A25560
418080
A24160
418080
AA4160
558080
AA4160
418080
A24160
A24160
418080
A25560
41AA80
A05500
ENDCHAR
STARTCHAR 044F
ENCODING 1103
SWIDTH 675 0
DWIDTH 15 0
BBX 12 17 2 0
BITMAP
2A50
55A0
55A0
AA50
4020
A050
4020
A050
4020
AA50
55A0
2A50
2A50
5020
A050
4020
A050
ENDCHAR
STARTCHAR 0451
ENCODING 1105
SWIDTH 675 0
DWIDTH 15 0
BBX 12 21 2 0
BITMAP
2A40
1180
2A40
0000
2A50
55A0
55A0
AA50
4000
A000
4000
AA40
5580
AA40
4000
A000
A000
4000
AA50
55A0
2A50
ENDCHAR
STARTCHAR 1E80
ENCODING 7808
SWIDTH 1080 0
DWIDTH 24 0
BBX 21 23 2 0
BITMAP
0A0000
058000
024000
01A000
005000
000000
A05068
402010
402010
A05068
402010
A05068
402010
A05068
402010
A05068
402010
A05068
A05068
51A890
2A5560
158A80
0A0500
ENDCHAR
STARTCHAR 1E81
ENCODING 7809
SWIDTH 1080 0
DWIDTH 24 0
BBX 21 23 2 0
BITMAP
0A0000
058000
024000
01A000
005000
000000
A05068
402010
402010
A05068
402010
A05068
402010
A05068
402010
A05068
402010
A05068
A05068
41A810
AA5568
558A90
2A0560
ENDCHAR
STARTCHAR 1E82
ENCODING 7810
SWIDTH 1080 0
DWIDTH 24 0
BBX 21 23 2 0
BITMAP
000A00
001400
002800
005000
01A000
000000
A05068
402010
402010
A05068
402010
A05068
402010
A05068
402010
A05068
402010
A05068
A05068
51A890
2A5560
158A80
0A0500
ENDCHAR
STARTCHAR 1E83
ENCODING 7811
SWIDTH 1080 0
DWIDTH 24 0
BBX 21 23 2 0
BITMAP
000A00
001400
002800
005000
01A000
000000
A05068
402010
402010
A05068
402010
A05068
402010
A05068
402010
A05068
402010
A05068
A05068
41A810
AA5568
558A90
2A0560
ENDCHAR
STARTCHAR 1E84
ENCODING 7812
SWIDTH 1080 0
DWIDTH 24 0
BBX 21 21 2 0
BITMAP
025400
018800
025400
000000
A05068
402010
402010
A05068
402010
A05068
402010
A05068
402010
A05068
402010
A05068
A05068
51A890
2A5560
158A80
0A0500
ENDCHAR
STARTCHAR 1E85
ENCODING 7813
SWIDTH 1080 0
DWIDTH 24 0
BBX 21 21 2 0
BITMAP
025400
018800
025400
000000
A05068
402010
402010
A05068
402010
A05068
402010
A05068
402010
A05068
402010
A05068
A05068
41A810
AA5568
558A90
2A0560
ENDCHAR
STARTCHAR 1E9E
ENCODING 7838
SWIDTH 675 0
DWIDTH 15 0
BBX 12 17 2 0
BITMAP
2A40
55A0
55A0
AA50
4020
A050
41A0
AA40
45A0
AA50
4020
A050
A050
4020
AA50
45A0
AA40
ENDCHAR
STARTCHAR 1EA0
ENCODING 7840
SWIDTH 675 0
DWIDTH 15 0
BBX 12 21 2 -4
BITMAP
0A00
1580
1580
2A40
51A0
A050
4020
A050
4020
AA50
55A0
AA50
AA50
4020
A050
4020
A050
0000
0A00
0400
0A00
ENDCHAR
STARTCHAR 1EA1
ENCODING 7841
SWIDTH 675 0
DWIDTH 15 0
BBX 12 21 2 -4
BITMAP
2A40
55A0
55A0
AA50
4020
A050
4020
A050
4020
AA50
55A0
AA50
AA50
4020
A050
4020
A050
0000
0A00
0400
0A00
ENDCHAR
STARTCHAR 1EA2
ENCODING 7842
SWIDTH 675 0
DWIDTH 15 0
BBX 12 26 2 0
BITMAP
2A00
2A00
1580
2A40
0180
0A40
0580
0A00
0000
0A00
1580
1580
2A40
51A0
A050
4020
A050
4020
AA50
55A0
AA50
AA50
4020
A050
4020
A050
ENDCHAR
STARTCHAR 1EA3
ENCODING 7843
SWIDTH 675 0
DWIDTH 15 0
BBX 12 26 2 0
BITMAP
2A00
2A00
1580
2A40
0180
0A40
0580
0A00
0000
2A40
55A0
55A0
AA50
4020
A050
4020
A050
4020
AA50
55A0
AA50
AA50
4020
A050
4020
A050
ENDCHAR
STARTCHAR 1EA4
ENCODING 7844
SWIDTH 675 0
DWIDTH 15 0
BBX 12 30 2 0
BITMAP
01A0
0240
0580
0A00
1400
1400
0000
0A00
1580
2A40
1180
2A40
0000
0A00
1580
1580
2A40
51A0
A050
4020
A050
4020
AA50
55A0
AA50
AA50
4020
A050
4020
A050
ENDCHAR
STARTCHAR 1EA5
ENCODING 7845
SWIDTH 675 0
DWIDTH 15 0
BBX 12 30 2 0
BITMAP
01A0
0240
0580
0A00
1400
1400
0000
0A00
1580
2A40
1180
2A40
0000
2A40
55A0
55A0
AA50
4020
A050
4020
A050
4020
AA50
55A0
AA50
AA50
4020
A050
4020
A050
ENDCHAR
STARTCHAR 1EA6
ENCODING 7846
SWIDTH 675 0
DWIDTH 15 0
BBX 12 30 2 0
BITMAP
A000
5000
2800
1400
0A00
0A00
0000
0A00
1580
2A40
1180
2A40
0000
0A00
1580
1580
2A40
51A0
A050
4020
A050
4020
AA50
55A0
AA50
AA50
4020
A050
4020
A050
ENDCHAR
STARTCHAR 1EA7
ENCODING 7847
SWIDTH 675 0
DWIDTH 15 0
BBX 12 30 2 0
BITMAP
A000
5000
2800
1400
0A00
0A00
0000
0A00
1580
2A40
1180
2A40
0000
2A40
55A0
55A0
AA50
4020
A050
4020
A050
4020
AA50
55A0
AA50
AA50
4020
A050
4020
A050
ENDCHAR
STARTCHAR 1EA8
ENCODING 7848
SWIDTH 675 0
DWIDTH 15 0
BBX 12 32 2 0
BITMAP
2A00
1580
2A40
0180
0A40
0580
0A00
0A00
0000
0A00
1580
2A40
1180
2A40
0000
0A00
1580
1580
2A40
51A0
A050
4020
A050
4020
AA50
55A0
AA50
AA50
4020
A050
4020
A050
ENDCHAR
STARTCHAR 1EA9
ENCODING 7849
SWIDTH 675 0
DWIDTH 15 0
BBX 12 32 2 0
BITMAP
2A00
1580
2A40
0180
0A40
0580
0A00
0A00
0000
0A00
1580
2A40
1180
2A40
0000
2A40
55A0
55A0
AA50
4020
A050
4020
A050
4020
AA50
55A0
AA50
AA50
4020
A050
4020
A050
ENDCHAR
STARTCHAR 1EAA
ENCODING 7850
SWIDTH 675 0
DWIDTH 15 0
BBX 12 30 2 0
BITMAP
2850
5420
AA50
45A0
A240
A240
0000
0A00
1580
2A40
1180
2A40
0000
0A00
1580
1580
2A40
51A0
A050
4020
A050
4020
AA50
55A0
AA50
AA50
4020
A050
4020
A050
ENDCHAR
STARTCHAR 1EAB
ENCODING 7851
SWIDTH 675 0
DWIDTH 15 0
BBX 12 30 2 0
BITMAP
2850
5420
AA50
45A0
A240
A240
0000
0A00
1580
2A40
1180
2A40
0000
2A40
55A0
55A0
AA50
4020
A050
4020
A050
4020
AA50
55A0
AA50
AA50
4020
A050
4020
A050
ENDCHAR
STARTCHAR 1EAC
ENCODING 7852
SWIDTH 675 0
DWIDTH 15 0
BBX 12 27 2 -4
BITMAP
0A00
1580
2A40
1180
2A40
0000
0A00
1580
1580
2A40
51A0
A050
4020
A050
4020
AA50
55A0
AA50
AA50
4020
A050
4020
A050
0000
0A00
0400
0A00
ENDCHAR
STARTCHAR 1EAD
ENCODING 7853
SWIDTH 675 0
DWIDTH 15 0
BBX 12 27 2 -4
BITMAP
0A00
1580
2A40
1180
2A40
0000
2A40
55A0
55A0
AA50
4020
A050
4020
A050
4020
AA50
55A0
AA50
AA50
4020
A050
4020
A050
0000
0A00
0400
0A00
ENDCHAR
STARTCHAR 1EAE
ENCODING 7854
SWIDTH 675 0
DWIDTH 15 0
BBX 12 30 2 0
BITMAP
01A0
0240
0580
0A00
1400
1400
0000
51A0
2040
55A0
2A40
1580
0000
0A00
1580
1580
2A40
51A0
A050
4020
A050
4020
AA50
55A0
AA50
AA50
4020
A050
4020
A050
ENDCHAR
STARTCHAR 1EAF
ENCODING 7855
SWIDTH 675 0
DWIDTH 15 0
BBX 12 30 2 0
BITMAP
01A0
0240
0580
0A00
1400
1400
0000
51A0
2040
55A0
2A40
1580
0000
2A40
55A0
55A0
AA50
4020
A050
4020
A050
4020
AA50
55A0
AA50
AA50
4020
A050
4020
A050
ENDCHAR
STARTCHAR 1EB0
ENCODING 7856
SWIDTH 675 0
DWIDTH 15 0
BBX 13 30 1 0
BITMAP
D000
2800
1400
0A00
0500
0500
0000
28D0
1020
2AD0
1520
0AC0
0000
0500
0AC0
0AC0
1520
28D0
5028
2010
5028
2010
5528
2AD0
5528
5528
2010
5028
2010
5028
ENDCHAR
STARTCHAR 1EB1
ENCODING 7857
SWIDTH 675 0
DWIDTH 15 0
BBX 13 30 1 0
BITMAP
D000
2800
1400
0A00
0500
0500
0000
28D0
1020
2AD0
1520
0AC0
0000
1520
2AD0
2AD0
5528
2010
5028
2010
5028
2010
5528
2AD0
5528
5528
2010
5028
2010
5028
ENDCHAR
STARTCHAR 1EB2
ENCODING 7858
SWIDTH 675 0
DWIDTH 15 0
BBX 12 32 2 0
BITMAP
2A00
1580
2A40
0180
0A40
0580
0A00
0A00
0000
51A0
2040
55A0
2A40
1580
0000
0A00
1580
1580
2A40
51A0
A050
4020
A050
4020
AA50
55A0
AA50
AA50
4020
A050
4020
A050
ENDCHAR
STARTCHAR 1EB3
ENCODING 7859
SWIDTH 675 0
DWIDTH 15 0
BBX 12 32 2 0
BITMAP
2A00
1580
2A40
0180
0A40
0580
0A00
0A00
0000
51A0
2040
55A0
2A40
1580
0000
2A40
55A0
55A0
AA50
4020
A050
4020
A050
4020
AA50
55A0
AA50
AA50
4020
A050
4020
A050
ENDCHAR
STARTCHAR 1EB4
ENCODING 7860
SWIDTH 675 0
DWIDTH 15 0
BBX 12 30 2 0
BITMAP
2850
5420
AA50
45A0
A240
A240
0000
51A0
2040
55A0
2A40
1580
0000
0A00
1580
1580
2A40
51A0
A050
4020
A050
4020
AA50
55A0
AA50
AA50
4020
A050
4020
A050
ENDCHAR
STARTCHAR 1EB5
ENCODING 7861
SWIDTH 675 0
DWIDTH 15 0
BBX 12 30 2 0
BITMAP
2850
5420
AA50
45A0
A240
A240
0000
51A0
2040
55A0
2A40
1580
0000
2A40
55A0
55A0
AA50
4020
A050
4020
A050
4020
AA50
55A0
AA50
AA50
4020
A050
4020
A050
ENDCHAR
STARTCHAR 1EB6
ENCODING 7862
SWIDTH 675 0
DWIDTH 15 0
BBX 12 27 2 -4
BITMAP
51A0
2040
55A0
2A40
1580
0000
0A00
1580
1580
2A40
51A0
A050
4020
A050
4020
AA50
55A0
AA50
AA50
4020
A050
4020
A050
0000
0A00
0400
0A00
ENDCHAR
STARTCHAR 1EB7
ENCODING 7863
SWIDTH 675 0
DWIDTH 15 0
BBX 12 27 2 -4
BITMAP
51A0
2040
55A0
2A40
1580
0000
2A40
55A0
55A0
AA50
4020
A050
4020
A050
4020
AA50
55A0
AA50
AA50
4020
A050
4020
A050
0000
0A00
0400
0A00
ENDCHAR
STARTCHAR 1EB8
ENCODING 7864
SWIDTH 675 0
DWIDTH 15 0
BBX 12 21 2 -4
BITMAP
0A50
15A0
15A0
2A50
5000
A000
4000
AA40
5580
AA40
4000
A000
A000
5000
2A50
15A0
0A50
0000
0A00
0400
0A00
ENDCHAR
STARTCHAR 1EB9
ENCODING 7865
SWIDTH 675 0
DWIDTH 15 0
BBX 12 21 2 -4
BITMAP
2A50
55A0
55A0
AA50
4000
A000
4000
AA40
5580
AA40
4000
A000
A000
4000
AA50
55A0
2A50
0000
0A00
0400
0A00
ENDCHAR
STARTCHAR 1EBA
ENCODING 7866
SWIDTH 675 0
DWIDTH 15 0
BBX 12 26 2 0
BITMAP
2A00
2A00
1580
2A40
0180
0A40
0580
0A00
0000
0A50
15A0
15A0
2A50
5000
A000
4000
AA40
5580
AA40
4000
A000
A000
5000
2A50
15A0
0A50
ENDCHAR
STARTCHAR 1EBB
ENCODING 7867
SWIDTH 675 0
DWIDTH 15 0
BBX 12 26 2 0
BITMAP
2A00
2A00
1580
2A40
0180
0A40
0580
0A00
0000
2A50
55A0
55A0
AA50
4000
A000
4000
AA40
5580
AA40
4000
A000
A000
4000
AA50
55A0
2A50
ENDCHAR
STARTCHAR 1EBC
ENCODING 7868
SWIDTH 675 0
DWIDTH 15 0
BBX 12 23 2 0
BITMAP
2850
5420
AA50
45A0
A240
0000
0A50
15A0
15A0
2A50
5000
A000
4000
AA40
5580
AA40
4000
A000
A000
5000
2A50
15A0
0A50
ENDCHAR
STARTCHAR 1EBD
ENCODING 7869
SWIDTH 675 0
DWIDTH 15 0
BBX 12 23 2 0
BITMAP
2850
5420
AA50
45A0
A240
0000
2A50
55A0
55A0
AA50
4000
A000
4000
AA40
5580
AA40
4000
A000
A000
4000
AA50
55A0
2A50
ENDCHAR
STARTCHAR 1EBE
ENCODING 7870
SWIDTH 675 0
DWIDTH 15 0
BBX 12 30 2 0
BITMAP
01A0
0240
0580
0A00
1400
1400
0000
0A00
1580
2A40
1180
2A40
0000
0A50
15A0
15A0
2A50
5000
A000
4000
AA40
5580
AA40
4000
A000
A000
5000
2A50
15A0
0A50
ENDCHAR
STARTCHAR 1EBF
ENCODING 7871
SWIDTH 675 0
DWIDTH 15 0
BBX 12 30 2 0
BITMAP
01A0
0240
0580
0A00
1400
1400
0000
0A00
1580
2A40
1180
2A40
0000
2A50
55A0
55A0
AA50
4000
A000
4000
AA40
5580
AA40
4000
A000
A000
4000
AA50
55A0
2A50
ENDCHAR
STARTCHAR 1EC0
ENCODING 7872
SWIDTH 675 0
DWIDTH 15 0
BBX 12 30 2 0
BITMAP
A000
5000
2800
1400
0A00
0A00
0000
0A00
1580
2A40
1180
2A40
0000
0A50
15A0
15A0
2A50
5000
A000
4000
AA40
5580
AA40
4000
A000
A000
5000
2A50
15A0
0A50
ENDCHAR
STARTCHAR 1EC1
ENCODING 7873
SWIDTH 675 0
DWIDTH 15 0
BBX 12 30 2 0
BITMAP
A000
5000
2800
1400
0A00
0A00
0000
0A00
1580
2A40
1180
2A40
0000
2A50
55A0
55A0
AA50
4000
A000
4000
AA40
5580
AA40
4000
A000
A000
4000
AA50
55A0
2A50
ENDCHAR
STARTCHAR 1EC2
ENCODING 7874
SWIDTH 675 0
DWIDTH 15 0
BBX 12 32 2 0
BITMAP
2A00
1580
2A40
0180
0A40
0580
0A00
0A00
0000
0A00
1580
2A40
1180
2A40
0000
0A50
15A0
15A0
2A50
5000
A000
4000
AA40
5580
AA40
4000
A000
A000
5000
2A50
15A0
0A50
ENDCHAR
STARTCHAR 1EC3
ENCODING 7875
SWIDTH 675 0
DWIDTH 15 0
BBX 12 32 2 0
BITMAP
2A00
1580
2A40
0180
0A40
0580
0A00
0A00
0000
0A00
1580
2A40
1180
2A40
0000
2A50
55A0
55A0
AA50
4000
A000
4000
AA40
5580
AA40
4000
A000
A000
4000
AA50
55A0
2A50
ENDCHAR
STARTCHAR 1EC4
ENCODING 7876
SWIDTH 675 0
DWIDTH 15 0
BBX 12 30 2 0
BITMAP
2850
5420
AA50
45A0
A240
A240
0000
0A00
1580
2A40
1180
2A40
0000
0A50
15A0
15A0
2A50
5000
A000
4000
AA40
5580
AA40
4000
A000
A000
5000
2A50
15A0
0A50
ENDCHAR
STARTCHAR 1EC5
ENCODING 7877
SWIDTH 675 0
DWIDTH 15 0
BBX 12 30 2 0
BITMAP
2850
5420
AA50
45A0
A240
A240
0000
0A00
1580
2A40
1180
2A40
0000
2A50
55A0
55A0
AA50
4000
A000
4000
AA40
5580
AA40
4000
A000
A000
4000
AA50
55A0
2A50
ENDCHAR
STARTCHAR 1EC6
ENCODING 7878
SWIDTH 675 0
DWIDTH 15 0
BBX 12 27 2 -4
BITMAP
0A00
1580
2A40
1180
2A40
0000
0A50
15A0
15A0
2A50
5000
A000
4000
AA40
5580
AA40
4000
A000
A000
5000
2A50
15A0
0A50
0000
0A00
0400
0A00
ENDCHAR
STARTCHAR 1EC7
ENCODING 7879
SWIDTH 675 0
DWIDTH 15 0
BBX 12 27 2 -4
BITMAP
0A00
1580
2A40
1180
2A40
0000
2A50
55A0
55A0
AA50
4000
A000
4000
AA40
5580
AA40
4000
A000
A000
4000
AA50
55A0
2A50
0000
0A00
0400
0A00
ENDCHAR
STARTCHAR 1EC8
ENCODING 7880
SWIDTH 495 0
DWIDTH 11 0
BBX 7 26 2 0
BITMAP
A8
A8
54
AA
04
2A
14
28
00
AA
54
54
AA
10
28
10
28
10
28
10
28
28
10
AA
54
AA
ENDCHAR
STARTCHAR 1EC9
ENCODING 7881
SWIDTH 270 0
DWIDTH 6 0
BBX 8 26 -1 0
BITMAP
D4
D4
2A
D5
02
15
0A
14
00
14
08
08
14
08
14
08
14
08
14
08
14
14
08
14
08
14
ENDCHAR
STARTCHAR 1ECA
ENCODING 7882
SWIDTH 495 0
DWIDTH 11 0
BBX 7 21 2 -4
BITMAP
AA
54
54
AA
10
28
10
28
10
28
10
28
28
10
AA
54
AA
00
28
10
28
ENDCHAR
STARTCHAR 1ECB
ENCODING 7883
SWIDTH 270 0
DWIDTH 6 0
BBX 3 21 2 -4
BITMAP
A0
40
40
A0
40
A0
40
A0
40
A0
40
A0
A0
40
A0
40
A0
00
A0
40
A0
ENDCHAR
STARTCHAR 1ECC
ENCODING 7884
SWIDTH 765 0
DWIDTH 17 0
BBX 14 21 2 -4
BITMAP
0A40
15A0
15A0
2A50
5028
A014
4008
A014
4008
A014
4008
A014
A014
5028
2A50
15A0
0A40
0000
0580
0200
0580
ENDCHAR
STARTCHAR 1ECD
ENCODING 7885
SWIDTH 675 0
DWIDTH 15 0
BBX 12 21 2 -4
BITMAP
2A40
55A0
55A0
AA50
4020
A050
4020
A050
4020
A050
4020
A050
A050
4020
AA50
55A0
2A40
0000
0A00
0400
0A00
ENDCHAR
STARTCHAR 1ECE
ENCODING 7886
SWIDTH 765 0
DWIDTH 17 0
BBX 14 26 2 0
BITMAP
1580
1580
0A40
15A0
0040
05A0
0240
0580
0000
0A40
15A0
15A0
2A50
5028
A014
4008
A014
4008
A014
4008
A014
A014
5028
2A50
15A0
0A40
ENDCHAR
STARTCHAR 1ECF
ENCODING 7887
SWIDTH 675 0
DWIDTH 15 0
BBX 12 26 2 0
BITMAP
2A00
2A00
1580
2A40
0180
0A40
0580
0A00
0000
2A40
55A0
55A0
AA50
4020
A050
4020
A050
4020
A050
4020
A050
A050
4020
AA50
55A0
2A40
ENDCHAR
STARTCHAR 1ED0
ENCODING 7888
SWIDTH 765 0
DWIDTH 17 0
BBX 14 30 2 0
BITMAP
0050
01A0
0240
0580
0A00
0A00
0000
0580
0A40
15A0
0840
15A0
0000
0A40
15A0
15A0
2A50
5028
A014
4008
A014
4008
A014
4008
A014
A014
5028
2A50
15A0
0A40
ENDCHAR
STARTCHAR 1ED1
ENCODING 7889
SWIDTH 675 0
DWIDTH 15 0
BBX 12 30 2 0
BITMAP
01A0
0240
0580
0A00
1400
1400
0000
0A00
1580
2A40
1180
2A40
0000
2A40
55A0
55A0
AA50
4020
A050
4020
A050
4020
A050
4020
A050
A050
4020
AA50
55A0
2A40
ENDCHAR
STARTCHAR 1ED2
ENCODING 7890
SWIDTH 765 0
DWIDTH 17 0
BBX 14 30 2 0
BITMAP
5000
2800
1400
0A00
0580
0580
0000
0580
0A40
15A0
0840
15A0
0000
0A40
15A0
15A0
2A50
5028
A014
4008
A014
4008
A014
4008
A014
A014
5028
2A50
15A0
0A40
ENDCHAR
STARTCHAR 1ED3
ENCODING 7891
SWIDTH 675 0
DWIDTH 15 0
BBX 12 30 2 0
BITMAP
A000
5000
2800
1400
0A00
0A00
0000
0A00
1580
2A40
1180
2A40
0000
2A40
55A0
55A0
AA50
4020
A050
4020
A050
4020
A050
4020
A050
A050
4020
AA50
55A0
2A40
ENDCHAR
STARTCHAR 1ED4
ENCODING 7892
SWIDTH 765 0
DWIDTH 17 0
BBX 14 32 2 0
BITMAP
1580
0A40
15A0
0040
05A0
0240
0580
0580
0000
0580
0A40
15A0
0840
15A0
0000
0A40
15A0
15A0
2A50
5028
A014
4008
A014
4008
A014
4008
A014
A014
5028
2A50
15A0
0A40
ENDCHAR
STARTCHAR 1ED5
ENCODING 7893
SWIDTH 675 0
DWIDTH 15 0
BBX 12 32 2 0
BITMAP
2A00
1580
2A40
0180
0A40
0580
0A00
0A00
0000
0A00
1580
2A40
1180
2A40
0000
2A40
55A0
55A0
AA50
4020
A050
4020
A050
4020
A050
4020
A050
A050
4020
AA50
55A0
2A40
ENDCHAR
STARTCHAR 1ED6
ENCODING 7894
SWIDTH 765 0
DWIDTH 17 0
BBX 14 30 2 0
BITMAP
1428
2A10
55A8
2250
51A0
51A0
0000
0580
0A40
15A0
0840
15A0
0000
0A40
15A0
15A0
2A50
5028
A014
4008
A014
4008
A014
4008
A014
A014
5028
2A50
15A0
0A40
ENDCHAR
STARTCHAR 1ED7
ENCODING 7895
SWIDTH 675 0
DWIDTH 15 0
BBX 12 30 2 0
BITMAP
2850
5420
AA50
45A0
A240
A240
0000
0A00
1580
2A40
1180
2A40
0000
2A40
55A0
55A0
AA50
4020
A050
4020
A050
4020
A050
4020
A050
A050
4020
AA50
55A0
2A40
ENDCHAR
STARTCHAR 1ED8
ENCODING 7896
SWIDTH 765 0
DWIDTH 17 0
BBX 14 27 2 -4
BITMAP
0580
0A40
15A0
0840
15A0
0000
0A40
15A0
15A0
2A50
5028
A014
4008
A014
4008
A014
4008
A014
A014
5028
2A50
15A0
0A40
0000
0580
0200
0580
ENDCHAR
STARTCHAR 1ED9
ENCODING 7897
SWIDTH 675 0
DWIDTH 15 0
BBX 12 27 2 -4
BITMAP
0A00
1580
2A40
1180
2A40
0000
2A40
55A0
55A0
AA50
4020
A050
4020
A050
4020
A050
4020
A050
A050
4020
AA50
55A0
2A40
0000
0A00
0400
0A00
ENDCHAR
STARTCHAR 1EDA
ENCODING 7898
SWIDTH 945 0
DWIDTH 21 0
BBX 19 23 2 0
BITMAP
005000
01A000
024000
058000
0A0160
000080
2A5560
55AA80
55AA80
AA5500
400800
A01400
400800
A01400
400800
A01400
400800
A01400
A01400
400800
AA5400
55A800
2A5000
ENDCHAR
STARTCHAR 1EDB
ENCODING 7899
SWIDTH 810 0
DWIDTH 18 0
BBX 16 23 2 0
BITMAP
01A0
0240
0580
0A00
1405
0002
2A55
55AA
55AA
AA54
4020
A050
4020
A050
4020
A050
4020
A050
A050
4020
AA50
55A0
2A40
ENDCHAR
STARTCHAR 1EDC
ENCODING 7900
SWIDTH 945 0
DWIDTH 21 0
BBX 19 23 2 0
BITMAP
500000
280000
140000
0A0000
058160
000080
2A5560
55AA80
55AA80
AA5500
400800
A01400
400800
A01400
400800
A01400
400800
A01400
A01400
400800
AA5400
55A800
2A5000
ENDCHAR
STARTCHAR 1EDD
ENCODING 7901
SWIDTH 810 0
DWIDTH 18 0
BBX 16 23 2 0
BITMAP
A000
5000
2800
1400
0A05
0002
2A55
55AA
55AA
AA54
4020
A050
4020
A050
4020
A050
4020
A050
A050
4020
AA50
55A0
2A40
ENDCHAR
STARTCHAR 1EDE
ENCODING 7902
SWIDTH 945 0
DWIDTH 21 0
BBX 19 26 2 0
BITMAP
158000
158000
0A4000
15A000
004000
05A000
024000
058160
000080
2A5560
55AA80
55AA80
AA5500
400800
A01400
400800
A01400
400800
A01400
400800
A01400
A01400
400800
AA5400
55A800
2A5000
ENDCHAR
STARTCHAR 1EDF
ENCODING 7903
SWIDTH 810 0
DWIDTH 18 0
BBX 16 26 2 0
BITMAP
2A00
2A00
1580
2A40
0180
0A40
0580
0A05
0002
2A55
55AA
55AA
AA54
4020
A050
4020
A050
4020
A050
4020
A050
A050
4020
AA50
55A0
2A40
ENDCHAR
STARTCHAR 1EE0
ENCODING 7904
SWIDTH 945 0
DWIDTH 21 0
BBX 19 23 2 0
BITMAP
142800
2A1000
55A800
225000
51A160
000080
2A5560
55AA80
55AA80
AA5500
400800
A01400
400800
A01400
400800
A01400
400800
A01400
A01400
400800
AA5400
55A800
2A5000
ENDCHAR
STARTCHAR 1EE1
ENCODING 7905
SWIDTH 810 0
DWIDTH 18 0
BBX 16 23 2 0
BITMAP
2850
5420
AA50
45A0
A245
0002
2A55
55AA
55AA
AA54
4020
A050
4020
A050
4020
A050
4020
A050
A050
4020
AA50
55A0
2A40
ENDCHAR
STARTCHAR 1EE2
ENCODING 7906
SWIDTH 945 0
DWIDTH 21 0
BBX 19 23 2 -4
BITMAP
000160
000080
2A5560
55AA80
55AA80
AA5500
400800
A01400
400800
A01400
400800
A01400
400800
A01400
A01400
400800
AA5400
55A800
2A5000
000000
058000
020000
058000
ENDCHAR
STARTCHAR 1EE3
ENCODING 7907
SWIDTH 810 0
DWIDTH 18 0
BBX 16 23 2 -4
BITMAP
0005
0002
2A55
55AA
55AA
AA54
4020
A050
4020
A050
4020
A050
4020
A050
A050
4020
AA50
55A0
2A40
0000
0A00
0400
0A00
ENDCHAR
STARTCHAR 1EE4
ENCODING 7908
SWIDTH 765 0
DWIDTH 17 0
BBX 14 21 2 -4
BITMAP
A014
4008
4008
A014
4008
A014
4008
A014
4008
A014
4008
A014
A014
5028
2A50
15A0
0A40
0000
0580
0200
0580
ENDCHAR
STARTCHAR 1EE5
ENCODING 7909
SWIDTH 675 0
DWIDTH 15 0
BBX 12 21 2 -4
BITMAP
A050
4020
4020
A050
4020
A050
4020
A050
4020
A050
4020
A050
A050
4020
AA50
55A0
2A40
0000
0A00
0400
0A00
ENDCHAR
STARTCHAR 1EE6
ENCODING 7910
SWIDTH 765 0
DWIDTH 17 0
BBX 14 26 2 0
BITMAP
1580
1580
0A40
15A0
0040
05A0
0240
0580
0000
A014
4008
4008
A014
4008
A014
4008
A014
4008
A014
4008
A014
A014
5028
2A50
15A0
0A40
ENDCHAR
STARTCHAR 1EE7
ENCODING 7911
SWIDTH 675 0
DWIDTH 15 0
BBX 12 26 2 0
BITMAP
2A00
2A00
1580
2A40
0180
0A40
0580
0A00
0000
A050
4020
4020
A050
4020
A050
4020
A050
4020
A050
4020
A050
A050
4020
AA50
55A0
2A40
ENDCHAR
STARTCHAR 1EE8
ENCODING 7912
SWIDTH 945 0
DWIDTH 21 0
BBX 19 23 2 0
BITMAP
005000
01A000
024000
058000
0A0160
000080
A01560
400A80
400A80
A01500
400800
A01400
400800
A01400
400800
A01400
400800
A01400
A01400
502800
2A5000
15A000
0A4000
ENDCHAR
STARTCHAR 1EE9
ENCODING 7913
SWIDTH 810 0
DWIDTH 18 0
BBX 16 23 2 0
BITMAP
01A0
0240
0580
0A00
1405
0002
A055
402A
402A
A054
4020
A050
4020
A050
4020
A050
4020
A050
A050
4020
AA50
55A0
2A40
ENDCHAR
STARTCHAR 1EEA
ENCODING 7914
SWIDTH 945 0
DWIDTH 21 0
BBX 19 23 2 0
BITMAP
500000
280000
140000
0A0000
058160
000080
A01560
400A80
400A80
A01500
400800
A01400
400800
A01400
400800
A01400
400800
A01400
A01400
502800
2A5000
15A000
0A4000
ENDCHAR
STARTCHAR 1EEB
ENCODING 7915
SWIDTH 810 0
DWIDTH 18 0
BBX 16 23 2 0
BITMAP
A000
5000
2800
1400
0A05
0002
A055
402A
402A
A054
4020
A050
4020
A050
4020
A050
4020
A050
A050
4020
AA50
55A0
2A40
ENDCHAR
STARTCHAR 1EEC
ENCODING 7916
SWIDTH 945 0
DWIDTH 21 0
BBX 19 26 2 0
BITMAP
158000
158000
0A4000
15A000
004000
05A000
024000
058160
000080
A01560
400A80
400A80
A01500
400800
A01400
400800
A01400
400800
A01400
400800
A01400
A01400
502800
2A5000
15A000
0A4000
ENDCHAR
STARTCHAR 1EED
ENCODING 7917
SWIDTH 810 0
DWIDTH 18 0
BBX 16 26 2 0
BITMAP
2A00
2A00
1580
2A40
0180
0A40
0580
0A05
0002
A055
402A
402A
A054
4020
A050
4020
A050
4020
A050
4020
A050
A050
4020
AA50
55A0
2A40
ENDCHAR
STARTCHAR 1EEE
ENCODING 7918
SWIDTH 945 0
DWIDTH 21 0
BBX 19 23 2 0
BITMAP
142800
2A1000
55A800
225000
51A160
000080
A01560
400A80
400A80
A01500
400800
A01400
400800
A01400
400800
A01400
400800
A01400
A01400
502800
2A5000
15A000
0A4000
ENDCHAR
STARTCHAR 1EEF
ENCODING 7919
SWIDTH 810 0
DWIDTH 18 0
BBX 16 23 2 0
BITMAP
2850
5420
AA50
45A0
A245
0002
A055
402A
402A
A054
4020
A050
4020
A050
4020
A050
4020
A050
A050
4020
AA50
55A0
2A40
ENDCHAR
STARTCHAR 1EF0
ENCODING 7920
SWIDTH 945 0
DWIDTH 21 0
BBX 19 23 2 -4
BITMAP
000160
000080
A01560
400A80
400A80
A01500
400800
A01400
400800
A01400
400800
A01400
400800
A01400
A01400
502800
2A5000
15A000
0A4000
000000
058000
020000
058000
ENDCHAR
STARTCHAR 1EF1
ENCODING 7921
SWIDTH 810 0
DWIDTH 18 0
BBX 16 23 2 -4
BITMAP
0005
0002
A055
402A
402A
A054
4020
A050
4020
A050
4020
A050
4020
A050
A050
4020
AA50
55A0
2A40
0000
0A00
0400
0A00
ENDCHAR
STARTCHAR 1EF2
ENCODING 7922
SWIDTH 675 0
DWIDTH 15 0
BBX 12 23 2 0
BITMAP
A000
5000
2800
1400
0A00
0000
A050
4020
4020
A050
4020
A050
4020
A050
51A0
2A40
1580
0A00
0A00
0400
0A00
0400
0A00
ENDCHAR
STARTCHAR 1EF3
ENCODING 7923
SWIDTH 675 0
DWIDTH 15 0
BBX 12 23 2 0
BITMAP
A000
5000
2800
1400
0A00
0000
A050
4020
4020
A050
4020
A050
4020
A050
4020
AA50
55A0
2A40
2A40
0400
0A00
0400
0A00
ENDCHAR
STARTCHAR 1EF4
ENCODING 7924
SWIDTH 675 0
DWIDTH 15 0
BBX 12 21 2 -4
BITMAP
A050
4020
4020
A050
4020
A050
4020
A050
51A0
2A40
1580
0A00
0A00
0400
0A00
0400
0A00
0000
0A00
0400
0A00
ENDCHAR
STARTCHAR 1EF5
ENCODING 7925
SWIDTH 675 0
DWIDTH 15 0
BBX 12 21 2 -4
BITMAP
A050
4020
4020
A050
4020
A050
4020
A050
4020
AA50
55A0
2A40
2A40
0400
0A00
0400
0A00
0000
0A00
0400
0A00
ENDCHAR
STARTCHAR 1EF6
ENCODING 7926
SWIDTH 675 0
DWIDTH 15 0
BBX 12 26 2 0
BITMAP
2A00
2A00
1580
2A40
0180
0A40
0580
0A00
0000
A050
4020
4020
A050
4020
A050
4020
A050
51A0
2A40
1580
0A00
0A00
0400
0A00
0400
0A00
ENDCHAR
STARTCHAR 1EF7
ENCODING 7927
SWIDTH 675 0
DWIDTH 15 0
BBX 12 26 2 0
BITMAP
2A00
2A00
1580
2A40
0180
0A40
0580
0A00
0000
A050
4020
4020
A050
4020
A050
4020
A050
4020
AA50
55A0
2A40
2A40
0400
0A00
0400
0A00
ENDCHAR
STARTCHAR 1EF8
ENCODING 7928
SWIDTH 675 0
DWIDTH 15 0
BBX 12 23 2 0
BITMAP
2850
5420
AA50
45A0
A240
0000
A050
4020
4020
A050
4020
A050
4020
A050
51A0
2A40
1580
0A00
0A00
0400
0A00
0400
0A00
ENDCHAR
STARTCHAR 1EF9
ENCODING 7929
SWIDTH 675 0
DWIDTH 15 0
BBX 12 23 2 0
BITMAP
2850
5420
AA50
45A0
A240
0000
A050
4020
4020
A050
4020
A050
4020
A050
4020
AA50
55A0
2A40
2A40
0400
0A00
0400
0A00
ENDCHAR
STARTCHAR 2013
ENCODING 8211
SWIDTH 675 0
DWIDTH 15 0
BBX 14 3 1 7
BITMAP
AAD4
5528
AAD4
ENDCHAR
STARTCHAR 2014
ENCODING 8212
SWIDTH 990 0
DWIDTH 22 0
BBX 21 3 1 7
BITMAP
AAD548
552AB0
AAD548
ENDCHAR
STARTCHAR 2018
ENCODING 8216
SWIDTH 180 0
DWIDTH 4 0
BBX 3 6 1 13
BITMAP
20
40
A0
40
40
A0
ENDCHAR
STARTCHAR 2019
ENCODING 8217
SWIDTH 180 0
DWIDTH 4 0
BBX 3 6 1 13
BITMAP
A0
40
A0
40
40
80
ENDCHAR
STARTCHAR 201A
ENCODING 8218
SWIDTH 180 0
DWIDTH 4 0
BBX 3 5 1 -2
BITMAP
A0
40
A0
40
80
ENDCHAR
STARTCHAR 201C
ENCODING 8220
SWIDTH 450 0
DWIDTH 10 0
BBX 8 6 1 13
BITMAP
21
42
A5
42
42
A5
ENDCHAR
STARTCHAR 201D
ENCODING 8221
SWIDTH 450 0
DWIDTH 10 0
BBX 8 6 1 13
BITMAP
A5
42
A5
42
42
84
ENDCHAR
STARTCHAR 201E
ENCODING 8222
SWIDTH 450 0
DWIDTH 10 0
BBX 8 5 1 -2
BITMAP
A5
42
A5
42
84
ENDCHAR
STARTCHAR 2020
ENCODING 8224
SWIDTH 495 0
DWIDTH 11 0
BBX 7 17 2 0
BITMAP
28
10
10
AA
54
AA
10
28
10
28
10
28
28
10
28
10
28
ENDCHAR
STARTCHAR 2021
ENCODING 8225
SWIDTH 495 0
DWIDTH 11 0
BBX 7 17 2 0
BITMAP
28
10
10
AA
54
AA
10
28
10
AA
54
AA
AA
10
28
10
28
ENDCHAR
STARTCHAR 2022
ENCODING 8226
SWIDTH 360 0
DWIDTH 8 0
BBX 7 8 1 4
BITMAP
28
54
AA
54
AA
54
28
28
ENDCHAR
STARTCHAR 2026
ENCODING 8230
SWIDTH 585 0
DWIDTH 13 0
BBX 12 3 1 0
BITMAP
AAD0
4420
AAD0
ENDCHAR
STARTCHAR 2030
ENCODING 8240
SWIDTH 1800 0
DWIDTH 40 0
BBX 36 17 2 0
BITMAP
2A05000000
5582000000
5582000000
AA45000000
418A000000
A244000000
418A000000
AA546A0540
5588951AA0
2A156AA550
0028811820
001162A450
001162A450
0028811820
00516AA550
0020951AA0
00506A0540
ENDCHAR
STARTCHAR 2039
ENCODING 8249
SWIDTH 540 0
DWIDTH 12 0
BBX 8 12 1 2
BITMAP
05
0A
14
28
50
A0
50
28
14
14
0A
05
ENDCHAR
STARTCHAR 203A
ENCODING 8250
SWIDTH 540 0
DWIDTH 12 0
BBX 9 12 3 2
BITMAP
A000
5000
2800
1400
0B00
0480
0B00
1400
2800
2800
5000
A000
ENDCHAR
STARTCHAR 2044
ENCODING 8260
SWIDTH 360 0
DWIDTH 8 0
BBX 7 17 1 0
BITMAP
0A
04
04
0A
14
08
14
28
10
28
50
20
20
50
A0
40
A0
ENDCHAR
STARTCHAR 20AC
ENCODING 8364
SWIDTH 765 0
DWIDTH 17 0
BBX 14 23 2 -2
BITMAP
0254
05A8
0A54
1400
2800
1000
1000
AA50
55A0
AA50
1000
2800
1000
AA50
55A0
AA50
AA50
1000
2800
1400
0A54
05A8
0254
ENDCHAR
STARTCHAR 2212
ENCODING 8722
SWIDTH 675 0
DWIDTH 15 0
BBX 12 3 2 7
BITMAP
AA50
55A0
AA50
ENDCHAR
STARTCHAR E000
ENCODING 57344
SWIDTH 675 0
DWIDTH 15 0
BBX 12 17 2 0
BITMAP
AA50
55A0
55A0
AA50
4020
A050
4020
A050
4020
AA50
55A0
AA50
AA50
4020
A050
4020
A050
ENDCHAR
STARTCHAR E017
ENCODING 57367
SWIDTH 1080 0
DWIDTH 24 0
BBX 21 17 2 0
BITMAP
AA5568
55AA90
55AA90
AA5568
402000
A05000
402000
A05560
402A80
AA5560
55A000
AA5000
AA5000
402000
A05568
402A90
A05568
ENDCHAR
STARTCHAR E018
ENCODING 57368
SWIDTH 675 0
DWIDTH 15 0
BBX 12 17 2 0
BITMAP
AA50
55A0
55A0
AA50
4020
A050
41A0
AA40
5580
AA40
41A0
A050
A050
4020
AA50
55A0
AA50
ENDCHAR
STARTCHAR E019
ENCODING 57369
SWIDTH 765 0
DWIDTH 17 0
BBX 14 17 2 0
BITMAP
AA54
55A8
55A8
AA54
4008
A014
4008
A014
4000
A000
4000
A014
A014
4008
AA54
55A8
AA54
ENDCHAR
STARTCHAR E01E
ENCODING 57374
SWIDTH 765 0
DWIDTH 17 0
BBX 14 17 2 0
BITMAP
AA50
55A8
55A8
AA54
4008
A014
4008
A014
4008
A014
4008
A014
A014
4008
AA54
55A8
AA50
ENDCHAR
STARTCHAR E01F
ENCODING 57375
SWIDTH 810 0
DWIDTH 18 0
BBX 16 17 1 0
BITMAP
2AD4
152A
152A
2AD5
1002
2805
1002
AA05
5402
AA05
1002
2805
2805
1002
2AD5
152A
2AD4
ENDCHAR
STARTCHAR E021
ENCODING 57377
SWIDTH 810 0
DWIDTH 18 0
BBX 16 17 1 0
BITMAP
2AD4
152A
152A
2AD5
1002
2805
1002
AA05
5402
AA05
1002
2805
2805
1002
2AD5
152A
2AD4
ENDCHAR
STARTCHAR E022
ENCODING 57378
SWIDTH 675 0
DWIDTH 15 0
BBX 12 17 2 0
BITMAP
AA50
55A0
55A0
AA50
4000
A000
4000
AA40
5580
AA40
4000
A000
A000
4000
AA50
55A0
AA50
ENDCHAR
STARTCHAR E033
ENCODING 57395
SWIDTH 675 0
DWIDTH 15 0
BBX 12 17 2 0
BITMAP
AA50
55A0
55A0
AA50
4000
A000
4000
AA40
5580
AA40
4000
A000
A000
4000
A000
4000
A000
ENDCHAR
STARTCHAR E034
ENCODING 57396
SWIDTH 765 0
DWIDTH 17 0
BBX 14 17 2 0
BITMAP
AA54
55A8
55A8
AA54
4000
A000
4000
A254
41A8
A254
4008
A014
A014
4008
AA54
55A8
AA54
ENDCHAR
STARTCHAR E038
ENCODING 57400
SWIDTH 585 0
DWIDTH 13 0
BBX 10 17 2 0
BITMAP
AA40
5580
5580
AA40
0180
0240
0180
0240
0180
A240
4180
A240
A240
4180
AA40
5580
AA00
ENDCHAR
STARTCHAR E039
ENCODING 57401
SWIDTH 675 0
DWIDTH 15 0
BBX 12 17 2 0
BITMAP
A050
4020
4020
A050
41A0
A240
4580
AA50
55A0
AA50
4020
A050
A050
4020
A050
4020
A050
ENDCHAR
STARTCHAR E03B
ENCODING 57403
SWIDTH 675 0
DWIDTH 15 0
BBX 12 17 2 0
BITMAP
A000
4000
4000
A000
4000
A000
4000
A000
4000
A000
4000
A000
A000
4000
AA50
55A0
AA50
ENDCHAR
STARTCHAR E040
ENCODING 57408
SWIDTH 1080 0
DWIDTH 24 0
BBX 21 17 2 0
BITMAP
AA5568
55AA90
55AA90
AA5568
402010
A05068
402010
A05068
402010
A05068
402010
A05068
A05068
402010
A05068
402010
A05068
ENDCHAR
STARTCHAR E041
ENCODING 57409
SWIDTH 765 0
DWIDTH 17 0
BBX 14 17 2 0
BITMAP
AA54
55A8
55A8
AA54
4008
A014
4008
A014
4008
A014
4008
A014
A014
4008
A014
4008
A014
ENDCHAR
STARTCHAR E045
ENCODING 57413
SWIDTH 765 0
DWIDTH 17 0
BBX 14 21 2 -4
BITMAP
AA54
55A8
55A8
AA54
4008
A014
4008
A014
4008
A014
4008
A014
A014
4008
A014
4008
A014
0008
0054
0028
0050
ENDCHAR
STARTCHAR E047
ENCODING 57415
SWIDTH 765 0
DWIDTH 17 0
BBX 14 17 2 0
BITMAP
AA54
55A8
55A8
AA54
4008
A014
4008
A014
4008
A014
4008
A014
A014
4008
AA54
55A8
AA54
ENDCHAR
STARTCHAR E054
ENCODING 57428
SWIDTH 945 0
DWIDTH 21 0
BBX 19 19 2 0
BITMAP
000160
000080
AA5560
55AA80
55AA80
AA5500
400800
A01400
400800
A01400
400800
A01400
400800
A01400
A01400
400800
AA5400
55A800
AA5400
ENDCHAR
STARTCHAR E05E
ENCODING 57438
SWIDTH 1170 0
DWIDTH 26 0
BBX 23 17 2 0
BITMAP
AA556A
55AA94
55AA94
AA556A
400800
A01400
400800
A01568
400A90
A01568
400800
A01400
A01400
400800
AA556A
55AA94
AA556A
ENDCHAR
STARTCHAR E05F
ENCODING 57439
SWIDTH 675 0
DWIDTH 15 0
BBX 12 17 2 0
BITMAP
AA50
55A0
55A0
AA50
4020
A050
4020
A050
4020
A050
4020
AA50
AA50
55A0
AA50
4000
A000
ENDCHAR
STARTCHAR E060
ENCODING 57440
SWIDTH 675 0
DWIDTH 15 0
BBX 12 17 2 0
BITMAP
A000
4000
4000
AA50
55A0
AA50
4020
A050
4020
A050
4020
AA50
AA50
55A0
AA50
4000
A000
ENDCHAR
STARTCHAR E061
ENCODING 57441
SWIDTH 765 0
DWIDTH 17 0
BBX 14 19 2 -2
BITMAP
AA54
55A8
55A8
AA54
4008
A014
4008
A014
4008
A014
4008
A254
A254
4188
AA54
55A8
AA54
0180
0240
ENDCHAR
STARTCHAR E062
ENCODING 57442
SWIDTH 675 0
DWIDTH 15 0
BBX 12 17 2 0
BITMAP
AA50
55A0
55A0
AA50
4020
A050
4020
A050
4020
A050
4020
AA50
AA50
55A0
AA40
41A0
A050
ENDCHAR
STARTCHAR E066
ENCODING 57446
SWIDTH 675 0
DWIDTH 15 0
BBX 12 17 2 0
BITMAP
AA50
55A0
55A0
AA50
4020
A050
4000
AA40
55A0
2A50
0020
A050
A050
4020
AA50
55A0
AA50
ENDCHAR
STARTCHAR E06C
ENCODING 57452
SWIDTH 765 0
DWIDTH 17 0
BBX 14 17 2 0
BITMAP
A014
4008
4008
A014
4008
A014
4008
A014
4008
A014
4008
A014
A014
4008
AA54
55A8
AA54
ENDCHAR
STARTCHAR E078
ENCODING 57464
SWIDTH 945 0
DWIDTH 21 0
BBX 19 19 2 0
BITMAP
000160
000080
A01560
400A80
400A80
A01500
400800
A01400
400800
A01400
400800
A01400
400800
A01400
A01400
400800
AA5400
55A800
AA5400
ENDCHAR
STARTCHAR E083
ENCODING 57475
SWIDTH 1080 0
DWIDTH 24 0
BBX 21 17 2 0
BITMAP
A05068
402010
402010
A05068
402010
A05068
402010
A05068
402010
A05068
402010
A05068
A05068
402010
AA5568
55AA90
AA5568
ENDCHAR
STARTCHAR E088
ENCODING 57480
SWIDTH 765 0
DWIDTH 17 0
BBX 14 17 2 0
BITMAP
A014
4008
4008
A014
4008
A014
5028
2A50
15A0
2A50
5028
A014
A014
4008
A014
4008
A014
ENDCHAR
STARTCHAR E089
ENCODING 57481
SWIDTH 675 0
DWIDTH 15 0
BBX 12 17 2 0
BITMAP
A050
4020
4020
A050
4020
A050
4020
A050
4020
AA50
55A0
AA50
AA50
0400
0A00
0400
0A00
ENDCHAR
STARTCHAR E091
ENCODING 57489
SWIDTH 675 0
DWIDTH 15 0
BBX 12 17 2 0
BITMAP
AA50
55A0
55A0
AA50
0020
0050
0020
AA50
55A0
AA50
4000
A000
A000
4000
AA50
55A0
AA50
ENDCHAR
STARTCHAR E095
ENCODING 57493
SWIDTH 765 0
DWIDTH 17 0
BBX 14 17 2 0
BITMAP
2A50
55A8
55A8
AA54
4008
A014
0008
2A54
55A8
AA54
4008
A014
A014
4008
AA54
55A8
2A50
ENDCHAR
STARTCHAR E0AC
ENCODING 57516
SWIDTH 1260 0
DWIDTH 28 0
BBX 25 17 2 0
BITMAP
2A556A00
55AA9500
55AA9500
AA556A80
40080100
A0140280
00080100
2A556A80
55AA9500
AA556A80
40080000
A0140000
A0140000
40080000
AA556A80
55AA9500
2A556A80
ENDCHAR
STARTCHAR E0AD
ENCODING 57517
SWIDTH 675 0
DWIDTH 15 0
BBX 12 17 2 0
BITMAP
0A50
15A0
15A0
2A50
5000
A000
4000
A000
4000
A000
4000
A000
A000
5000
2A50
15A0
0A50
ENDCHAR
STARTCHAR E0B2
ENCODING 57522
SWIDTH 765 0
DWIDTH 17 0
BBX 14 17 2 0
BITMAP
0A40
15A0
15A0
2A50
5028
A014
4008
AA54
55A8
AA54
4000
A000
A000
5000
2A54
15A8
0A54
ENDCHAR
STARTCHAR E0C3
ENCODING 57539
SWIDTH 585 0
DWIDTH 13 0
BBX 10 17 2 0
BITMAP
0240
0180
0180
0240
0180
0240
0180
0240
0180
0240
0180
0240
0240
0580
AA00
5400
A800
ENDCHAR
STARTCHAR E0C4
ENCODING 57540
SWIDTH 1260 0
DWIDTH 28 0
BBX 25 17 2 0
BITMAP
0A416800
15A29400
15A29400
2A556A00
502A0500
A0140280
40080100
A0140280
40080100
A0140280
40080100
A0140280
A0140280
40080100
A0140280
40080100
A0140280
ENDCHAR
STARTCHAR E0C5
ENCODING 57541
SWIDTH 765 0
DWIDTH 17 0
BBX 14 17 2 0
BITMAP
0A40
15A0
15A0
2A50
5028
A014
4008
A014
4008
A014
4008
A014
A014
4008
A014
4008
A014
ENDCHAR
STARTCHAR E0C9
ENCODING 57545
SWIDTH 765 0
DWIDTH 17 0
BBX 14 21 2 -4
BITMAP
0A40
15A0
15A0
2A50
5028
A014
4008
A014
4008
A014
4008
A014
A014
4008
A014
4008
A014
0008
0054
0028
0050
ENDCHAR
STARTCHAR E0CB
ENCODING 57547
SWIDTH 1260 0
DWIDTH 28 0
BBX 25 17 2 0
BITMAP
0A416800
15A29400
15A29400
2A556A00
502A0500
A0140280
40080100
A0156A80
400A9500
A0156A80
40080000
A0140000
A0140000
502A0000
2A556A80
15A29500
0A416A80
ENDCHAR
STARTCHAR E0CC
ENCODING 57548
SWIDTH 585 0
DWIDTH 13 0
BBX 10 17 2 0
BITMAP
0A40
1580
1580
2A40
5000
A000
4000
A000
4000
A000
4000
A000
A000
4000
A000
4000
A000
ENDCHAR
STARTCHAR E0D0
ENCODING 57552
SWIDTH 675 0
DWIDTH 15 0
BBX 12 17 2 0
BITMAP
2A50
55A0
55A0
AA50
4000
A000
4000
AA40
55A0
2A50
0020
0050
0050
0020
AA50
55A0
AA40
ENDCHAR
STARTCHAR E0D5
ENCODING 57557
SWIDTH 1260 0
DWIDTH 28 0
BBX 25 17 2 0
BITMAP
A0140280
40080100
40080100
A0140280
40080100
A0140280
40080100
A0140280
40080100
A0140280
40080100
A0140280
A0140280
502A0500
2A556A00
15A29400
0A416800
ENDCHAR
STARTCHAR E0DA
ENCODING 57562
SWIDTH 675 0
DWIDTH 15 0
BBX 12 17 2 0
BITMAP
A050
4020
4020
A050
4020
A050
5020
2A50
15A0
0A50
0020
0050
0050
0020
AA50
55A0
AA40
ENDCHAR
STARTCHAR E0E2
ENCODING 57570
SWIDTH 675 0
DWIDTH 15 0
BBX 12 17 2 0
BITMAP
0250
05A0
05A0
0A50
1420
2850
5020
A050
4020
AA50
55A0
AA50
AA50
4020
A050
4020
A050
ENDCHAR
STARTCHAR E0FA
ENCODING 57594
SWIDTH 675 0
DWIDTH 15 0
BBX 12 17 2 0
BITMAP
AA50
55A0
55A0
AA50
4020
A050
41A0
AA50
55A0
AA50
4020
A050
A050
41A0
AA40
5580
AA00
ENDCHAR
STARTCHAR E0FB
ENCODING 57595
SWIDTH 675 0
DWIDTH 15 0
BBX 12 17 2 0
BITMAP
0250
05A0
05A0
0A50
1400
2800
5000
A000
4000
A000
4000
A000
A000
4000
AA50
55A0
AA50
ENDCHAR
STARTCHAR E100
ENCODING 57600
SWIDTH 765 0
DWIDTH 17 0
BBX 14 17 2 0
BITMAP
AA00
5580
5580
AA40
41A0
A050
4028
A014
4008
A014
4008
A014
A014
4008
AA54
55A8
AA54
ENDCHAR
STARTCHAR E101
ENCODING 57601
SWIDTH 810 0
DWIDTH 18 0
BBX 16 17 1 0
BITMAP
2AC0
1520
1520
2AD0
1028
2814
100A
AA05
5402
AA05
1002
2805
2805
1002
2AD5
152A
2AD5
ENDCHAR
STARTCHAR E103
ENCODING 57603
SWIDTH 810 0
DWIDTH 18 0
BBX 16 17 1 0
BITMAP
2AC0
1520
1520
2AD0
1028
2814
100A
AA05
5402
AA05
1002
2805
2805
1002
2AD5
152A
2AD5
ENDCHAR
STARTCHAR E104
ENCODING 57604
SWIDTH 675 0
DWIDTH 15 0
BBX 12 17 2 0
BITMAP
AA50
55A0
55A0
AA50
4000
A000
4000
AA40
5580
AA40
4000
A000
A000
5000
2A50
15A0
0A50
ENDCHAR
STARTCHAR E115
ENCODING 57621
SWIDTH 765 0
DWIDTH 17 0
BBX 14 17 2 0
BITMAP
0A54
15A8
15A8
2A54
5000
A000
4000
A254
41A8
A254
4008
A014
A014
4008
AA54
55A8
AA54
ENDCHAR
STARTCHAR E119
ENCODING 57625
SWIDTH 675 0
DWIDTH 15 0
BBX 12 17 2 0
BITMAP
A000
4000
4000
A000
4000
A000
4000
A000
4000
A000
4000
A000
A000
5000
2A50
15A0
0A50
ENDCHAR
STARTCHAR E11E
ENCODING 57630
SWIDTH 1080 0
DWIDTH 24 0
BBX 21 17 2 0
BITMAP
A85400
542A00
542A00
AA5500
45A280
A25160
41A090
A05068
402010
A05068
402010
A05068
A05068
402010
A05068
402010
A05068
ENDCHAR
STARTCHAR E11F
ENCODING 57631
SWIDTH 675 0
DWIDTH 15 0
BBX 12 17 2 0
BITMAP
A800
5400
5400
AA00
4580
A240
41A0
A050
4020
A050
4020
A050
A050
4020
A050
4020
A050
ENDCHAR
STARTCHAR E123
ENCODING 57635
SWIDTH 675 0
DWIDTH 15 0
BBX 12 21 2 -4
BITMAP
A800
5400
5400
AA00
4580
A240
41A0
A050
4020
A050
4020
A050
A050
4020
A050
4020
A050
0020
0250
01A0
0240
ENDCHAR
STARTCHAR E125
ENCODING 57637
SWIDTH 765 0
DWIDTH 17 0
BBX 14 17 2 0
BITMAP
AA40
55A0
55A0
AA50
4028
A014
4008
A014
4008
A014
4008
A014
A014
5008
2A54
15A8
0A54
ENDCHAR
STARTCHAR E136
ENCODING 57654
SWIDTH 675 0
DWIDTH 15 0
BBX 12 17 2 0
BITMAP
AA50
55A0
55A0
AA50
4020
A050
4020
A050
4020
A050
41A0
AA40
AA40
5580
AA00
4000
A000
ENDCHAR
STARTCHAR E137
ENCODING 57655
SWIDTH 675 0
DWIDTH 15 0
BBX 12 17 2 0
BITMAP
A000
4000
4000
AA50
55A0
AA50
4020
A050
4020
A050
41A0
AA40
AA40
5580
AA00
4000
A000
ENDCHAR
STARTCHAR E138
ENCODING 57656
SWIDTH 765 0
DWIDTH 17 0
BBX 14 19 2 -2
BITMAP
AA40
55A0
55A0
AA50
4028
A014
4008
A014
4008
A014
4008
A254
A254
5188
2A54
15A8
0A54
0180
0240
ENDCHAR
STARTCHAR E139
ENCODING 57657
SWIDTH 675 0
DWIDTH 15 0
BBX 12 17 2 0
BITMAP
AA50
55A0
55A0
AA50
4020
A050
4020
A050
4020
A050
41A0
AA40
AA40
5580
AA40
41A0
A050
ENDCHAR
STARTCHAR E13D
ENCODING 57661
SWIDTH 675 0
DWIDTH 15 0
BBX 12 17 2 0
BITMAP
0A50
15A0
15A0
2A50
5000
A000
4000
AA50
55A0
AA50
0020
0050
0050
01A0
AA40
5580
AA00
ENDCHAR
STARTCHAR E141
ENCODING 57665
SWIDTH 675 0
DWIDTH 15 0
BBX 12 17 2 0
BITMAP
A050
4020
4020
A050
4020
A050
4020
A050
4020
A050
41A0
A240
A240
4580
AA00
5400
A800
ENDCHAR
STARTCHAR E142
ENCODING 57666
SWIDTH 1080 0
DWIDTH 24 0
BBX 21 17 2 0
BITMAP
A05068
402010
402010
A05068
402010
A05068
402010
A05068
402010
A05068
41A090
A25160
A25160
45A280
AA5500
542A00
A85400
ENDCHAR
STARTCHAR E147
ENCODING 57671
SWIDTH 270 0
DWIDTH 6 0
BBX 3 21 2 0
BITMAP
A0
40
A0
00
A0
40
40
A0
40
A0
40
A0
40
A0
40
A0
A0
40
A0
40
A0
ENDCHAR
STARTCHAR E148
ENCODING 57672
SWIDTH 675 0
DWIDTH 15 0
BBX 12 17 2 0
BITMAP
AA50
55A0
55A0
AA50
0020
0050
0020
AA50
55A0
AA50
4020
A050
A050
4020
AA50
55A0
AA50
ENDCHAR
STARTCHAR E15F
ENCODING 57695
SWIDTH 1080 0
DWIDTH 24 0
BBX 21 17 2 0
BITMAP
AA5568
55AA90
55AA90
AA5568
002010
005068
002010
AA5568
55AA90
AA5568
402000
A05000
A05000
402000
AA5568
55AA90
AA5568
ENDCHAR
STARTCHAR E160
ENCODING 57696
SWIDTH 675 0
DWIDTH 15 0
BBX 12 17 2 0
BITMAP
AA50
55A0
55A0
AA50
4020
A050
41A0
AA40
5580
AA40
41A0
A050
A050
4020
AA50
55A0
AA50
ENDCHAR
STARTCHAR E161
ENCODING 57697
SWIDTH 675 0
DWIDTH 15 0
BBX 12 17 2 0
BITMAP
AA50
55A0
55A0
AA50
4020
A050
4020
A050
4000
A000
4000
A050
A050
4020
AA50
55A0
AA50
ENDCHAR
STARTCHAR E166
ENCODING 57702
SWIDTH 675 0
DWIDTH 15 0
BBX 12 17 2 0
BITMAP
AA50
55A0
55A0
AA50
4020
A050
4020
AA50
55A0
AA50
4000
A000
A000
4000
AA50
55A0
AA50
ENDCHAR
STARTCHAR E177
ENCODING 57719
SWIDTH 675 0
DWIDTH 15 0
BBX 12 17 2 0
BITMAP
AA50
55A0
55A0
AA50
4000
A000
4000
AA40
5580
AA40
4000
A000
A000
4000
A000
4000
A000
ENDCHAR
STARTCHAR E178
ENCODING 57720
SWIDTH 675 0
DWIDTH 15 0
BBX 12 17 2 0
BITMAP
AA50
55A0
55A0
AA50
4000
A000
4000
A250
41A0
A250
4020
A050
A050
4020
AA50
55A0
AA50
ENDCHAR
STARTCHAR E17C
ENCODING 57724
SWIDTH 495 0
DWIDTH 11 0
BBX 7 17 2 0
BITMAP
0A
04
04
0A
04
0A
04
0A
04
0A
04
0A
0A
04
AA
54
AA
ENDCHAR
STARTCHAR E17D
ENCODING 57725
SWIDTH 675 0
DWIDTH 15 0
BBX 12 17 2 0
BITMAP
A050
4020
4020
A050
41A0
A240
4580
AA50
55A0
AA50
4020
A050
A050
4020
A050
4020
A050
ENDCHAR
STARTCHAR E17F
ENCODING 57727
SWIDTH 585 0
DWIDTH 13 0
BBX 10 17 2 0
BITMAP
A000
4000
4000
A000
4000
A000
4000
A000
4000
A000
4000
A000
A000
4000
AA40
5580
AA40
ENDCHAR
STARTCHAR E184
ENCODING 57732
SWIDTH 900 0
DWIDTH 20 0
BBX 16 17 2 0
BITMAP
AA55
55AA
55AA
AA55
4182
A245
4182
A245
4182
A245
4182
A245
A245
4182
A245
4182
A245
ENDCHAR
STARTCHAR E185
ENCODING 57733
SWIDTH 675 0
DWIDTH 15 0
BBX 12 17 2 0
BITMAP
AA50
55A0
55A0
AA50
4020
A050
4020
A050
4020
A050
4020
A050
A050
4020
A050
4020
A050
ENDCHAR
STARTCHAR E189
ENCODING 57737
SWIDTH 675 0
DWIDTH 15 0
BBX 12 21 2 -4
BITMAP
AA50
55A0
55A0
AA50
4020
A050
4020
A050
4020
A050
4020
A050
A050
4020
A050
4020
A050
0020
0250
01A0
0240
ENDCHAR
STARTCHAR E18B
ENCODING 57739
SWIDTH 675 0
DWIDTH 15 0
BBX 12 17 2 0
BITMAP
AA50
55A0
55A0
AA50
4020
A050
4020
A050
4020
A050
4020
A050
A050
4020
AA50
55A0
AA50
ENDCHAR
STARTCHAR E198
ENCODING 57752
SWIDTH 810 0
DWIDTH 18 0
BBX 16 19 2 0
BITMAP
0005
0002
AA55
55AA
55AA
AA54
4020
A050
4020
A050
4020
A050
4020
A050
A050
4020
AA50
55A0
AA50
ENDCHAR
STARTCHAR E1A2
ENCODING 57762
SWIDTH 1080 0
DWIDTH 24 0
BBX 21 17 2 0
BITMAP
AA5568
55AA90
55AA90
AA5568
402010
A05068
402010
A05568
402A90
A05568
402000
A05000
A05000
402000
AA5568
55AA90
AA5568
ENDCHAR
STARTCHAR E1A3
ENCODING 57763
SWIDTH 675 0
DWIDTH 15 0
BBX 12 17 2 0
BITMAP
AA50
55A0
55A0
AA50
4020
A050
4020
A050
4020
AA50
55A0
AA50
AA50
4000
A000
4000
A000
ENDCHAR
STARTCHAR E1A4
ENCODING 57764
SWIDTH 675 0
DWIDTH 15 0
BBX 12 17 2 0
BITMAP
A000
4000
4000
AA50
55A0
AA50
4020
A050
4020
A050
4020
AA50
AA50
55A0
AA50
4000
A000
ENDCHAR
STARTCHAR E1A5
ENCODING 57765
SWIDTH 675 0
DWIDTH 15 0
BBX 12 19 2 -2
BITMAP
AA50
55A0
55A0
AA50
4020
A050
4020
A050
4020
A050
4020
AA50
AA50
4420
AA50
55A0
AA50
0400
0A00
ENDCHAR
STARTCHAR E1A6
ENCODING 57766
SWIDTH 675 0
DWIDTH 15 0
BBX 12 17 2 0
BITMAP
AA50
55A0
55A0
AA50
4020
A050
4020
A050
4020
AA50
55A0
AA40
AA40
41A0
A050
4020
A050
ENDCHAR
STARTCHAR E1AA
ENCODING 57770
SWIDTH 675 0
DWIDTH 15 0
BBX 12 17 2 0
BITMAP
AA50
55A0
55A0
AA50
4000
A000
4000
AA50
55A0
AA50
0020
0050
0050
0020
AA50
55A0
AA50
ENDCHAR
STARTCHAR E1B0
ENCODING 57776
SWIDTH 675 0
DWIDTH 15 0
BBX 12 17 2 0
BITMAP
A050
4020
4020
A050
4020
A050
4020
A050
4020
A050
4020
A050
A050
4020
AA50
55A0
AA50
ENDCHAR
STARTCHAR E1BC
ENCODING 57788
SWIDTH 810 0
DWIDTH 18 0
BBX 16 19 2 0
BITMAP
0005
0002
A055
402A
402A
A054
4020
A050
4020
A050
4020
A050
4020
A050
A050
4020
AA50
55A0
AA50
ENDCHAR
STARTCHAR E1C7
ENCODING 57799
SWIDTH 900 0
DWIDTH 20 0
BBX 16 17 2 0
BITMAP
A245
4182
4182
A245
4182
A245
4182
A245
4182
A245
4182
A245
A245
4182
AA55
55AA
AA55
ENDCHAR
STARTCHAR E1CC
ENCODING 57804
SWIDTH 675 0
DWIDTH 15 0
BBX 12 17 2 0
BITMAP
A050
4020
4020
A050
4020
A050
4020
AA50
55A0
AA50
0020
0050
0050
0020
AA50
55A0
AA50
ENDCHAR
STARTCHAR E1D4
ENCODING 57812
SWIDTH 675 0
DWIDTH 15 0
BBX 12 17 2 0
BITMAP
AA50
55A0
55A0
AA50
0020
0050
0020
AA50
55A0
AA50
4000
A000
A000
4000
AA50
55A0
AA50
ENDCHAR
STARTCHAR E1D8
ENCODING 57816
SWIDTH 675 0
DWIDTH 15 0
BBX 12 17 2 0
BITMAP
AA40
55A0
55A0
AA50
0020
0050
0020
2A50
55A0
AA50
4020
A050
A050
4020
AA50
55A0
2A40
ENDCHAR
STARTCHAR E1EF
ENCODING 57839
SWIDTH 1080 0
DWIDTH 24 0
BBX 21 17 2 0
BITMAP
AA5560
55AA90
55AA90
AA5568
002010
005068
002010
2A5568
55AA90
AA5568
402000
A05000
A05000
402000
AA5568
55AA90
2A5568
ENDCHAR
STARTCHAR E1F0
ENCODING 57840
SWIDTH 675 0
DWIDTH 15 0
BBX 12 17 2 0
BITMAP
2A50
55A0
55A0
AA50
4000
A000
4000
A000
4000
A000
4000
A000
A000
4000
AA50
55A0
2A50
ENDCHAR
STARTCHAR E1F5
ENCODING 57845
SWIDTH 675 0
DWIDTH 15 0
BBX 12 17 2 0
BITMAP
2A40
55A0
55A0
AA50
4020
A050
4020
AA50
55A0
AA50
4000
A000
A000
4000
AA50
55A0
2A50
ENDCHAR
STARTCHAR E206
ENCODING 57862
SWIDTH 675 0
DWIDTH 15 0
BBX 12 17 2 0
BITMAP
2A40
55A0
55A0
AA50
4020
A050
4000
AA00
5400
AA00
4000
A000
A000
4000
A000
4000
A000
ENDCHAR
STARTCHAR E207
ENCODING 57863
SWIDTH 675 0
DWIDTH 15 0
BBX 12 17 2 0
BITMAP
2A50
55A0
55A0
AA50
4020
A050
4020
AA50
55A0
2A50
0020
0050
0050
0020
AA50
55A0
AA40
ENDCHAR
STARTCHAR E20B
ENCODING 57867
SWIDTH 585 0
DWIDTH 13 0
BBX 10 17 2 0
BITMAP
0240
0180
0180
0240
0180
0240
0180
0240
0180
0240
0180
A240
A240
4180
AA40
5580
2A00
ENDCHAR
STARTCHAR E20C
ENCODING 57868
SWIDTH 1080 0
DWIDTH 24 0
BBX 21 17 2 0
BITMAP
2A5560
55AA90
55AA90
AA5568
402010
A05068
402010
A05068
402010
A05068
402010
A05068
A05068
402010
A05068
402010
A05068
ENDCHAR
STARTCHAR E20D
ENCODING 57869
SWIDTH 675 0
DWIDTH 15 0
BBX 12 17 2 0
BITMAP
2A40
55A0
55A0
AA50
4020
A050
4020
A050
4020
A050
4020
A050
A050
4020
A050
4020
A050
ENDCHAR
STARTCHAR E211
ENCODING 57873
SWIDTH 675 0
DWIDTH 15 0
BBX 12 21 2 -4
BITMAP
2A40
55A0
55A0
AA50
4020
A050
4020
A050
4020
A050
4020
A050
A050
4020
A050
4020
A050
0020
0250
01A0
0240
ENDCHAR
STARTCHAR E213
ENCODING 57875
SWIDTH 1080 0
DWIDTH 24 0
BBX 21 17 2 0
BITMAP
2A5560
55AA90
55AA90
AA5568
402010
A05068
402010
A05568
402A90
A05568
402000
A05000
A05000
402000
AA5568
55AA90
2A5568
ENDCHAR
STARTCHAR E214
ENCODING 57876
SWIDTH 585 0
DWIDTH 13 0
BBX 10 17 2 0
BITMAP
2A40
5580
5580
AA40
4000
A000
4000
A000
4000
A000
4000
A000
A000
4000
A000
4000
A000
ENDCHAR
STARTCHAR E218
ENCODING 57880
SWIDTH 675 0
DWIDTH 15 0
BBX 12 17 2 0
BITMAP
2A50
55A0
55A0
AA50
4000
A000
4000
AA40
55A0
2A50
0020
0050
0050
0020
AA50
55A0
AA40
ENDCHAR
STARTCHAR E21D
ENCODING 57885
SWIDTH 1080 0
DWIDTH 24 0
BBX 21 17 2 0
BITMAP
A05068
402010
402010
A05068
402010
A05068
402010
A05068
402010
A05068
402010
A05068
A05068
402010
AA5568
55AA90
2A5560
ENDCHAR
STARTCHAR E222
ENCODING 57890
SWIDTH 675 0
DWIDTH 15 0
BBX 12 17 2 0
BITMAP
A050
4020
4020
A050
4020
A050
4020
AA50
55A0
2A50
0020
0050
0050
0020
AA50
55A0
AA40
ENDCHAR
STARTCHAR E22A
ENCODING 57898
SWIDTH 675 0
DWIDTH 15 0
BBX 12 17 2 0
BITMAP
A800
5400
5400
AA00
4580
A240
41A0
A050
4020
AA50
55A0
AA50
AA50
4020
A050
4020
A050
ENDCHAR
STARTCHAR E242
ENCODING 57922
SWIDTH 675 0
DWIDTH 15 0
BBX 12 17 2 0
BITMAP
AA50
55A0
55A0
AA50
4020
A050
41A0
AA50
55A0
AA50
4020
A050
A050
41A0
AA40
5580
AA00
ENDCHAR
STARTCHAR E243
ENCODING 57923
SWIDTH 675 0
DWIDTH 15 0
BBX 12 17 2 0
BITMAP
AA50
55A0
55A0
AA50
4000
A000
4000
A000
4000
A000
5000
2800
2800
1400
0A50
05A0
0250
ENDCHAR
STARTCHAR E248
ENCODING 57928
SWIDTH 765 0
DWIDTH 17 0
BBX 14 17 2 0
BITMAP
AA54
55A8
55A8
AA54
4008
A014
4008
A014
4008
A014
4028
A050
A050
41A0
AA40
5580
AA00
ENDCHAR
STARTCHAR E249
ENCODING 57929
SWIDTH 810 0
DWIDTH 18 0
BBX 16 17 1 0
BITMAP
2AD5
152A
152A
2AD5
1002
2805
1002
AA05
5402
AA05
100A
2814
2814
1028
2AD0
1520
2AC0
ENDCHAR
STARTCHAR E24B
ENCODING 57931
SWIDTH 810 0
DWIDTH 18 0
BBX 16 17 1 0
BITMAP
2AD5
152A
152A
2AD5
1002
2805
1002
AA05
5402
AA05
100A
2814
2814
1028
2AD0
1520
2AC0
ENDCHAR
STARTCHAR E24C
ENCODING 57932
SWIDTH 675 0
DWIDTH 15 0
BBX 12 17 2 0
BITMAP
0A50
15A0
15A0
2A50
5000
A000
4000
AA40
5580
AA40
4000
A000
A000
4000
AA50
55A0
AA50
ENDCHAR
STARTCHAR E25D
ENCODING 57949
SWIDTH 765 0
DWIDTH 17 0
BBX 14 17 2 0
BITMAP
AA54
55A8
55A8
AA54
4000
A000
4000
A254
41A8
A254
4008
A014
A014
5008
2A54
15A8
0A54
ENDCHAR
STARTCHAR E261
ENCODING 57953
SWIDTH 585 0
DWIDTH 13 0
BBX 10 17 2 0
BITMAP
AA40
5580
5580
AA40
0180
0240
0180
0240
0180
0240
0180
A240
A240
4580
AA00
5400
A800
ENDCHAR
STARTCHAR E262
ENCODING 57954
SWIDTH 585 0
DWIDTH 13 0
BBX 10 17 2 0
BITMAP
A000
4000
4000
A000
4000
A000
4000
A000
4000
A000
4000
A000
A000
5000
2A40
1580
0A40
ENDCHAR
STARTCHAR E267
ENCODING 57959
SWIDTH 1080 0
DWIDTH 24 0
BBX 21 17 2 0
BITMAP
025168
05A290
05A290
0A5568
142A10
285468
502810
A05068
402010
A05068
402010
A05068
A05068
402010
A05068
402010
A05068
ENDCHAR
STARTCHAR E268
ENCODING 57960
SWIDTH 675 0
DWIDTH 15 0
BBX 12 17 2 0
BITMAP
0250
05A0
05A0
0A50
1420
2850
5020
A050
4020
A050
4020
A050
A050
4020
A050
4020
A050
ENDCHAR
STARTCHAR E26C
ENCODING 57964
SWIDTH 675 0
DWIDTH 15 0
BBX 12 21 2 -4
BITMAP
0250
05A0
05A0
0A50
1420
2850
5020
A050
4020
A050
4020
A050
A050
4020
A050
4020
A050
0020
0250
01A0
0240
ENDCHAR
STARTCHAR E26E
ENCODING 57966
SWIDTH 765 0
DWIDTH 17 0
BBX 14 17 2 0
BITMAP
0A54
15A8
15A8
2A54
5008
A014
4008
A014
4008
A014
4008
A014
A014
4028
AA50
55A0
AA40
ENDCHAR
STARTCHAR E27F
ENCODING 57983
SWIDTH 675 0
DWIDTH 15 0
BBX 12 17 2 0
BITMAP
AA50
55A0
55A0
AA50
4020
A050
4020
A050
41A0
AA40
5580
AA00
AA00
4000
A000
4000
A000
ENDCHAR
STARTCHAR E280
ENCODING 57984
SWIDTH 675 0
DWIDTH 15 0
BBX 12 17 2 0
BITMAP
A000
4000
4000
AA50
55A0
AA50
4020
A050
4020
A050
41A0
AA40
AA40
5580
AA00
4000
A000
ENDCHAR
STARTCHAR E281
ENCODING 57985
SWIDTH 765 0
DWIDTH 17 0
BBX 14 19 2 -2
BITMAP
0A54
15A8
15A8
2A54
5008
A014
4008
A014
4008
A014
4008
AA14
AA14
4428
AA50
55A0
AA40
0400
0A00
ENDCHAR
STARTCHAR E282
ENCODING 57986
SWIDTH 675 0
DWIDTH 15 0
BBX 12 17 2 0
BITMAP
AA50
55A0
55A0
AA50
4020
A050
4020
A050
41A0
AA40
5580
AA40
AA40
41A0
A050
4020
A050
ENDCHAR
STARTCHAR E286
ENCODING 57990
SWIDTH 675 0
DWIDTH 15 0
BBX 12 17 2 0
BITMAP
0A50
15A0
15A0
2A50
5000
A000
4000
AA50
55A0
AA50
0020
0050
0050
01A0
AA40
5580
AA00
ENDCHAR
STARTCHAR E28A
ENCODING 57994
SWIDTH 675 0
DWIDTH 15 0
BBX 12 17 2 0
BITMAP
A050
4020
4020
A050
4020
A050
4020
A050
4020
A050
5020
2850
2850
1420
0A50
05A0
0250
ENDCHAR
STARTCHAR E28B
ENCODING 57995
SWIDTH 1080 0
DWIDTH 24 0
BBX 21 17 2 0
BITMAP
A05068
402010
402010
A05068
402010
A05068
402010
A05068
402010
A05068
502810
285468
285468
142A10
0A5568
05A290
025168
ENDCHAR
STARTCHAR E290
ENCODING 58000
SWIDTH 675 0
DWIDTH 15 0
BBX 12 17 2 0
BITMAP
A050
4020
4020
A050
4020
A050
4020
A050
5020
2A50
15A0
0A50
0A50
0020
0050
0020
0050
ENDCHAR
STARTCHAR E298
ENCODING 58008
SWIDTH 675 0
DWIDTH 15 0
BBX 12 17 2 0
BITMAP
AA50
55A0
55A0
AA50
01A0
0240
0580
0A00
1400
2800
5000
A000
A000
4000
AA50
55A0
AA50
ENDCHAR
STARTCHAR E29C
ENCODING 58012
SWIDTH 765 0
DWIDTH 17 0
BBX 14 17 2 0
BITMAP
AA40
55A0
55A0
AA50
4028
A000
4000
A254
41A8
A254
4008
A014
A014
4028
AA50
55A0
AA40
ENDCHAR
STARTCHAR E29D
ENCODING 58013
SWIDTH 675 0
DWIDTH 15 0
BBX 12 17 2 0
BITMAP
AA50
55A0
55A0
AA50
4020
A050
4020
A050
4020
AA50
55A0
AA50
AA50
4020
A050
4020
A050
ENDCHAR
STARTCHAR E29E
ENCODING 58014
SWIDTH 675 0
DWIDTH 15 0
BBX 12 17 2 0
BITMAP
AA50
55A0
55A0
AA50
4000
A000
4000
AA40
55A0
AA50
4020
A050
A050
4020
AA50
55A0
AA40
ENDCHAR
STARTCHAR E29F
ENCODING 58015
SWIDTH 675 0
DWIDTH 15 0
BBX 12 17 2 0
BITMAP
AA50
55A0
55A0
AA50
4020
A050
41A0
AA40
5580
AA40
41A0
A050
A050
4020
AA50
55A0
AA50
ENDCHAR
STARTCHAR E2A0
ENCODING 58016
SWIDTH 675 0
DWIDTH 15 0
BBX 12 17 2 0
BITMAP
AA50
55A0
55A0
AA50
4000
A000
4000
A000
4000
A000
4000
A000
A000
4000
A000
4000
A000
ENDCHAR
STARTCHAR E2A2
ENCODING 58018
SWIDTH 675 0
DWIDTH 15 0
BBX 12 17 2 0
BITMAP
AA50
55A0
55A0
AA50
4000
A000
4000
AA40
5580
AA40
4000
A000
A000
4000
AA50
55A0
AA50
ENDCHAR
STARTCHAR E2A4
ENCODING 58020
SWIDTH 1080 0
DWIDTH 24 0
BBX 21 17 2 0
BITMAP
A05068
402010
402010
A05068
502090
285160
142280
AA5568
55AA90
AA5568
402010
A05068
A05068
402010
A05068
402010
A05068
ENDCHAR
STARTCHAR E2A5
ENCODING 58021
SWIDTH 765 0
DWIDTH 17 0
BBX 14 17 2 0
BITMAP
AA54
55A8
55A8
AA54
4008
A014
0028
0A50
05A0
0A50
0028
A014
A014
4008
AA54
55A8
AA54
ENDCHAR
STARTCHAR E2A6
ENCODING 58022
SWIDTH 675 0
DWIDTH 15 0
BBX 12 17 2 0
BITMAP
A050
4020
4020
A050
41A0
A240
4580
AA50
55A0
AA50
4020
A050
A050
4020
A050
4020
A050
ENDCHAR
STARTCHAR E2A8
ENCODING 58024
SWIDTH 1080 0
DWIDTH 24 0
BBX 21 17 2 0
BITMAP
AA5568
55AA90
55AA90
AA5568
402010
A05068
402010
A05068
402010
A05068
402010
A05068
A05068
402010
A05068
402010
A05068
ENDCHAR
STARTCHAR E2A9
ENCODING 58025
SWIDTH 765 0
DWIDTH 17 0
BBX 14 17 2 0
BITMAP
AA54
55A8
55A8
AA54
4008
A014
4008
A014
4008
A014
4008
A014
A014
4008
AA54
55A8
AA54
ENDCHAR
STARTCHAR E2AA
ENCODING 58026
SWIDTH 765 0
DWIDTH 17 0
BBX 14 17 2 0
BITMAP
AA54
55A8
55A8
AA54
4008
A014
4008
A014
4008
A014
4008
A014
A014
4008
A014
4008
A014
ENDCHAR
STARTCHAR E2AB
ENCODING 58027
SWIDTH 675 0
DWIDTH 15 0
BBX 12 17 2 0
BITMAP
AA50
55A0
55A0
AA50
4020
A050
4020
A050
4020
A050
4020
AA50
AA50
55A0
AA50
4000
A000
ENDCHAR
STARTCHAR E2AC
ENCODING 58028
SWIDTH 765 0
DWIDTH 17 0
BBX 14 17 2 0
BITMAP
AA54
55A8
55A8
AA54
4008
A014
4008
A014
4000
A000
4000
A014
A014
4008
AA54
55A8
AA54
ENDCHAR
STARTCHAR E2AD
ENCODING 58029
SWIDTH 675 0
DWIDTH 15 0
BBX 12 17 2 0
BITMAP
A050
4020
4020
A050
4020
A050
4020
AA50
55A0
AA50
0020
0050
0050
0020
AA50
55A0
AA50
ENDCHAR
STARTCHAR E2AE
ENCODING 58030
SWIDTH 900 0
DWIDTH 20 0
BBX 16 21 2 -2
BITMAP
0240
0180
AA55
55AA
55AA
AA55
4182
A245
4182
A245
4182
A245
4182
A245
A245
4182
AA55
55AA
AA55
0180
0240
ENDCHAR
STARTCHAR E2AF
ENCODING 58031
SWIDTH 765 0
DWIDTH 17 0
BBX 14 17 2 0
BITMAP
A014
4008
4008
A014
4008
A014
5028
2A50
15A0
2A50
5028
A014
A014
4008
A014
4008
A014
ENDCHAR
STARTCHAR E2B0
ENCODING 58032
SWIDTH 675 0
DWIDTH 15 0
BBX 12 17 2 0
BITMAP
A050
4020
4020
A050
4020
A050
4020
AA50
55A0
AA50
0020
0050
0050
0020
0050
0020
0050
ENDCHAR
STARTCHAR E2B1
ENCODING 58033
SWIDTH 810 0
DWIDTH 18 0
BBX 16 19 2 -2
BITMAP
A014
4008
4008
A014
4008
A014
4008
A014
4008
A014
4008
A014
A014
4008
AA54
55AA
AA55
0002
0005
ENDCHAR
STARTCHAR E2B2
ENCODING 58034
SWIDTH 1080 0
DWIDTH 24 0
BBX 21 17 2 0
BITMAP
A05068
402010
402010
A05068
402010
A05068
402010
A05068
402010
A05068
402010
A05068
A05068
402010
AA5568
55AA90
AA5568
ENDCHAR
STARTCHAR E2B3
ENCODING 58035
SWIDTH 1125 0
DWIDTH 25 0
BBX 23 19 2 -2
BITMAP
A05068
402010
402010
A05068
402010
A05068
402010
A05068
402010
A05068
402010
A05068
A05068
402010
AA5568
55AA94
AA556A
000004
00000A
ENDCHAR
STARTCHAR E2B4
ENCODING 58036
SWIDTH 675 0
DWIDTH 15 0
BBX 12 17 2 0
BITMAP
A000
4000
4000
A000
4000
A000
4000
AA50
55A0
AA50
4020
A050
A050
4020
AA50
55A0
AA50
ENDCHAR
STARTCHAR E2B5
ENCODING 58037
SWIDTH 765 0
DWIDTH 17 0
BBX 14 17 2 0
BITMAP
A800
5000
5000
A800
1000
2800
1000
2A54
15A8
2A54
1008
2814
2814
1008
2A54
15A8
2A54
ENDCHAR
STARTCHAR E2B6
ENCODING 58038
SWIDTH 945 0
DWIDTH 21 0
BBX 17 17 2 0
BITMAP
A00280
400100
400100
A00280
400100
A00280
400100
AA5280
55A100
AA5280
402100
A05280
A05280
402100
AA5280
55A100
AA5280
ENDCHAR
STARTCHAR E2B7
ENCODING 58039
SWIDTH 765 0
DWIDTH 17 0
BBX 14 17 2 0
BITMAP
AA54
55A8
55A8
AA54
4008
A014
0008
0A54
05A8
0A54
0008
A014
A014
4008
AA54
55A8
AA54
ENDCHAR
STARTCHAR E2B8
ENCODING 58040
SWIDTH 1080 0
DWIDTH 24 0
BBX 21 17 2 0
BITMAP
A25568
41AA90
41AA90
A25568
418010
A24068
418010
AA4068
558010
AA4068
418010
A24068
A24068
418010
A25568
41AA90
A25568
ENDCHAR
STARTCHAR E2B9
ENCODING 58041
SWIDTH 675 0
DWIDTH 15 0
BBX 12 17 2 0
BITMAP
AA50
55A0
55A0
AA50
4020
A050
4020
A050
4020
A050
4020
AA50
AA50
55A0
2A50
5020
A050
ENDCHAR
STARTCHAR E2BE
ENCODING 58046
SWIDTH 675 0
DWIDTH 15 0
BBX 12 17 2 0
BITMAP
0250
05A0
05A0
0A50
1420
2850
5020
A050
4020
AA50
55A0
AA50
AA50
4020
A050
4020
A050
ENDCHAR
STARTCHAR E2BF
ENCODING 58047
SWIDTH 675 0
DWIDTH 15 0
BBX 12 17 2 0
BITMAP
AA50
55A0
55A0
AA50
4000
A000
4000
AA50
55A0
AA50
4020
A050
A050
41A0
AA40
5580
AA00
ENDCHAR
STARTCHAR E2C0
ENCODING 58048
SWIDTH 675 0
DWIDTH 15 0
BBX 12 17 2 0
BITMAP
AA50
55A0
55A0
AA50
4020
A050
41A0
AA50
55A0
AA50
4020
A050
A050
41A0
AA40
5580
AA00
ENDCHAR
STARTCHAR E2C1
ENCODING 58049
SWIDTH 675 0
DWIDTH 15 0
BBX 12 17 2 0
BITMAP
0A50
15A0
15A0
2A50
5000
A000
4000
A000
4000
A000
4000
A000
A000
4000
A000
4000
A000
ENDCHAR
STARTCHAR E2C2
ENCODING 58050
SWIDTH 675 0
DWIDTH 15 0
BBX 12 17 2 0
BITMAP
AA50
55A0
55A0
AA50
4000
A000
4000
AA40
5580
AA40
4000
A000
A000
5000
2A50
15A0
0A50
ENDCHAR
STARTCHAR E2C5
ENCODING 58053
SWIDTH 765 0
DWIDTH 17 0
BBX 14 17 2 0
BITMAP
2A54
15A8
15A8
2A54
1008
2814
1008
2814
1008
2814
1008
2814
2814
1008
A814
5008
A014
ENDCHAR
STARTCHAR E2C6
ENCODING 58054
SWIDTH 1080 0
DWIDTH 24 0
BBX 21 17 2 0
BITMAP
A85400
542A00
542A00
AA5500
45A280
A25160
41A090
A05068
402010
A05068
402010
A05068
A05068
402010
A05068
402010
A05068
ENDCHAR
STARTCHAR E2C7
ENCODING 58055
SWIDTH 765 0
DWIDTH 17 0
BBX 14 17 2 0
BITMAP
AA40
55A0
55A0
AA50
4028
A014
4008
A014
4008
A014
4008
A014
A014
5008
2A54
15A8
0A54
ENDCHAR
STARTCHAR E2C8
ENCODING 58056
SWIDTH 675 0
DWIDTH 15 0
BBX 12 17 2 0
BITMAP
AA50
55A0
55A0
AA50
4020
A050
4020
A050
4020
A050
41A0
AA40
AA40
5580
AA00
4000
A000
ENDCHAR
STARTCHAR E2C9
ENCODING 58057
SWIDTH 675 0
DWIDTH 15 0
BBX 12 17 2 0
BITMAP
0250
05A0
05A0
0A50
1400
2800
5000
A000
4000
A000
4000
A000
A000
4000
AA50
55A0
AA50
ENDCHAR
STARTCHAR E2CA
ENCODING 58058
SWIDTH 900 0
DWIDTH 20 0
BBX 16 21 2 -2
BITMAP
0240
0180
AA50
55A8
55A8
AA54
418A
A245
4182
A245
4182
A245
4182
A245
A245
5182
2A55
15AA
0A55
0180
0240
ENDCHAR
STARTCHAR E2CB
ENCODING 58059
SWIDTH 675 0
DWIDTH 15 0
BBX 12 17 2 0
BITMAP
A000
4000
4000
A000
4000
A000
4000
AA50
55A0
AA50
4020
A050
A050
41A0
AA40
5580
AA00
ENDCHAR
STARTCHAR E2CC
ENCODING 58060
SWIDTH 765 0
DWIDTH 17 0
BBX 14 17 2 0
BITMAP
A800
5000
5000
A800
1000
2800
1000
2A54
15A8
2A54
1008
2814
2814
1028
2A50
15A0
2A40
ENDCHAR
STARTCHAR E2CD
ENCODING 58061
SWIDTH 945 0
DWIDTH 21 0
BBX 17 17 2 0
BITMAP
A00280
400100
400100
A00280
400100
A00280
400100
AA5280
55A100
AA5280
402100
A05280
A05280
41A100
AA4280
558100
AA0280
ENDCHAR
STARTCHAR E2CF
ENCODING 58063
SWIDTH 1080 0
DWIDTH 24 0
BBX 21 17 2 0
BITMAP
A25500
41AA80
41AA80
A25560
418090
A24068
418010
AA4068
558010
AA4068
418010
A24068
A24068
41A010
A05568
402A90
A01568
ENDCHAR
STARTCHAR E2D0
ENCODING 58064
SWIDTH 675 0
DWIDTH 15 0
BBX 12 17 2 0
BITMAP
AA50
55A0
55A0
AA50
4020
A050
4020
A050
4020
A050
5020
2A50
2A50
15A0
2A50
5020
A050
ENDCHAR
STARTCHAR E2D1
ENCODING 58065
SWIDTH 675 0
DWIDTH 15 0
BBX 12 17 2 0
BITMAP
AA50
55A0
55A0
AA50
0020
0050
0020
AA50
55A0
AA50
4020
A050
A050
4020
AA50
55A0
AA50
ENDCHAR
STARTCHAR E2D2
ENCODING 58066
SWIDTH 675 0
DWIDTH 15 0
BBX 12 17 2 0
BITMAP
AA50
55A0
55A0
AA50
4000
A000
4000
AA40
55A0
AA50
4020
A050
A050
4020
AA50
55A0
AA40
ENDCHAR
STARTCHAR E2D3
ENCODING 58067
SWIDTH 675 0
DWIDTH 15 0
BBX 12 17 2 0
BITMAP
AA50
55A0
55A0
AA50
4020
A050
41A0
AA40
5580
AA40
41A0
A050
A050
4020
AA50
55A0
AA50
ENDCHAR
STARTCHAR E2D4
ENCODING 58068
SWIDTH 585 0
DWIDTH 13 0
BBX 10 17 2 0
BITMAP
AA40
5580
5580
AA40
4000
A000
4000
A000
4000
A000
4000
A000
A000
4000
A000
4000
A000
ENDCHAR
STARTCHAR E2D6
ENCODING 58070
SWIDTH 675 0
DWIDTH 15 0
BBX 12 17 2 0
BITMAP
AA50
55A0
55A0
AA50
4020
A050
4020
AA50
55A0
AA50
4000
A000
A000
4000
AA50
55A0
AA50
ENDCHAR
STARTCHAR E2D8
ENCODING 58072
SWIDTH 1080 0
DWIDTH 24 0
BBX 21 17 2 0
BITMAP
A05068
402010
402010
A05068
502090
285160
142280
AA5568
55AA90
AA5568
402010
A05068
A05068
402010
A05068
402010
A05068
ENDCHAR
STARTCHAR E2D9
ENCODING 58073
SWIDTH 675 0
DWIDTH 15 0
BBX 12 17 2 0
BITMAP
AA50
55A0
55A0
AA50
4020
A050
01A0
0A40
0580
0A40
01A0
A050
A050
4020
AA50
55A0
AA50
ENDCHAR
STARTCHAR E2DA
ENCODING 58074
SWIDTH 675 0
DWIDTH 15 0
BBX 12 17 2 0
BITMAP
A050
4020
4020
A050
41A0
A240
4580
AA50
55A0
AA50
4020
A050
A050
4020
A050
4020
A050
ENDCHAR
STARTCHAR E2DC
ENCODING 58076
SWIDTH 900 0
DWIDTH 20 0
BBX 16 17 2 0
BITMAP
AA55
55AA
55AA
AA55
4182
A245
4182
A245
4182
A245
4182
A245
A245
4182
A245
4182
A245
ENDCHAR
STARTCHAR E2DD
ENCODING 58077
SWIDTH 675 0
DWIDTH 15 0
BBX 12 17 2 0
BITMAP
AA50
55A0
55A0
AA50
4020
A050
4020
A050
4020
A050
4020
A050
A050
4020
AA50
55A0
AA50
ENDCHAR
STARTCHAR E2DE
ENCODING 58078
SWIDTH 675 0
DWIDTH 15 0
BBX 12 17 2 0
BITMAP
AA50
55A0
55A0
AA50
4020
A050
4020
A050
4020
A050
4020
A050
A050
4020
A050
4020
A050
ENDCHAR
STARTCHAR E2DF
ENCODING 58079
SWIDTH 675 0
DWIDTH 15 0
BBX 12 17 2 0
BITMAP
AA50
55A0
55A0
AA50
4020
A050
4020
A050
4020
AA50
55A0
AA50
AA50
4000
A000
4000
A000
ENDCHAR
STARTCHAR E2E0
ENCODING 58080
SWIDTH 675 0
DWIDTH 15 0
BBX 12 17 2 0
BITMAP
AA50
55A0
55A0
AA50
4020
A050
4020
A050
4000
A000
4000
A050
A050
4020
AA50
55A0
AA50
ENDCHAR
STARTCHAR E2E1
ENCODING 58081
SWIDTH 675 0
DWIDTH 15 0
BBX 12 17 2 0
BITMAP
A050
4020
4020
A050
4020
A050
4020
AA50
55A0
AA50
0020
0050
0050
0020
AA50
55A0
AA50
ENDCHAR
STARTCHAR E2E2
ENCODING 58082
SWIDTH 900 0
DWIDTH 20 0
BBX 16 21 2 -2
BITMAP
0240
0180
AA55
55AA
55AA
AA55
4182
A245
4182
A245
4182
A245
4182
A245
A245
4182
AA55
55AA
AA55
0180
0240
ENDCHAR
STARTCHAR E2E3
ENCODING 58083
SWIDTH 675 0
DWIDTH 15 0
BBX 12 17 2 0
BITMAP
A050
4020
4020
A050
4020
A050
4020
AA50
55A0
AA50
0020
0050
0050
0020
0050
0020
0050
ENDCHAR
STARTCHAR E2E4
ENCODING 58084
SWIDTH 720 0
DWIDTH 16 0
BBX 14 19 2 -2
BITMAP
A050
4020
4020
A050
4020
A050
4020
A050
4020
A050
4020
A050
A050
4020
AA50
55A8
AA54
0008
0014
ENDCHAR
STARTCHAR E2E5
ENCODING 58085
SWIDTH 900 0
DWIDTH 20 0
BBX 16 17 2 0
BITMAP
A245
4182
4182
A245
4182
A245
4182
A245
4182
A245
4182
A245
A245
4182
AA55
55AA
AA55
ENDCHAR
STARTCHAR E2E6
ENCODING 58086
SWIDTH 945 0
DWIDTH 21 0
BBX 19 19 2 -2
BITMAP
A24500
418200
418200
A24500
418200
A24500
418200
A24500
418200
A24500
418200
A24500
A24500
418200
AA5500
55AA80
AA5560
000080
000160
ENDCHAR
STARTCHAR E2E7
ENCODING 58087
SWIDTH 675 0
DWIDTH 15 0
BBX 12 17 2 0
BITMAP
A000
4000
4000
A000
4000
A000
4000
AA50
55A0
AA50
4020
A050
A050
4020
AA50
55A0
AA50
ENDCHAR
STARTCHAR E2E8
ENCODING 58088
SWIDTH 765 0
DWIDTH 17 0
BBX 14 17 2 0
BITMAP
A800
5000
5000
A800
1000
2800
1000
2A54
15A8
2A54
1008
2814
2814
1008
2A54
15A8
2A54
ENDCHAR
STARTCHAR E2E9
ENCODING 58089
SWIDTH 945 0
DWIDTH 21 0
BBX 17 17 2 0
BITMAP
A00280
400100
400100
A00280
400100
A00280
400100
AA5280
55A100
AA5280
402100
A05280
A05280
402100
AA5280
55A100
AA5280
ENDCHAR
STARTCHAR E2EA
ENCODING 58090
SWIDTH 765 0
DWIDTH 17 0
BBX 14 17 2 0
BITMAP
AA54
55A8
55A8
AA54
4008
A014
0008
0A54
05A8
0A54
0008
A014
A014
4008
AA54
55A8
AA54
ENDCHAR
STARTCHAR E2EB
ENCODING 58091
SWIDTH 990 0
DWIDTH 22 0
BBX 19 17 2 0
BITMAP
A25560
41AA80
41AA80
A25560
418080
A24160
418080
AA4160
558080
AA4160
418080
A24160
A24160
418080
A25560
41AA80
A25560
ENDCHAR
STARTCHAR E2EC
ENCODING 58092
SWIDTH 675 0
DWIDTH 15 0
BBX 12 17 2 0
BITMAP
AA50
55A0
55A0
AA50
4020
A050
4020
A050
4020
AA50
55A0
2A50
2A50
5020
A050
4020
A050
ENDCHAR
STARTCHAR E2F1
ENCODING 58097
SWIDTH 675 0
DWIDTH 15 0
BBX 12 17 2 0
BITMAP
A800
5400
5400
AA00
4580
A240
41A0
A050
4020
AA50
55A0
AA50
AA50
4020
A050
4020
A050
ENDCHAR
STARTCHAR E2F2
ENCODING 58098
SWIDTH 675 0
DWIDTH 15 0
BBX 12 17 2 0
BITMAP
AA50
55A0
55A0
AA50
4000
A000
4000
AA00
5580
AA40
41A0
A050
A050
4020
AA50
55A0
AA50
ENDCHAR
STARTCHAR E2F3
ENCODING 58099
SWIDTH 675 0
DWIDTH 15 0
BBX 12 17 2 0
BITMAP
AA50
55A0
55A0
AA50
4020
A050
41A0
AA50
55A0
AA50
4020
A050
A050
41A0
AA40
5580
AA00
ENDCHAR
STARTCHAR E2F4
ENCODING 58100
SWIDTH 585 0
DWIDTH 13 0
BBX 10 17 2 0
BITMAP
0A40
1580
1580
2A40
5000
A000
4000
A000
4000
A000
4000
A000
A000
4000
A000
4000
A000
ENDCHAR
STARTCHAR E2F5
ENCODING 58101
SWIDTH 675 0
DWIDTH 15 0
BBX 12 17 2 0
BITMAP
0A50
15A0
15A0
2A50
5000
A000
4000
AA40
5580
AA40
4000
A000
A000
4000
AA50
55A0
AA50
ENDCHAR
STARTCHAR E2F8
ENCODING 58104
SWIDTH 765 0
DWIDTH 17 0
BBX 14 17 2 0
BITMAP
2A54
15A8
15A8
2A54
1008
2814
1008
2814
1008
2814
1008
2814
2814
1008
A814
5008
A014
ENDCHAR
STARTCHAR E2F9
ENCODING 58105
SWIDTH 1080 0
DWIDTH 24 0
BBX 21 17 2 0
BITMAP
025168
05A290
05A290
0A5568
142A10
285468
502810
A05068
402010
A05068
402010
A05068
A05068
402010
A05068
402010
A05068
ENDCHAR
STARTCHAR E2FA
ENCODING 58106
SWIDTH 765 0
DWIDTH 17 0
BBX 14 17 2 0
BITMAP
0A54
15A8
15A8
2A54
5008
A014
4008
A014
4008
A014
4008
A014
A014
4028
AA50
55A0
AA40
ENDCHAR
STARTCHAR E2FB
ENCODING 58107
SWIDTH 675 0
DWIDTH 15 0
BBX 12 17 2 0
BITMAP
AA50
55A0
55A0
AA50
4020
A050
4020
A050
41A0
AA40
5580
AA00
AA00
4000
A000
4000
A000
ENDCHAR
STARTCHAR E2FC
ENCODING 58108
SWIDTH 675 0
DWIDTH 15 0
BBX 12 17 2 0
BITMAP
AA50
55A0
55A0
AA50
4000
A000
4000
A000
4000
A000
5000
2800
2800
1400
0A50
05A0
0250
ENDCHAR
STARTCHAR E2FD
ENCODING 58109
SWIDTH 900 0
DWIDTH 20 0
BBX 16 21 2 -2
BITMAP
0240
0180
0A55
15AA
15AA
2A55
5182
A245
4182
A245
4182
A245
4182
A245
A245
418A
AA54
55A8
AA50
0180
0240
ENDCHAR
STARTCHAR E2FE
ENCODING 58110
SWIDTH 675 0
DWIDTH 15 0
BBX 12 17 2 0
BITMAP
A000
4000
4000
A000
4000
A000
4000
AA00
5580
AA40
41A0
A050
A050
4020
AA50
55A0
AA50
ENDCHAR
STARTCHAR E2FF
ENCODING 58111
SWIDTH 765 0
DWIDTH 17 0
BBX 14 17 2 0
BITMAP
A800
5000
5000
A800
1000
2800
1000
2A40
15A0
2A50
1028
2814
2814
1008
2A54
15A8
2A54
ENDCHAR
STARTCHAR E300
ENCODING 58112
SWIDTH 945 0
DWIDTH 21 0
BBX 17 17 2 0
BITMAP
A00280
400100
400100
A00280
400100
A00280
400100
AA0280
558100
AA4280
41A100
A05280
A05280
402100
AA5280
55A100
AA5280
ENDCHAR
STARTCHAR E302
ENCODING 58114
SWIDTH 1080 0
DWIDTH 24 0
BBX 21 17 2 0
BITMAP
A01568
402A90
402A90
A05568
41A010
A24068
418010
AA4068
558010
AA4068
418010
A24068
A24068
418090
A25560
41AA80
A25500
ENDCHAR
STARTCHAR E303
ENCODING 58115
SWIDTH 675 0
DWIDTH 15 0
BBX 12 17 2 0
BITMAP
AA50
55A0
55A0
AA50
4020
A050
4020
A050
5020
2A50
15A0
2A50
2A50
5020
A050
4020
A050
ENDCHAR
STARTCHAR E304
ENCODING 58116
SWIDTH 675 0
DWIDTH 15 0
BBX 12 17 2 0
BITMAP
2A50
55A0
55A0
AA50
4020
A050
4020
A050
4020
A050
4020
A050
A050
4020
AA50
55A0
AA40
ENDCHAR
STARTCHAR E305
ENCODING 58117
SWIDTH 675 0
DWIDTH 15 0
BBX 12 17 2 0
BITMAP
AA50
55A0
55A0
AA50
4020
A050
0020
2A50
55A0
AA40
4000
A000
A000
4000
AA50
55A0
AA50
ENDCHAR
STARTCHAR E306
ENCODING 58118
SWIDTH 675 0
DWIDTH 15 0
BBX 12 17 2 0
BITMAP
AA50
55A0
55A0
AA50
4020
A050
0020
0A50
05A0
0A50
0020
A050
A050
4020
AA50
55A0
AA50
ENDCHAR
STARTCHAR E307
ENCODING 58119
SWIDTH 675 0
DWIDTH 15 0
BBX 12 17 2 0
BITMAP
A050
4020
4020
A050
4020
A050
4020
A050
4020
AA50
55A0
AA50
AA50
0020
0050
0020
0050
ENDCHAR
STARTCHAR E308
ENCODING 58120
SWIDTH 675 0
DWIDTH 15 0
BBX 12 17 2 0
BITMAP
AA50
55A0
55A0
AA50
4000
A000
4000
AA50
55A0
AA50
4020
A050
A050
4020
AA50
55A0
AA50
ENDCHAR
STARTCHAR E309
ENCODING 58121
SWIDTH 675 0
DWIDTH 15 0
BBX 12 17 2 0
BITMAP
AA50
55A0
55A0
AA50
0020
0050
0020
2A50
15A0
2A50
0020
0050
0050
0020
0050
0020
0050
ENDCHAR
STARTCHAR E30A
ENCODING 58122
SWIDTH 675 0
DWIDTH 15 0
BBX 12 17 2 0
BITMAP
AA50
55A0
55A0
AA50
4020
A050
4020
AA50
55A0
AA50
4020
A050
A050
4020
AA50
55A0
AA50
ENDCHAR
STARTCHAR E30B
ENCODING 58123
SWIDTH 675 0
DWIDTH 15 0
BBX 12 17 2 0
BITMAP
AA50
55A0
55A0
AA50
4020
A050
4020
AA50
55A0
AA50
0020
0050
0050
0020
AA50
55A0
AA50
ENDCHAR
STARTCHAR E30C
ENCODING 58124
SWIDTH 675 0
DWIDTH 15 0
BBX 12 17 2 0
BITMAP
2A40
55A0
55A0
AA50
4020
A050
0020
2A50
55A0
AA40
4000
A000
A000
4000
AA50
55A0
AA50
ENDCHAR
STARTCHAR E30D
ENCODING 58125
SWIDTH 675 0
DWIDTH 15 0
BBX 12 17 2 0
BITMAP
2A40
55A0
55A0
AA50
4020
A050
0020
0A50
05A0
0A50
0020
A050
A050
4020
AA50
55A0
2A40
ENDCHAR
STARTCHAR E30E
ENCODING 58126
SWIDTH 675 0
DWIDTH 15 0
BBX 12 17 2 0
BITMAP
0A40
1580
1580
2A40
5180
A240
4180
A240
4180
AA50
55A0
AA50
AA50
0180
0240
0180
0240
ENDCHAR
STARTCHAR E30F
ENCODING 58127
SWIDTH 675 0
DWIDTH 15 0
BBX 12 17 2 0
BITMAP
A000
4000
4000
A000
4000
AA40
55A0
AA50
4020
A050
4020
A050
A050
4020
AA50
55A0
2A40
ENDCHAR
STARTCHAR E310
ENCODING 58128
SWIDTH 675 0
DWIDTH 15 0
BBX 12 17 2 0
BITMAP
AA50
55A0
55A0
AA50
0020
0050
0020
0A50
15A0
2A40
1000
2800
2800
1000
2800
1000
2800
ENDCHAR
STARTCHAR E311
ENCODING 58129
SWIDTH 675 0
DWIDTH 15 0
BBX 12 17 2 0
BITMAP
2A40
55A0
55A0
AA50
4020
A050
4020
AA50
55A0
AA50
4020
A050
A050
4020
AA50
55A0
2A40
ENDCHAR
STARTCHAR E312
ENCODING 58130
SWIDTH 675 0
DWIDTH 15 0
BBX 12 17 2 0
BITMAP
2A40
55A0
55A0
AA50
4020
A050
4020
A050
4020
AA50
55A0
2A50
2A50
0020
0050
0020
0050
ENDCHAR
STARTCHAR E313
ENCODING 58131
SWIDTH 675 0
DWIDTH 15 0
BBX 12 17 2 0
BITMAP
AA40
55A0
55A0
AA50
4020
A050
4020
A050
4020
A050
4020
A050
A050
4020
AA50
55A0
2A50
ENDCHAR
STARTCHAR E314
ENCODING 58132
SWIDTH 675 0
DWIDTH 15 0
BBX 12 17 2 0
BITMAP
AA50
55A0
55A0
AA50
4020
A050
01A0
0240
0580
0A00
1400
2800
2800
5000
AA50
55A0
AA50
ENDCHAR
STARTCHAR E315
ENCODING 58133
SWIDTH 675 0
DWIDTH 15 0
BBX 12 17 2 0
BITMAP
AA50
55A0
55A0
AA50
4020
A050
01A0
0A40
05A0
0A50
0020
A050
A050
4020
AA50
55A0
AA50
ENDCHAR
STARTCHAR E316
ENCODING 58134
SWIDTH 675 0
DWIDTH 15 0
BBX 12 17 2 0
BITMAP
0A50
15A0
15A0
2A50
5000
A000
4000
AA50
55A0
AA50
4020
A050
A050
4020
AA50
55A0
AA50
ENDCHAR
STARTCHAR E317
ENCODING 58135
SWIDTH 675 0
DWIDTH 15 0
BBX 12 17 2 0
BITMAP
AA50
55A0
55A0
AA50
4020
A050
51A0
2A40
1580
2A40
51A0
A050
A050
4020
AA50
55A0
AA50
ENDCHAR
STARTCHAR E318
ENCODING 58136
SWIDTH 675 0
DWIDTH 15 0
BBX 12 17 2 0
BITMAP
AA50
55A0
55A0
AA50
4020
A050
4020
AA50
55A0
AA50
0020
0050
0050
01A0
AA40
5580
AA00
ENDCHAR
STARTCHAR E338
ENCODING 58168
SWIDTH 675 0
DWIDTH 15 0
BBX 12 17 2 0
BITMAP
AA50
55A0
55A0
AA50
4020
A050
0020
0A50
05A0
0A50
0400
0A00
0A00
0000
0A00
0400
0A00
ENDCHAR
STARTCHAR E339
ENCODING 58169
SWIDTH 675 0
DWIDTH 15 0
BBX 12 17 2 0
BITMAP
0A00
0400
0400
0A00
0000
0A00
0400
AA00
5400
AA00
4000
A050
A050
4020
AA50
55A0
AA50
ENDCHAR
STARTCHAR E33C
ENCODING 58172
SWIDTH 0 0
DWIDTH 0 0
BBX 10 5 -11 18
BITMAP
D140
2080
D540
2A80
1500
ENDCHAR
STARTCHAR E33D
ENCODING 58173
SWIDTH 0 0
DWIDTH 0 0
BBX 10 12 -11 18
BITMAP
0140
0280
0500
0A00
1400
1400
0000
D140
2080
D540
2A80
1500
ENDCHAR
STARTCHAR E33E
ENCODING 58174
SWIDTH 0 0
DWIDTH 0 0
BBX 11 12 -12 18
BITMAP
A000
5800
2400
1A00
0500
0500
0000
68A0
1040
6AA0
1540
0A80
ENDCHAR
STARTCHAR E33F
ENCODING 58175
SWIDTH 0 0
DWIDTH 0 0
BBX 10 14 -11 18
BITMAP
2A00
1500
2A80
0100
0A80
0500
0A00
0A00
0000
D140
2080
D540
2A80
1500
ENDCHAR
STARTCHAR E340
ENCODING 58176
SWIDTH 0 0
DWIDTH 0 0
BBX 13 12 -12 18
BITMAP
1458
6A20
9558
62A0
9140
9140
0000
68A0
1040
6AA0
1540
0A80
ENDCHAR
STARTCHAR E341
ENCODING 58177
SWIDTH 0 0
DWIDTH 0 0
BBX 9 12 -8 18
BITMAP
0580
0A00
1400
2800
5000
5000
0000
2800
5400
AA00
4400
AA00
ENDCHAR
STARTCHAR E342
ENCODING 58178
SWIDTH 0 0
DWIDTH 0 0
BBX 10 12 -11 18
BITMAP
D000
2800
1400
0A00
0500
0500
0000
0500
0A80
1540
0880
1540
ENDCHAR
STARTCHAR E343
ENCODING 58179
SWIDTH 0 0
DWIDTH 0 0
BBX 7 14 -8 18
BITMAP
A8
54
AA
04
2A
14
28
28
00
28
54
AA
44
AA
ENDCHAR
STARTCHAR E344
ENCODING 58180
SWIDTH 0 0
DWIDTH 0 0
BBX 13 12 -11 18
BITMAP
1448
2A30
D548
22B0
D140
D140
0000
0500
0A80
1540
0880
1540
ENDCHAR
ENDFONT
